<svg version="1.1" id="Layer_1" xmlns="http://www.w3.org/2000/svg" xmlns:xlink="http://www.w3.org/1999/xlink" x="0px" y="0px"
	 width="100%" viewBox="0 0 500 546" enable-background="new 0 0 500 546" xml:space="preserve">
<path fill="#FDFEFE" opacity="1.000000" stroke="none" 
	d="
M276.000000,547.000000 
	C184.021866,547.000000 92.543732,547.000000 1.032797,547.000000 
	C1.032797,365.065369 1.032797,183.130707 1.032797,1.098031 
	C167.561432,1.098031 334.122925,1.098031 500.842224,1.098031 
	C500.842224,182.999893 500.842224,364.999939 500.842224,547.000000 
	C426.130768,547.000000 351.315369,547.000000 276.000000,547.000000 
M144.903320,512.128113 
	C144.903320,512.128113 144.806351,512.175049 145.135971,512.747375 
	C149.580093,515.096619 149.580093,515.096619 150.280807,511.039154 
	C150.194138,506.712250 150.107468,502.385376 150.197495,497.121887 
	C150.130661,480.861725 150.037918,464.601593 150.024872,448.341370 
	C150.022903,445.894989 150.087784,443.623352 146.449997,442.639648 
	C130.663834,434.087128 115.008057,425.278320 99.011040,417.140289 
	C94.290932,414.739075 93.310547,411.874420 93.316154,407.087616 
	C93.432755,307.532837 93.403488,207.977936 93.402596,108.423042 
	C93.402580,106.591766 93.717209,104.683334 93.299500,102.952179 
	C92.925064,101.400314 92.102608,99.393295 90.858704,98.703499 
	C80.836174,93.145554 70.667137,87.851807 60.424328,82.460075 
	C60.424328,82.460075 60.323933,82.394737 59.858456,81.941185 
	C53.986111,78.864555 48.113766,75.787933 42.103928,72.991859 
	C42.103928,72.991859 42.252811,72.710960 41.995583,72.199127 
	C41.471416,71.977654 40.947250,71.756180 39.949776,71.054710 
	C38.672798,70.492119 37.395824,69.929527 35.566433,69.123558 
	C35.566433,72.192307 35.566471,74.662399 35.566429,77.132500 
	C35.565670,122.929085 35.564930,168.725677 35.564144,214.522263 
	C35.562809,292.459717 35.550938,370.397186 35.621899,448.334595 
	C35.623638,450.245087 36.544983,452.154724 37.435688,454.506042 
	C37.633179,454.522125 37.830666,454.538239 38.133488,454.579041 
	C38.133488,454.579041 38.168526,454.681427 38.616348,455.186676 
	C40.046440,455.845886 41.476532,456.505096 42.938705,457.056274 
	C42.938705,457.056274 42.847626,457.122589 43.222157,457.698730 
	C47.613075,459.977020 52.003998,462.255310 56.517860,464.554077 
	C56.517860,464.554077 56.611397,464.636444 57.046181,465.118835 
	C59.927902,466.722778 62.783241,468.376434 65.695831,469.922180 
	C79.083832,477.027313 92.487823,484.102295 105.924530,491.069733 
	C105.924530,491.069733 105.826546,491.146545 106.210907,491.715759 
	C109.768806,493.538239 113.326714,495.360748 116.941605,497.062714 
	C116.941605,497.062714 116.834023,497.141449 117.182152,497.734344 
	C120.773857,499.521576 124.365570,501.308838 127.974869,503.013580 
	C127.974869,503.013580 127.906311,503.062714 128.293777,503.628540 
	C133.165207,506.139374 138.036636,508.650238 142.939926,511.055511 
	C142.939926,511.055511 142.849030,511.117981 143.155975,511.659851 
	C143.738037,511.851868 144.320084,512.043823 144.903320,512.128113 
M461.288788,483.588287 
	C461.828644,483.772614 462.368500,483.956940 462.985748,484.111572 
	C462.985748,484.111572 462.967987,484.030609 463.194916,484.541351 
	C463.691620,484.778351 464.188324,485.015381 465.277161,485.826782 
	C470.012512,486.121246 467.891632,482.395386 467.893341,480.656799 
	C468.016022,356.126678 468.010925,231.596466 467.972687,107.066238 
	C467.972168,105.334259 467.419006,103.602440 467.102936,101.894142 
	C467.102936,101.894142 467.116516,101.872299 466.789642,101.189514 
	C465.820618,101.092239 464.851593,100.994957 463.356323,100.479805 
	C458.621674,97.616058 453.985565,94.571312 449.130798,91.928162 
	C440.393799,87.171310 431.525757,82.655228 422.549805,77.391579 
	C415.724945,73.968468 408.900055,70.545357 401.391785,66.883255 
	C397.073029,64.555855 392.767914,62.202782 388.432831,59.906185 
	C378.359161,54.569469 368.271057,49.260017 357.905792,43.354618 
	C356.941254,42.903557 355.976685,42.452496 354.789856,41.296265 
	C354.088684,41.847370 352.778107,42.397396 352.777130,42.949738 
	C352.760590,52.300838 352.906830,61.652229 352.823151,71.923447 
	C352.862915,83.755386 352.792633,95.589943 353.074127,107.416130 
	C353.111633,108.991859 354.933197,110.525108 355.998199,112.054459 
	C355.998199,112.054459 355.928802,112.058502 355.969482,112.658989 
	C356.701691,112.816086 357.433899,112.973183 358.807953,113.348076 
	C374.934113,122.184998 391.060272,131.021927 407.110962,140.539261 
	C407.741241,140.716354 408.371490,140.893448 408.997253,141.003937 
	C408.997253,141.003937 408.933258,141.023071 409.202026,141.801514 
	C409.318207,144.284683 409.535492,146.767838 409.535919,149.251022 
	C409.553101,248.240555 409.550507,347.230072 409.551514,446.219604 
	C409.551544,448.386017 409.247559,450.617981 409.677551,452.696869 
	C409.988434,454.200043 411.282043,455.500000 412.835358,457.070679 
	C420.199524,460.750061 427.563690,464.429443 435.001678,468.025848 
	C435.001678,468.025848 434.904968,468.080444 435.193939,468.730072 
	C440.096313,471.198822 444.998657,473.667603 450.001343,476.037415 
	C450.001343,476.037415 449.879364,476.107880 450.178955,476.752045 
	C453.839264,478.838135 457.499542,480.924194 461.288788,483.588287 
M301.922302,505.652802 
	C300.211060,506.404205 298.438446,507.044556 296.809570,507.945007 
	C295.672333,508.573700 294.731964,509.558533 293.703674,510.384308 
	C293.987701,510.790833 294.271759,511.197357 294.555786,511.603882 
	C304.154022,511.603882 313.752228,511.603882 323.350433,511.603882 
	C323.647888,511.221130 323.945374,510.838348 324.242828,510.455597 
	C323.139862,509.603363 322.094299,508.660004 320.920288,507.920654 
	C319.235657,506.859772 317.457367,505.947723 315.827759,504.044098 
	C315.801697,490.038391 315.775665,476.032654 316.010468,461.359802 
	C315.467987,460.798492 314.809814,459.675629 314.400360,459.760010 
	C308.223999,461.032501 302.063446,462.396729 295.950623,463.942841 
	C295.193268,464.134430 294.730621,465.491272 294.131439,466.308136 
	C294.991882,466.873535 295.825531,467.485901 296.718323,467.994507 
	C298.544525,469.034729 300.402466,470.019165 302.181244,471.958252 
	C302.217163,482.962158 302.253113,493.966095 301.922302,505.652802 
M349.340607,498.992676 
	C349.310669,489.681732 349.280731,480.370789 350.136292,470.989807 
	C353.561005,470.989807 356.985718,470.989807 360.689880,470.989807 
	C360.907532,468.013214 361.067841,465.820404 361.227539,463.636475 
	C356.885986,463.636475 353.275787,463.636475 349.259918,463.636475 
	C349.592163,456.381714 349.911743,449.403076 350.262695,441.739319 
	C344.768707,443.963928 340.250610,445.793396 335.989868,447.518646 
	C335.989868,450.481140 335.814941,452.988861 336.025391,455.463867 
	C336.498383,461.026886 336.313690,466.121399 329.691742,468.145752 
	C329.179352,468.302368 328.939850,469.351746 328.244476,470.556030 
	C331.070251,470.774963 333.293304,470.947205 335.994354,471.156464 
	C335.994354,472.832367 335.996246,474.454346 335.994019,476.076324 
	C335.982819,484.233856 335.829742,492.394287 335.997406,500.548126 
	C336.172241,509.048706 340.869049,513.224426 349.354645,513.155884 
	C355.653748,513.104919 357.948425,507.834503 361.956848,503.807922 
	C357.151947,503.788239 351.959259,505.464722 349.340607,498.992676 
M278.200317,459.924194 
	C272.730865,461.210052 267.239197,462.412262 261.810516,463.851959 
	C260.714630,464.142578 259.857300,465.332764 258.889984,466.108215 
	C259.826996,466.739685 260.791382,467.946838 261.696289,467.903748 
	C265.773956,467.709595 266.911407,469.907623 266.900970,473.436401 
	C266.880859,480.233826 267.017914,487.033081 266.901947,493.828369 
	C266.819580,498.652893 263.423462,502.392822 258.855927,503.107086 
	C253.239288,503.985413 250.879822,502.570435 248.607513,496.047516 
	C248.607513,484.015625 248.607513,471.983734 248.607513,459.288177 
	C246.662827,459.989502 245.322357,460.472931 243.174377,460.933807 
	C238.626724,461.892120 234.057266,462.762238 229.548615,463.878113 
	C228.568237,464.120789 227.805801,465.243927 226.942993,465.961517 
	C227.838959,466.641296 228.770905,467.945343 229.624847,467.896118 
	C234.045395,467.641296 235.018829,470.097687 234.989822,473.808228 
	C234.926025,481.964111 234.979233,490.120880 234.975342,498.277283 
	C234.972382,504.477386 237.190033,509.607910 243.241730,511.778809 
	C249.202927,513.917175 255.276642,514.437195 260.242828,508.959381 
	C262.065552,506.948944 264.246643,505.263428 267.166260,502.609894 
	C267.166260,506.542358 267.166260,509.106628 267.166260,511.675476 
	C274.358063,511.675476 281.101105,511.675476 287.844177,511.675476 
	C288.160248,511.322235 288.476318,510.969025 288.792389,510.615784 
	C287.851685,509.713959 287.047241,508.551971 285.938416,507.971039 
	C284.261047,507.092255 282.371613,506.618256 280.514465,505.146515 
	C280.490234,491.235352 280.500183,477.323883 280.379242,463.413574 
	C280.369171,462.252899 279.476624,461.099915 278.200317,459.924194 
M167.558884,378.933380 
	C179.360626,388.926147 192.483734,396.648773 207.045685,401.891510 
	C240.581772,413.965485 273.855316,412.988037 306.224060,398.321686 
	C339.448578,383.267578 362.828918,358.361298 375.313904,323.923370 
	C389.312805,285.309540 386.167053,247.603378 365.157898,212.506241 
	C340.515259,171.339188 303.224396,149.646240 255.182434,148.054657 
	C219.221634,146.863297 187.724197,159.256088 161.846436,184.179733 
	C131.475510,213.430878 117.962776,249.657242 121.857269,291.670349 
	C125.086807,326.510132 140.590073,355.454834 167.558884,378.933380 
M176.635605,477.031555 
	C182.795273,478.403168 188.966476,479.725464 195.110962,481.161957 
	C200.049606,482.316559 204.319778,484.358856 205.230148,490.092346 
	C206.687027,499.267883 200.921387,507.028168 192.051361,507.890228 
	C180.079102,509.053833 171.579300,503.361298 171.268646,493.645081 
	C171.155289,490.099915 170.075317,489.195892 167.088638,490.394592 
	C166.457489,495.752472 165.682968,500.846558 165.390472,505.968170 
	C165.326355,507.091034 166.763687,509.036499 167.876038,509.366028 
	C173.587723,511.057953 179.372437,513.288269 185.218384,513.577576 
	C197.138336,514.167480 208.161850,511.470001 215.071442,500.292389 
	C224.179855,485.557800 217.555008,470.779480 200.634293,467.851532 
	C195.890533,467.030640 190.983063,466.498688 186.546280,464.800598 
	C183.760666,463.734467 180.572113,461.170715 179.578491,458.523010 
	C177.718872,453.567596 178.275467,448.189423 182.709641,444.303864 
	C188.267227,439.433899 194.677979,440.112793 201.089737,442.151428 
	C206.259964,443.795258 208.516190,447.412354 207.832382,452.870697 
	C207.719574,453.771179 208.149399,454.739624 208.681351,457.523499 
	C210.537064,455.272644 212.076645,454.225555 212.352280,452.913055 
	C213.100357,449.350647 213.517670,445.681915 213.627609,442.042084 
	C213.666718,440.746765 212.743927,438.581665 211.751602,438.223755 
	C199.564819,433.828156 187.305939,432.831604 175.657486,439.684631 
	C161.423477,448.058746 162.433823,472.513824 176.635605,477.031555 
M370.392914,501.912781 
	C377.170532,515.424377 396.981293,516.466370 408.135315,509.473419 
	C409.959137,508.329987 410.748352,505.536377 412.015717,503.505432 
	C411.666168,503.129700 411.316620,502.753967 410.967072,502.378235 
	C404.527802,504.924744 398.067322,507.253601 391.250153,504.347015 
	C384.786896,501.591370 380.859619,495.282104 381.195251,487.949524 
	C381.954437,487.889618 382.748993,487.816376 383.545013,487.765717 
	C392.151642,487.218079 400.766327,486.766083 409.356842,486.030853 
	C410.663574,485.919006 412.645782,484.735596 412.974609,483.643921 
	C414.849762,477.418640 410.432190,467.057098 404.729980,463.487122 
	C392.672577,455.938354 372.503021,463.639191 368.753632,477.360596 
	C366.555939,485.403381 366.638580,493.438934 370.392914,501.912781 
M302.463226,436.900665 
	C300.044189,440.284851 299.648865,444.120911 302.747314,446.781036 
	C304.791504,448.536102 308.630341,449.882507 310.961731,449.155273 
	C313.362610,448.406403 316.074677,445.107452 316.482086,442.575409 
	C316.844421,440.323578 314.804413,436.933899 312.812897,435.226776 
	C309.650360,432.515930 305.990692,433.573700 302.463226,436.900665 
z"/>
<path fill="#01B5B0" opacity="1.000000" stroke="none" 
	d="
M358.188782,43.939514 
	C368.271057,49.260017 378.359161,54.569469 388.432831,59.906185 
	C392.767914,62.202782 397.073029,64.555855 401.790161,67.334213 
	C409.029816,71.202972 415.871124,74.620766 422.712433,78.038559 
	C431.525757,82.655228 440.393799,87.171310 449.130798,91.928162 
	C453.985565,94.571312 458.621674,97.616058 463.783630,100.906700 
	C464.685608,101.552910 465.160339,101.772224 465.732605,102.451050 
	C465.880615,104.573395 465.975159,106.236221 465.975250,107.899055 
	C465.981995,231.290375 465.981323,354.681671 465.980774,478.072998 
	C465.980774,479.072113 466.328796,480.282104 465.888977,481.021851 
	C465.194153,482.190552 463.968781,483.043823 462.967957,484.030579 
	C462.967987,484.030609 462.985748,484.111572 462.883698,483.865479 
	C462.522339,483.373505 462.263031,483.127655 461.962189,482.535828 
	C457.906891,480.162537 453.893127,478.135223 449.879364,476.107880 
	C449.879364,476.107880 450.001343,476.037415 449.940155,475.729614 
	C444.887634,472.974701 439.896301,470.527588 434.904968,468.080444 
	C434.904968,468.080444 435.001678,468.025848 434.945679,467.712006 
	C427.288452,463.252838 419.687225,459.107513 412.062439,454.975281 
	C412.038849,454.988373 412.035492,454.934509 412.027466,454.471619 
	C412.012543,351.720642 412.011871,249.432541 411.954376,147.144470 
	C411.953217,145.097885 411.287842,143.051666 410.598785,140.991486 
	C409.821228,140.992828 409.377228,141.007965 408.933258,141.023071 
	C408.933258,141.023071 408.997253,141.003937 408.920471,140.745972 
	C408.291260,140.278305 407.738861,140.068573 407.186432,139.858856 
	C391.060272,131.021927 374.934113,122.184998 358.308258,112.948669 
	C357.181976,112.385674 356.555389,112.222084 355.928802,112.058502 
	C355.928802,112.058502 355.998199,112.054459 356.049133,111.778351 
	C356.077606,111.303314 356.055084,111.104378 355.913086,110.697792 
	C355.584229,110.232162 355.318756,110.061348 354.730286,109.679512 
	C354.396606,106.289253 354.329803,103.197182 354.497925,99.755981 
	C354.831421,97.594055 355.013794,95.781319 355.015350,93.968445 
	C355.028290,78.873138 355.007843,63.777802 354.997711,48.682476 
	C354.996185,46.385201 354.480499,43.741188 358.188782,43.939514 
z"/>
<path fill="#120380" opacity="1.000000" stroke="none" 
	d="
M38.168526,454.681427 
	C38.168526,454.681427 38.133488,454.579041 38.087952,454.053040 
	C38.028557,450.197784 38.002907,446.868469 38.002548,443.539185 
	C37.989273,320.018738 37.978321,196.498260 37.983715,72.983368 
	C38.000374,72.988922 37.972168,72.963516 38.320686,72.977356 
	C39.134743,72.992538 39.600277,72.993881 40.435440,72.989853 
	C41.287651,72.893311 41.770229,72.802139 42.252811,72.710960 
	C42.252811,72.710960 42.103928,72.991859 42.134781,73.213806 
	C43.761753,74.740135 45.174088,76.456718 46.990654,77.266708 
	C51.333775,79.203255 55.867290,80.712791 60.323933,82.394730 
	C60.323933,82.394737 60.424328,82.460075 60.419907,82.827820 
	C60.947369,83.791420 61.368279,84.588509 62.028088,84.952408 
	C69.741180,89.206314 77.351242,93.685013 85.284355,97.487045 
	C89.700783,99.603668 91.129051,102.287903 91.122421,107.132271 
	C90.984970,207.591812 91.050537,308.051605 90.920517,408.511200 
	C90.914406,413.235992 92.663025,415.839874 96.653900,417.883667 
	C104.935555,422.124756 113.013237,426.762451 121.264923,431.064209 
	C129.772095,435.499146 138.386383,439.728577 147.032013,444.456055 
	C147.417603,446.978790 147.979462,449.092010 147.991135,451.208252 
	C148.068222,465.188446 147.961258,479.170013 148.112366,493.148987 
	C148.130127,494.792145 149.355316,496.422302 150.020782,498.058472 
	C150.107468,502.385376 150.194138,506.712250 149.746368,511.518555 
	C147.743408,512.057007 146.274887,512.116028 144.806351,512.175049 
	C144.806351,512.175049 144.903320,512.128113 144.781738,511.874390 
	C144.056442,511.453094 143.452728,511.285553 142.849030,511.117981 
	C142.849030,511.117981 142.939926,511.055511 142.904099,510.752258 
	C137.880951,507.986938 132.893631,505.524811 127.906311,503.062714 
	C127.906311,503.062714 127.974869,503.013580 127.932129,502.702576 
	C124.204269,500.641510 120.519142,498.891479 116.834015,497.141449 
	C116.834023,497.141449 116.941605,497.062714 116.908829,496.764160 
	C113.192879,494.692596 109.509712,492.919556 105.826546,491.146545 
	C105.826546,491.146545 105.924530,491.069733 105.890289,490.772583 
	C105.179031,489.804535 104.612579,488.930237 103.808479,488.493134 
	C91.120796,481.596741 78.441589,474.682312 65.661049,467.961060 
	C62.841492,466.478241 59.638065,465.725403 56.611397,464.636444 
	C56.611397,464.636444 56.517860,464.554077 56.534798,464.190460 
	C51.983696,461.592102 47.415661,459.357330 42.847626,457.122589 
	C42.847626,457.122589 42.938705,457.056274 42.891556,456.722656 
	C41.285778,455.819855 39.727150,455.250641 38.168526,454.681427 
z"/>
<path fill="#1D3947" opacity="1.000000" stroke="none" 
	d="
M167.293060,378.698730 
	C140.590073,355.454834 125.086807,326.510132 121.857269,291.670349 
	C117.962776,249.657242 131.475510,213.430878 161.846436,184.179733 
	C187.724197,159.256088 219.221634,146.863297 255.182434,148.054657 
	C303.224396,149.646240 340.515259,171.339188 365.157898,212.506241 
	C386.167053,247.603378 389.312805,285.309540 375.313904,323.923370 
	C362.828918,358.361298 339.448578,383.267578 306.224060,398.321686 
	C273.855316,412.988037 240.581772,413.965485 207.045685,401.891510 
	C192.483734,396.648773 179.360626,388.926147 167.293060,378.698730 
M320.895508,375.450592 
	C357.007385,348.061401 373.863800,311.878784 369.952057,266.574615 
	C367.747192,241.039093 357.565155,218.546005 340.345795,199.759796 
	C316.402863,173.638214 286.362213,159.934448 250.743500,160.822037 
	C205.717148,161.944077 171.063187,182.322891 149.072235,221.521164 
	C127.859482,259.332336 128.146240,298.454468 149.114822,336.440491 
	C168.421799,371.416412 198.872711,391.217560 238.413925,396.277405 
	C268.173645,400.085632 295.540100,392.839233 320.895508,375.450592 
z"/>
<path fill="#1D3B48" opacity="1.000000" stroke="none" 
	d="
M176.265045,476.925842 
	C162.433823,472.513824 161.423477,448.058746 175.657486,439.684631 
	C187.305939,432.831604 199.564819,433.828156 211.751602,438.223755 
	C212.743927,438.581665 213.666718,440.746765 213.627609,442.042084 
	C213.517670,445.681915 213.100357,449.350647 212.352280,452.913055 
	C212.076645,454.225555 210.537064,455.272644 208.681351,457.523499 
	C208.149399,454.739624 207.719574,453.771179 207.832382,452.870697 
	C208.516190,447.412354 206.259964,443.795258 201.089737,442.151428 
	C194.677979,440.112793 188.267227,439.433899 182.709641,444.303864 
	C178.275467,448.189423 177.718872,453.567596 179.578491,458.523010 
	C180.572113,461.170715 183.760666,463.734467 186.546280,464.800598 
	C190.983063,466.498688 195.890533,467.030640 200.634293,467.851532 
	C217.555008,470.779480 224.179855,485.557800 215.071442,500.292389 
	C208.161850,511.470001 197.138336,514.167480 185.218384,513.577576 
	C179.372437,513.288269 173.587723,511.057953 167.876038,509.366028 
	C166.763687,509.036499 165.326355,507.091034 165.390472,505.968170 
	C165.682968,500.846558 166.457489,495.752472 167.088638,490.394592 
	C170.075317,489.195892 171.155289,490.099915 171.268646,493.645081 
	C171.579300,503.361298 180.079102,509.053833 192.051361,507.890228 
	C200.921387,507.028168 206.687027,499.267883 205.230148,490.092346 
	C204.319778,484.358856 200.049606,482.316559 195.110962,481.161957 
	C188.966476,479.725464 182.795273,478.403168 176.265045,476.925842 
z"/>
<path fill="#1B3948" opacity="1.000000" stroke="none" 
	d="
M248.642639,496.982147 
	C250.879822,502.570435 253.239288,503.985413 258.855927,503.107086 
	C263.423462,502.392822 266.819580,498.652893 266.901947,493.828369 
	C267.017914,487.033081 266.880859,480.233826 266.900970,473.436401 
	C266.911407,469.907623 265.773956,467.709595 261.696289,467.903748 
	C260.791382,467.946838 259.826996,466.739685 258.889984,466.108215 
	C259.857300,465.332764 260.714630,464.142578 261.810516,463.851959 
	C267.239197,462.412262 272.730865,461.210052 278.593658,460.406189 
	C278.988770,474.349396 278.938812,487.811096 279.061829,501.271210 
	C279.076202,502.842712 280.045624,504.405426 280.572296,505.972229 
	C282.371613,506.618256 284.261047,507.092255 285.938416,507.971039 
	C287.047241,508.551971 287.851685,509.713959 288.792389,510.615784 
	C288.476318,510.969025 288.160248,511.322235 287.844177,511.675476 
	C281.101105,511.675476 274.358063,511.675476 267.166260,511.675476 
	C267.166260,509.106628 267.166260,506.542358 267.166260,502.609894 
	C264.246643,505.263428 262.065552,506.948944 260.242828,508.959381 
	C255.276642,514.437195 249.202927,513.917175 243.241730,511.778809 
	C237.190033,509.607910 234.972382,504.477386 234.975342,498.277283 
	C234.979233,490.120880 234.926025,481.964111 234.989822,473.808228 
	C235.018829,470.097687 234.045395,467.641296 229.624847,467.896118 
	C228.770905,467.945343 227.838959,466.641296 226.942993,465.961517 
	C227.805801,465.243927 228.568237,464.120789 229.548615,463.878113 
	C234.057266,462.762238 238.626724,461.892120 243.770660,461.202881 
	C246.724731,461.475281 247.086288,462.742706 247.053101,464.895477 
	C246.912155,474.039429 246.914963,483.188080 247.065079,492.331726 
	C247.090668,493.890106 248.092072,495.432404 248.642639,496.982147 
z"/>
<path fill="#1D3A48" opacity="1.000000" stroke="none" 
	d="
M370.224426,501.572998 
	C366.638580,493.438934 366.555939,485.403381 368.753632,477.360596 
	C372.503021,463.639191 392.672577,455.938354 404.729980,463.487122 
	C410.432190,467.057098 414.849762,477.418640 412.974609,483.643921 
	C412.645782,484.735596 410.663574,485.919006 409.356842,486.030853 
	C400.766327,486.766083 392.151642,487.218079 383.545013,487.765717 
	C382.748993,487.816376 381.954437,487.889618 381.195251,487.949524 
	C380.859619,495.282104 384.786896,501.591370 391.250153,504.347015 
	C398.067322,507.253601 404.527802,504.924744 410.967072,502.378235 
	C411.316620,502.753967 411.666168,503.129700 412.015717,503.505432 
	C410.748352,505.536377 409.959137,508.329987 408.135315,509.473419 
	C396.981293,516.466370 377.170532,515.424377 370.224426,501.572998 
M386.701385,481.888214 
	C390.769104,481.888214 394.836792,481.888214 398.811218,481.888214 
	C399.685089,471.332581 396.632721,466.198730 390.051880,466.140045 
	C383.195160,466.078918 379.657074,471.569916 380.520630,481.506226 
	C382.209564,481.622559 383.987152,481.745026 386.701385,481.888214 
z"/>
<path fill="#291F66" opacity="1.000000" stroke="none" 
	d="
M146.953796,444.047913 
	C138.386383,439.728577 129.772095,435.499146 121.264923,431.064209 
	C113.013237,426.762451 104.935555,422.124756 96.653900,417.883667 
	C92.663025,415.839874 90.914406,413.235992 90.920517,408.511200 
	C91.050537,308.051605 90.984970,207.591812 91.122421,107.132271 
	C91.129051,102.287903 89.700783,99.603668 85.284355,97.487045 
	C77.351242,93.685013 69.741180,89.206314 62.028088,84.952408 
	C61.368279,84.588509 60.947369,83.791420 60.479168,82.836472 
	C70.667137,87.851807 80.836174,93.145554 90.858704,98.703499 
	C92.102608,99.393295 92.925064,101.400314 93.299500,102.952179 
	C93.717209,104.683334 93.402580,106.591766 93.402596,108.423042 
	C93.403488,207.977936 93.432755,307.532837 93.316154,407.087616 
	C93.310547,411.874420 94.290932,414.739075 99.011040,417.140289 
	C115.008057,425.278320 130.663834,434.087128 146.713669,443.100281 
	C146.977341,443.560883 146.953796,444.047913 146.953796,444.047913 
z"/>
<path fill="#1B3947" opacity="1.000000" stroke="none" 
	d="
M349.331177,499.920013 
	C351.959259,505.464722 357.151947,503.788239 361.956848,503.807922 
	C357.948425,507.834503 355.653748,513.104919 349.354645,513.155884 
	C340.869049,513.224426 336.172241,509.048706 335.997406,500.548126 
	C335.829742,492.394287 335.982819,484.233856 335.994019,476.076324 
	C335.996246,474.454346 335.994354,472.832367 335.994354,471.156464 
	C333.293304,470.947205 331.070251,470.774963 328.244476,470.556030 
	C328.939850,469.351746 329.179352,468.302368 329.691742,468.145752 
	C336.313690,466.121399 336.498383,461.026886 336.025391,455.463867 
	C335.814941,452.988861 335.989868,450.481140 335.989868,447.518646 
	C340.250610,445.793396 344.768707,443.963928 350.262695,441.739319 
	C349.911743,449.403076 349.592163,456.381714 349.259918,463.636475 
	C353.275787,463.636475 356.885986,463.636475 361.227539,463.636475 
	C361.067841,465.820404 360.907532,468.013214 360.689880,470.989807 
	C356.985718,470.989807 353.561005,470.989807 349.340820,471.257599 
	C348.401672,480.515076 348.239288,489.504608 348.167114,498.494873 
	C348.163300,498.966766 348.925537,499.444824 349.331177,499.920013 
z"/>
<path fill="#312A63" opacity="1.000000" stroke="none" 
	d="
M37.037422,454.064758 
	C36.544983,452.154724 35.623638,450.245087 35.621899,448.334595 
	C35.550938,370.397186 35.562809,292.459717 35.564144,214.522263 
	C35.564930,168.725677 35.565670,122.929085 35.566429,77.132500 
	C35.566471,74.662399 35.566433,72.192307 35.566433,69.123558 
	C37.395824,69.929527 38.672798,70.492119 40.063148,71.430359 
	C40.176525,71.806000 39.927807,72.074791 39.636471,72.058937 
	C38.887482,72.349892 38.429825,72.656708 37.972168,72.963516 
	C37.972168,72.963516 38.000374,72.988922 37.690933,73.281998 
	C37.257080,74.721634 37.023758,75.868187 37.023697,77.014763 
	C37.016975,202.698090 37.027695,328.381439 37.037422,454.064758 
z"/>
<path fill="#223F4C" opacity="1.000000" stroke="none" 
	d="
M302.247345,471.026611 
	C300.402466,470.019165 298.544525,469.034729 296.718323,467.994507 
	C295.825531,467.485901 294.991882,466.873535 294.131439,466.308136 
	C294.730621,465.491272 295.193268,464.134430 295.950623,463.942841 
	C302.063446,462.396729 308.223999,461.032501 314.400360,459.760010 
	C314.809814,459.675629 315.467987,460.798492 315.506561,461.811829 
	C314.669312,462.959656 314.048767,463.654022 314.045319,464.351471 
	C313.983246,476.875519 313.955750,489.400330 314.067169,501.923645 
	C314.076263,502.944611 315.143494,503.956177 315.719055,504.972107 
	C317.457367,505.947723 319.235657,506.859772 320.920288,507.920654 
	C322.094299,508.660004 323.139862,509.603363 324.242828,510.455597 
	C323.945374,510.838348 323.647888,511.221130 323.350433,511.603882 
	C313.752228,511.603882 304.154022,511.603882 294.555786,511.603882 
	C294.271759,511.197357 293.987701,510.790833 293.703674,510.384308 
	C294.731964,509.558533 295.672333,508.573700 296.809570,507.945007 
	C298.438446,507.044556 300.211060,506.404205 302.475037,505.186890 
	C303.341858,504.187469 303.926331,503.655731 303.929932,503.120117 
	C303.995819,493.261353 304.035034,483.401642 303.927002,473.543793 
	C303.917755,472.698730 302.832672,471.865387 302.247345,471.026611 
z"/>
<path fill="#759897" opacity="1.000000" stroke="none" 
	d="
M467.123749,101.870544 
	C467.419006,103.602440 467.972168,105.334259 467.972687,107.066238 
	C468.010925,231.596466 468.016022,356.126678 467.893341,480.656799 
	C467.891632,482.395386 470.012512,486.121246 465.398804,485.407471 
	C466.012207,482.703918 466.933014,480.419952 466.934296,478.135437 
	C467.003662,354.544373 466.995178,230.953293 467.001068,107.362206 
	C467.001160,105.531654 467.081085,103.701096 467.123749,101.870544 
z"/>
<path fill="#15807A" opacity="1.000000" stroke="none" 
	d="
M467.113342,101.882339 
	C467.081085,103.701096 467.001160,105.531654 467.001068,107.362206 
	C466.995178,230.953293 467.003662,354.544373 466.934296,478.135437 
	C466.933014,480.419952 466.012207,482.703918 465.102722,485.120300 
	C464.188324,485.015381 463.691620,484.778351 463.081421,484.285950 
	C463.968781,483.043823 465.194153,482.190552 465.888977,481.021851 
	C466.328796,480.282104 465.980774,479.072113 465.980774,478.072998 
	C465.981323,354.681671 465.981995,231.290375 465.975250,107.899055 
	C465.975159,106.236221 465.880615,104.573395 466.102356,102.391830 
	C466.621918,101.872826 466.869232,101.872566 467.116516,101.872299 
	C467.116516,101.872299 467.102936,101.894142 467.113342,101.882339 
z"/>
<path fill="#100564" opacity="1.000000" stroke="none" 
	d="
M37.236553,454.285400 
	C37.027695,328.381439 37.016975,202.698090 37.023697,77.014763 
	C37.023758,75.868187 37.257080,74.721634 37.674274,73.276436 
	C37.978321,196.498260 37.989273,320.018738 38.002548,443.539185 
	C38.002907,446.868469 38.028557,450.197784 38.035286,454.040710 
	C37.830666,454.538239 37.633179,454.522125 37.236553,454.285400 
z"/>
<path fill="#17726F" opacity="1.000000" stroke="none" 
	d="
M409.067627,141.412292 
	C409.377228,141.007965 409.821228,140.992828 410.619446,141.459656 
	C410.982819,244.232300 410.986023,346.522980 411.044312,448.813629 
	C411.045471,450.854126 411.690704,452.894226 412.035492,454.934509 
	C412.035492,454.934509 412.038849,454.988373 412.075165,455.296844 
	C412.120117,456.033752 412.128723,456.462158 412.137360,456.890594 
	C411.282043,455.500000 409.988434,454.200043 409.677551,452.696869 
	C409.247559,450.617981 409.551544,448.386017 409.551514,446.219604 
	C409.550507,347.230072 409.553101,248.240555 409.535919,149.251022 
	C409.535492,146.767838 409.318207,144.284683 409.067627,141.412292 
z"/>
<path fill="#1E3B48" opacity="1.000000" stroke="none" 
	d="
M302.705383,436.607574 
	C305.990692,433.573700 309.650360,432.515930 312.812897,435.226776 
	C314.804413,436.933899 316.844421,440.323578 316.482086,442.575409 
	C316.074677,445.107452 313.362610,448.406403 310.961731,449.155273 
	C308.630341,449.882507 304.791504,448.536102 302.747314,446.781036 
	C299.648865,444.120911 300.044189,440.284851 302.705383,436.607574 
z"/>
<path fill="#2A2163" opacity="1.000000" stroke="none" 
	d="
M147.032013,444.456055 
	C146.953796,444.047913 146.977341,443.560883 146.977310,443.317108 
	C150.087784,443.623352 150.022903,445.894989 150.024872,448.341370 
	C150.037918,464.601593 150.130661,480.861725 150.109131,497.590179 
	C149.355316,496.422302 148.130127,494.792145 148.112366,493.148987 
	C147.961258,479.170013 148.068222,465.188446 147.991135,451.208252 
	C147.979462,449.092010 147.417603,446.978790 147.032013,444.456055 
z"/>
<path fill="#312A63" opacity="1.000000" stroke="none" 
	d="
M56.828789,464.877625 
	C59.638065,465.725403 62.841492,466.478241 65.661049,467.961060 
	C78.441589,474.682312 91.120796,481.596741 103.808479,488.493134 
	C104.612579,488.930237 105.179031,489.804535 105.871048,490.831787 
	C92.487823,484.102295 79.083832,477.027313 65.695831,469.922180 
	C62.783241,468.376434 59.927902,466.722778 56.828789,464.877625 
z"/>
<path fill="#0E2A36" opacity="1.000000" stroke="none" 
	d="
M315.773407,504.508118 
	C315.143494,503.956177 314.076263,502.944611 314.067169,501.923645 
	C313.955750,489.400330 313.983246,476.875519 314.045319,464.351471 
	C314.048767,463.654022 314.669312,462.959656 315.376129,462.145386 
	C315.775665,476.032654 315.801697,490.038391 315.773407,504.508118 
z"/>
<path fill="#142C39" opacity="1.000000" stroke="none" 
	d="
M248.625076,496.514832 
	C248.092072,495.432404 247.090668,493.890106 247.065079,492.331726 
	C246.914963,483.188080 246.912155,474.039429 247.053101,464.895477 
	C247.086288,462.742706 246.724731,461.475281 244.174408,461.214172 
	C245.322357,460.472931 246.662827,459.989502 248.607513,459.288177 
	C248.607513,471.983734 248.607513,484.015625 248.625076,496.514832 
z"/>
<path fill="#0E2A36" opacity="1.000000" stroke="none" 
	d="
M302.214294,471.492432 
	C302.832672,471.865387 303.917755,472.698730 303.927002,473.543793 
	C304.035034,483.401642 303.995819,493.261353 303.929932,503.120117 
	C303.926331,503.655731 303.341858,504.187469 302.658386,504.845520 
	C302.253113,493.966095 302.217163,482.962158 302.214294,471.492432 
z"/>
<path fill="#29A7A2" opacity="1.000000" stroke="none" 
	d="
M358.047302,43.647068 
	C354.480499,43.741188 354.996185,46.385201 354.997711,48.682476 
	C355.007843,63.777802 355.028290,78.873138 355.015350,93.968445 
	C355.013794,95.781319 354.831421,97.594055 354.413544,99.282501 
	C354.024170,89.765839 353.954163,80.373528 353.914062,70.514969 
	C353.954620,62.903397 353.886108,55.756554 354.023041,48.613651 
	C354.065399,46.404072 354.666748,44.205204 355.012146,42.001434 
	C355.976685,42.452496 356.941254,42.903557 358.047302,43.647068 
z"/>
<path fill="#122936" opacity="1.000000" stroke="none" 
	d="
M280.543396,505.559387 
	C280.045624,504.405426 279.076202,502.842712 279.061829,501.271210 
	C278.938812,487.811096 278.988770,474.349396 278.990540,460.415771 
	C279.476624,461.099915 280.369171,462.252899 280.379242,463.413574 
	C280.500183,477.323883 280.490234,491.235352 280.543396,505.559387 
z"/>
<path fill="#1EB5B0" opacity="1.000000" stroke="none" 
	d="
M412.486359,456.980652 
	C412.128723,456.462158 412.120117,456.033752 412.098755,455.283752 
	C419.687225,459.107513 427.288452,463.252838 434.908752,467.753479 
	C427.563690,464.429443 420.199524,460.750061 412.486359,456.980652 
z"/>
<path fill="#2D706C" opacity="1.000000" stroke="none" 
	d="
M353.884155,70.981216 
	C353.954163,80.373528 354.024170,89.765839 354.178589,99.631638 
	C354.329803,103.197182 354.396606,106.289253 354.825806,109.908585 
	C355.399048,110.719269 355.680511,110.875793 356.032562,110.905434 
	C356.055084,111.104378 356.077606,111.303314 356.014343,111.790138 
	C354.933197,110.525108 353.111633,108.991859 353.074127,107.416130 
	C352.792633,95.589943 352.862915,83.755386 353.136871,71.457443 
	C353.450592,70.991440 353.884155,70.981216 353.884155,70.981216 
z"/>
<path fill="#337F7C" opacity="1.000000" stroke="none" 
	d="
M422.631104,77.715073 
	C415.871124,74.620766 409.029816,71.202972 402.131836,67.453712 
	C408.900055,70.545357 415.724945,73.968468 422.631104,77.715073 
z"/>
<path fill="#291F66" opacity="1.000000" stroke="none" 
	d="
M60.091194,82.167953 
	C55.867290,80.712791 51.333775,79.203255 46.990654,77.266708 
	C45.174088,76.456718 43.761753,74.740135 42.203526,73.073524 
	C48.113766,75.787933 53.986111,78.864555 60.091194,82.167953 
z"/>
<path fill="#0E6966" opacity="1.000000" stroke="none" 
	d="
M353.914062,70.514969 
	C353.884155,70.981216 353.450592,70.991440 353.233826,70.997498 
	C352.906830,61.652229 352.760590,52.300838 352.777130,42.949738 
	C352.778107,42.397396 354.088684,41.847370 354.901001,41.648849 
	C354.666748,44.205204 354.065399,46.404072 354.023041,48.613651 
	C353.886108,55.756554 353.954620,62.903397 353.914062,70.514969 
z"/>
<path fill="#312A63" opacity="1.000000" stroke="none" 
	d="
M128.100037,503.345642 
	C132.893631,505.524811 137.880951,507.986938 142.888168,510.805054 
	C138.036636,508.650238 133.165207,506.139374 128.100037,503.345642 
z"/>
<path fill="#0A2530" opacity="1.000000" stroke="none" 
	d="
M349.335876,499.456360 
	C348.925537,499.444824 348.163300,498.966766 348.167114,498.494873 
	C348.239288,489.504608 348.401672,480.515076 348.898071,471.292603 
	C349.280731,480.370789 349.310669,489.681732 349.335876,499.456360 
z"/>
<path fill="#1EB5B0" opacity="1.000000" stroke="none" 
	d="
M435.049438,468.405273 
	C439.896301,470.527588 444.887634,472.974701 449.890015,475.779114 
	C444.998657,473.667603 440.096313,471.198822 435.049438,468.405273 
z"/>
<path fill="#312A63" opacity="1.000000" stroke="none" 
	d="
M43.034889,457.410645 
	C47.415661,459.357330 51.983696,461.592102 56.473328,464.180237 
	C52.003998,462.255310 47.613075,459.977020 43.034889,457.410645 
z"/>
<path fill="#1EB5B0" opacity="1.000000" stroke="none" 
	d="
M450.029175,476.429962 
	C453.893127,478.135223 457.906891,480.162537 461.752319,482.575378 
	C461.583984,482.960907 461.159821,483.010284 461.159821,483.010254 
	C457.499542,480.924194 453.839264,478.838135 450.029175,476.429962 
z"/>
<path fill="#312A63" opacity="1.000000" stroke="none" 
	d="
M117.008087,497.437897 
	C120.519142,498.891479 124.204269,500.641510 127.923332,502.743805 
	C124.365570,501.308838 120.773857,499.521576 117.008087,497.437897 
z"/>
<path fill="#312A63" opacity="1.000000" stroke="none" 
	d="
M106.018723,491.431152 
	C109.509712,492.919556 113.192879,494.692596 116.880333,496.824402 
	C113.326714,495.360748 109.768806,493.538239 106.018723,491.431152 
z"/>
<path fill="#312A63" opacity="1.000000" stroke="none" 
	d="
M144.971161,512.461182 
	C146.274887,512.116028 147.743408,512.057007 149.651962,511.971313 
	C149.580093,515.096619 149.580093,515.096619 144.971161,512.461182 
z"/>
<path fill="#312A63" opacity="1.000000" stroke="none" 
	d="
M38.392433,454.934052 
	C39.727150,455.250641 41.285778,455.819855 42.875515,456.776672 
	C41.476532,456.505096 40.046440,455.845886 38.392433,454.934052 
z"/>
<path fill="#2D706C" opacity="1.000000" stroke="none" 
	d="
M355.949158,112.358749 
	C356.555389,112.222084 357.181976,112.385674 357.987335,112.839767 
	C357.433899,112.973183 356.701691,112.816086 355.949158,112.358749 
z"/>
<path fill="#759897" opacity="1.000000" stroke="none" 
	d="
M466.953064,101.530907 
	C466.869232,101.872566 466.621918,101.872826 466.004822,101.932312 
	C465.160339,101.772224 464.685608,101.552910 464.046753,101.115639 
	C464.851593,100.994957 465.820618,101.092239 466.953064,101.530907 
z"/>
<path fill="#17726F" opacity="1.000000" stroke="none" 
	d="
M407.148682,140.199051 
	C407.738861,140.068573 408.291260,140.278305 408.922729,140.779297 
	C408.371490,140.893448 407.741241,140.716354 407.148682,140.199051 
z"/>
<path fill="#759897" opacity="1.000000" stroke="none" 
	d="
M461.224304,483.299286 
	C461.159821,483.010284 461.583984,482.960907 461.793854,482.921356 
	C462.263031,483.127655 462.522339,483.373505 462.845001,483.880310 
	C462.368500,483.956940 461.828644,483.772614 461.224304,483.299286 
z"/>
<path fill="#312A63" opacity="1.000000" stroke="none" 
	d="
M42.124199,72.455048 
	C41.770229,72.802139 41.287651,72.893311 40.409264,72.758476 
	C40.013454,72.532463 39.927807,72.074791 39.927807,72.074791 
	C39.927807,72.074791 40.176525,71.806000 40.299805,71.670357 
	C40.947250,71.756180 41.471416,71.977654 42.124199,72.455048 
z"/>
<path fill="#312A63" opacity="1.000000" stroke="none" 
	d="
M143.002502,511.388916 
	C143.452728,511.285553 144.056442,511.453094 144.781143,511.928253 
	C144.320084,512.043823 143.738037,511.851868 143.002502,511.388916 
z"/>
<path fill="#1EB5B0" opacity="1.000000" stroke="none" 
	d="
M412.027466,454.471619 
	C411.690704,452.894226 411.045471,450.854126 411.044312,448.813629 
	C410.986023,346.522980 410.982819,244.232300 410.953003,141.473450 
	C411.287842,143.051666 411.953217,145.097885 411.954376,147.144470 
	C412.011871,249.432541 412.012543,351.720642 412.027466,454.471619 
z"/>
<path fill="#29A7A2" opacity="1.000000" stroke="none" 
	d="
M355.913086,110.697792 
	C355.680511,110.875793 355.399048,110.719269 355.092651,110.206787 
	C355.318756,110.061348 355.584229,110.232162 355.913086,110.697792 
z"/>
<path fill="#100564" opacity="1.000000" stroke="none" 
	d="
M39.636471,72.058937 
	C39.927807,72.074791 40.013454,72.532463 40.039635,72.763840 
	C39.600277,72.993881 39.134743,72.992538 38.320686,72.977356 
	C38.429825,72.656708 38.887482,72.349892 39.636471,72.058937 
z"/>
<path fill="#90CAC4" opacity="1.000000" stroke="none" 
	d="
M320.596558,375.653564 
	C295.540100,392.839233 268.173645,400.085632 238.413925,396.277405 
	C198.872711,391.217560 168.421799,371.416412 149.114822,336.440491 
	C128.146240,298.454468 127.859482,259.332336 149.072235,221.521164 
	C171.063187,182.322891 205.717148,161.944077 250.743500,160.822037 
	C286.362213,159.934448 316.402863,173.638214 340.345795,199.759796 
	C357.565155,218.546005 367.747192,241.039093 369.952057,266.574615 
	C373.863800,311.878784 357.007385,348.061401 320.596558,375.653564 
M295.368591,288.231354 
	C295.375397,287.171051 295.382202,286.110748 295.706940,285.048798 
	C295.706940,285.048798 296.021698,285.004456 296.437744,284.792664 
	C296.699890,284.604584 296.882416,284.357635 297.630676,283.812744 
	C298.082916,283.860352 298.535156,283.907990 299.190948,284.298950 
	C299.444336,284.134521 299.697723,283.970093 300.237915,282.984253 
	C300.116638,282.535980 299.999542,281.696838 299.873505,281.695496 
	C293.834290,281.631256 287.794281,281.639404 281.490417,281.639404 
	C283.619781,283.725494 285.270050,285.342194 286.796661,287.796204 
	C286.857269,289.201172 286.917877,290.606171 286.800964,292.933289 
	C286.788849,295.403992 286.846954,297.877411 286.751251,300.344879 
	C286.484619,307.216522 286.154175,314.085663 285.077545,320.987610 
	C283.807526,321.242310 282.537476,321.497040 280.284454,321.948944 
	C285.371094,324.553101 297.951172,324.292938 301.312317,321.521637 
	C299.137421,321.246429 297.616180,321.053955 296.021271,320.411011 
	C296.021271,320.411011 296.078857,319.958191 296.643341,319.356018 
	C296.758545,309.997040 296.908142,300.638123 296.924103,291.278961 
	C296.925385,290.523834 296.008636,289.767151 295.368591,288.231354 
M303.807678,272.600342 
	C304.848602,272.537323 305.889526,272.474335 307.697510,272.657532 
	C309.098053,272.558990 310.498596,272.460449 311.899109,272.361908 
	C311.877686,272.073608 311.856232,271.785278 311.834808,271.496979 
	C310.552856,270.999725 309.270935,270.502441 307.980896,269.253540 
	C307.843201,268.515503 307.705536,267.777435 307.767639,266.124084 
	C307.733459,261.738373 307.699280,257.352661 308.065857,252.289871 
	C310.368683,251.471130 312.986511,249.601517 314.874207,250.167404 
	C316.373993,250.617004 317.672211,253.990265 317.846558,256.162842 
	C318.269165,261.429718 317.983917,266.753357 317.983917,272.060974 
	C321.996918,272.060974 325.776611,272.060974 328.287262,272.060974 
	C327.355255,269.058899 326.217987,266.435669 325.785095,263.700958 
	C325.373718,261.102112 325.759399,258.385010 325.686310,255.722885 
	C325.567291,251.386658 325.777008,246.783127 320.964355,244.519913 
	C316.172943,242.266678 312.291534,244.116898 308.940399,247.703491 
	C308.819183,247.833237 308.367645,247.654358 308.054169,247.617432 
	C307.771057,246.203568 307.489807,244.798950 307.160980,243.156799 
	C303.109070,244.074219 299.346497,244.926132 295.139740,245.878616 
	C297.104187,247.512177 299.649017,248.638489 299.669342,249.808594 
	C299.786285,256.550201 299.306000,263.302155 298.261536,270.034607 
	C297.239929,270.342438 296.218323,270.650238 295.196716,270.958069 
	C295.270721,271.442444 295.344727,271.926849 295.418701,272.411255 
	C297.960175,272.411255 300.501617,272.411255 303.807678,272.600342 
M224.222733,321.023376 
	C222.955383,321.253052 221.688049,321.482758 220.420700,321.712463 
	C220.471451,322.191040 220.522202,322.669586 220.572968,323.148163 
	C226.946625,323.148163 233.320282,323.148163 239.693939,323.148163 
	C239.762085,322.705597 239.830231,322.263062 239.898376,321.820496 
	C238.633331,321.495453 237.368301,321.170380 235.774292,320.219147 
	C230.745163,308.472229 225.783371,296.695435 220.605301,285.014526 
	C219.925217,283.480377 218.137909,282.437012 216.863388,281.166351 
	C215.776443,282.416626 214.281464,283.495026 213.670410,284.945770 
	C210.319809,292.900665 207.346375,301.016235 203.919479,308.936462 
	C201.746002,313.959778 201.220901,320.136963 195.228226,323.113770 
	C199.760147,323.113770 204.292084,323.113770 208.824005,323.113770 
	C208.883789,322.752441 208.943573,322.391083 209.003357,322.029755 
	C207.433090,321.479584 205.862808,320.929413 204.319641,320.388733 
	C205.317978,311.015747 205.919250,310.616974 218.419342,310.905304 
	C222.687302,311.003723 224.712341,314.110809 224.222733,321.023376 
M260.836334,303.210449 
	C265.834869,304.916656 270.016541,303.093323 273.609741,299.851166 
	C277.263428,296.554413 278.084076,292.196289 276.869293,287.546356 
	C275.717621,283.137970 272.121582,281.626495 268.127411,281.498596 
	C260.356323,281.249725 252.572449,281.387726 244.794128,281.424866 
	C244.506470,281.426239 244.221786,282.050568 243.205002,283.237732 
	C250.875153,282.873962 248.826538,288.018677 248.917160,291.829437 
	C249.070938,298.295380 249.062759,304.769958 248.917389,311.236267 
	C248.844101,314.496796 248.320419,317.747223 247.175446,321.022003 
	C246.051361,321.369446 244.927292,321.716888 243.803223,322.064362 
	C243.907974,322.414246 244.012711,322.764160 244.117462,323.114044 
	C250.367020,323.114044 256.616577,323.114044 262.866119,323.114044 
	C262.920441,322.630890 262.974792,322.147736 263.029114,321.664581 
	C261.405792,321.365540 259.782501,321.066467 257.995331,319.872833 
	C258.001465,314.247864 258.007599,308.622925 258.715088,302.999847 
	C259.182800,302.987854 259.650543,302.975861 260.836334,303.210449 
M176.881973,326.471985 
	C179.366257,324.267517 177.706802,323.817596 175.636490,323.184753 
	C168.530136,321.012573 167.127289,319.079010 167.105774,311.822479 
	C167.088501,305.996338 166.993439,300.167664 167.127106,294.344574 
	C167.315048,286.157135 166.614105,278.583374 156.065384,276.342133 
	C165.489517,274.044708 167.398407,267.679352 167.143311,259.751862 
	C166.939972,253.432846 167.079575,247.101929 167.110504,240.776520 
	C167.142670,234.195786 168.898422,231.952911 175.210876,230.009766 
	C176.314987,229.669876 177.287415,228.902222 178.320663,228.332138 
	C178.177856,227.832077 178.035049,227.332001 177.892242,226.831940 
	C175.815720,226.831940 173.735794,226.753876 171.663254,226.844757 
	C159.290039,227.387405 155.024200,231.825760 154.976929,244.175674 
	C154.955276,249.835312 154.973007,255.495071 154.971756,261.154785 
	C154.969376,271.975372 154.733719,272.284760 144.483688,275.231201 
	C144.273895,275.291504 144.184570,275.770966 143.729935,276.657898 
	C144.592438,277.097168 145.396683,277.724823 146.297379,277.930817 
	C153.248276,279.520660 154.876755,281.399719 154.952332,288.447052 
	C155.020172,294.771912 154.971939,301.097992 154.972534,307.423553 
	C154.973892,321.746521 158.762909,325.758240 173.065201,326.550507 
	C174.060730,326.605652 175.062241,326.553009 176.881973,326.471985 
M349.960815,297.510712 
	C349.970886,294.010956 349.890778,290.508057 350.011810,287.012146 
	C350.201538,281.532471 352.246185,279.246490 357.539734,278.051819 
	C358.809784,277.765167 359.984100,277.054535 362.178314,276.125824 
	C349.967010,271.869232 350.007019,271.869019 349.945221,259.719818 
	C349.909637,252.727341 350.271973,245.671295 349.466309,238.759125 
	C348.332977,229.035568 335.871979,223.410049 325.993500,228.552704 
	C327.669495,229.220520 328.698456,229.714157 329.777100,230.046494 
	C336.031158,231.973312 337.773346,234.275528 337.815002,240.907913 
	C337.848511,246.240829 337.903656,251.575577 337.806885,256.906921 
	C337.651978,265.444153 337.411957,273.961945 349.616455,276.123383 
	C339.746124,279.909607 337.959839,282.359650 337.844086,291.446686 
	C337.750702,298.778564 337.766449,306.113068 337.837494,313.445404 
	C337.886841,318.541229 335.303802,321.484680 330.621033,322.936829 
	C329.242279,323.364410 327.913788,323.954193 326.562256,324.469635 
	C326.658447,324.989746 326.754639,325.509888 326.850830,326.029999 
	C330.131927,326.029999 333.438843,326.294952 336.689087,325.978333 
	C345.085388,325.160370 348.986389,321.364502 349.739349,312.990936 
	C350.170624,308.194427 349.909912,303.335663 349.960815,297.510712 
M185.915070,232.224792 
	C182.930405,236.063217 178.857712,239.482910 177.186096,243.826645 
	C173.634048,253.056671 176.725647,263.880280 183.082062,268.955627 
	C190.351929,274.760315 202.813278,275.375153 211.339172,270.349854 
	C219.455017,265.566223 223.215469,255.623657 221.074860,244.608826 
	C219.439651,236.194626 213.225494,230.193497 203.569763,229.595505 
	C197.978882,229.249268 192.254715,231.055267 185.915070,232.224792 
M230.967911,264.504944 
	C230.960449,269.167786 231.012009,273.831665 230.926895,278.493103 
	C230.858627,282.233917 232.119476,286.687561 226.511246,288.138306 
	C232.186188,288.138306 237.861130,288.138306 243.536057,288.138306 
	C243.565445,287.776093 243.594833,287.413910 243.624222,287.051697 
	C242.125153,286.590973 240.626099,286.130280 238.965851,285.620026 
	C238.965851,281.463196 238.965851,277.389557 238.965851,272.928375 
	C246.826294,275.759186 251.267166,270.510223 255.626068,266.143433 
	C260.583221,261.177246 260.603363,251.306870 256.400391,246.826370 
	C252.397400,242.559052 246.607819,242.844788 239.989685,247.603836 
	C239.804459,247.737045 239.404037,247.570953 239.094772,247.543640 
	C238.912003,246.128311 238.731140,244.727768 238.526947,243.146515 
	C234.281937,244.108719 230.378906,244.993408 226.475876,245.878098 
	C231.137268,247.554306 231.200272,250.884430 230.992691,254.517212 
	C230.821991,257.504791 230.964294,260.510254 230.967911,264.504944 
M280.341461,273.809967 
	C288.848511,272.039337 288.848511,272.039337 289.663910,268.196381 
	C277.570404,269.708405 273.012512,267.139679 273.520386,258.794281 
	C278.116974,258.548584 282.746796,258.268921 287.379974,258.065338 
	C290.212402,257.940857 291.515350,256.926971 291.189331,253.733383 
	C290.559570,247.565369 287.177429,243.679901 281.303345,243.063324 
	C275.257812,242.428726 267.630676,246.965759 266.158508,252.291901 
	C263.436829,262.138855 266.206390,273.214172 280.341461,273.809967 
z"/>
<path fill="#F4F8F9" opacity="1.000000" stroke="none" 
	d="
M386.233063,481.877869 
	C383.987152,481.745026 382.209564,481.622559 380.520630,481.506226 
	C379.657074,471.569916 383.195160,466.078918 390.051880,466.140045 
	C396.632721,466.198730 399.685089,471.332581 398.811218,481.888214 
	C394.836792,481.888214 390.769104,481.888214 386.233063,481.877869 
z"/>
<path fill="#173947" opacity="1.000000" stroke="none" 
	d="
M176.471466,326.511230 
	C175.062241,326.553009 174.060730,326.605652 173.065201,326.550507 
	C158.762909,325.758240 154.973892,321.746521 154.972534,307.423553 
	C154.971939,301.097992 155.020172,294.771912 154.952332,288.447052 
	C154.876755,281.399719 153.248276,279.520660 146.297379,277.930817 
	C145.396683,277.724823 144.592438,277.097168 143.729935,276.657898 
	C144.184570,275.770966 144.273895,275.291504 144.483688,275.231201 
	C154.733719,272.284760 154.969376,271.975372 154.971756,261.154785 
	C154.973007,255.495071 154.955276,249.835312 154.976929,244.175674 
	C155.024200,231.825760 159.290039,227.387405 171.663254,226.844757 
	C173.735794,226.753876 175.815720,226.831940 177.892242,226.831940 
	C178.035049,227.332001 178.177856,227.832077 178.320663,228.332138 
	C177.287415,228.902222 176.314987,229.669876 175.210876,230.009766 
	C168.898422,231.952911 167.142670,234.195786 167.110504,240.776520 
	C167.079575,247.101929 166.939972,253.432846 167.143311,259.751862 
	C167.398407,267.679352 165.489517,274.044708 156.065384,276.342133 
	C166.614105,278.583374 167.315048,286.157135 167.127106,294.344574 
	C166.993439,300.167664 167.088501,305.996338 167.105774,311.822479 
	C167.127289,319.079010 168.530136,321.012573 175.636490,323.184753 
	C177.706802,323.817596 179.366257,324.267517 176.471466,326.511230 
z"/>
<path fill="#173947" opacity="1.000000" stroke="none" 
	d="
M349.960815,298.007812 
	C349.909912,303.335663 350.170624,308.194427 349.739349,312.990936 
	C348.986389,321.364502 345.085388,325.160370 336.689087,325.978333 
	C333.438843,326.294952 330.131927,326.029999 326.850830,326.029999 
	C326.754639,325.509888 326.658447,324.989746 326.562256,324.469635 
	C327.913788,323.954193 329.242279,323.364410 330.621033,322.936829 
	C335.303802,321.484680 337.886841,318.541229 337.837494,313.445404 
	C337.766449,306.113068 337.750702,298.778564 337.844086,291.446686 
	C337.959839,282.359650 339.746124,279.909607 349.616455,276.123383 
	C337.411957,273.961945 337.651978,265.444153 337.806885,256.906921 
	C337.903656,251.575577 337.848511,246.240829 337.815002,240.907913 
	C337.773346,234.275528 336.031158,231.973312 329.777100,230.046494 
	C328.698456,229.714157 327.669495,229.220520 325.993500,228.552704 
	C335.871979,223.410049 348.332977,229.035568 349.466309,238.759125 
	C350.271973,245.671295 349.909637,252.727341 349.945221,259.719818 
	C350.007019,271.869019 349.967010,271.869232 362.178314,276.125824 
	C359.984100,277.054535 358.809784,277.765167 357.539734,278.051819 
	C352.246185,279.246490 350.201538,281.532471 350.011810,287.012146 
	C349.890778,290.508057 349.970886,294.010956 349.960815,298.007812 
z"/>
<path fill="#193C49" opacity="1.000000" stroke="none" 
	d="
M186.252808,232.058746 
	C192.254715,231.055267 197.978882,229.249268 203.569763,229.595505 
	C213.225494,230.193497 219.439651,236.194626 221.074860,244.608826 
	C223.215469,255.623657 219.455017,265.566223 211.339172,270.349854 
	C202.813278,275.375153 190.351929,274.760315 183.082062,268.955627 
	C176.725647,263.880280 173.634048,253.056671 177.186096,243.826645 
	C178.857712,239.482910 182.930405,236.063217 186.252808,232.058746 
M185.111115,250.506805 
	C186.029007,254.852203 186.397659,259.414398 188.005432,263.487488 
	C189.963913,268.449005 194.349686,270.301025 199.732956,270.187042 
	C204.842072,270.078827 208.482544,267.803040 210.265411,263.241364 
	C213.278290,255.532578 213.404007,247.614243 210.157425,239.916061 
	C207.817474,234.367599 203.912399,232.369308 197.278793,232.684448 
	C191.706253,232.949203 188.080399,235.632904 186.405685,241.285782 
	C185.614883,243.955048 185.520432,246.830597 185.111115,250.506805 
z"/>
<path fill="#1B3E4A" opacity="1.000000" stroke="none" 
	d="
M230.967896,264.006378 
	C230.964294,260.510254 230.821991,257.504791 230.992691,254.517212 
	C231.200272,250.884430 231.137268,247.554306 226.475876,245.878098 
	C230.378906,244.993408 234.281937,244.108719 238.526947,243.146515 
	C238.731140,244.727768 238.912003,246.128311 239.094772,247.543640 
	C239.404037,247.570953 239.804459,247.737045 239.989685,247.603836 
	C246.607819,242.844788 252.397400,242.559052 256.400391,246.826370 
	C260.603363,251.306870 260.583221,261.177246 255.626068,266.143433 
	C251.267166,270.510223 246.826294,275.759186 238.965851,272.928375 
	C238.965851,277.389557 238.965851,281.463196 238.965851,285.620026 
	C240.626099,286.130280 242.125153,286.590973 243.624222,287.051697 
	C243.594833,287.413910 243.565445,287.776093 243.536057,288.138306 
	C237.861130,288.138306 232.186188,288.138306 226.511246,288.138306 
	C232.119476,286.687561 230.858627,282.233917 230.926895,278.493103 
	C231.012009,273.831665 230.960449,269.167786 230.967896,264.006378 
M238.649628,260.444153 
	C238.650192,261.600433 238.748138,262.766602 238.632278,263.911102 
	C238.336395,266.833984 239.510818,269.191376 242.390198,269.234100 
	C244.716507,269.268646 248.829102,268.241241 249.088989,267.028900 
	C250.077240,262.418854 250.422882,257.445923 249.677032,252.823517 
	C249.446991,251.397903 244.999588,249.880737 242.438293,249.798080 
	C239.213257,249.694016 238.377609,252.544113 238.634811,255.537598 
	C238.747528,256.849243 238.650833,258.178894 238.649628,260.444153 
z"/>
<path fill="#1A3D4A" opacity="1.000000" stroke="none" 
	d="
M248.000366,321.002197 
	C248.320419,317.747223 248.844101,314.496796 248.917389,311.236267 
	C249.062759,304.769958 249.070938,298.295380 248.917160,291.829437 
	C248.826538,288.018677 250.875153,282.873962 243.205002,283.237732 
	C244.221786,282.050568 244.506470,281.426239 244.794128,281.424866 
	C252.572449,281.387726 260.356323,281.249725 268.127411,281.498596 
	C272.121582,281.626495 275.717621,283.137970 276.869293,287.546356 
	C278.084076,292.196289 277.263428,296.554413 273.609741,299.851166 
	C270.016541,303.093323 265.834869,304.916656 260.413422,302.745544 
	C259.906464,301.826355 259.822388,301.372040 260.159119,300.888428 
	C263.910889,301.382996 267.144196,300.506683 267.805176,297.165131 
	C268.435547,293.978607 268.524139,289.825378 266.925995,287.329773 
	C265.650330,285.337677 261.480621,285.198822 257.993835,284.036835 
	C257.993835,290.397522 257.993835,295.198029 257.934753,300.371429 
	C257.921692,301.495544 257.967712,302.246735 258.013733,302.997955 
	C258.007599,308.622925 258.001465,314.247864 257.813171,320.652557 
	C254.420776,321.288940 251.210571,321.145569 248.000366,321.002197 
z"/>
<path fill="#1B3F4B" opacity="1.000000" stroke="none" 
	d="
M224.988846,320.985107 
	C224.712341,314.110809 222.687302,311.003723 218.419342,310.905304 
	C205.919250,310.616974 205.317978,311.015747 204.319641,320.388733 
	C205.862808,320.929413 207.433090,321.479584 209.003357,322.029755 
	C208.943573,322.391083 208.883789,322.752441 208.824005,323.113770 
	C204.292084,323.113770 199.760147,323.113770 195.228226,323.113770 
	C201.220901,320.136963 201.746002,313.959778 203.919479,308.936462 
	C207.346375,301.016235 210.319809,292.900665 213.670410,284.945770 
	C214.281464,283.495026 215.776443,282.416626 216.863403,281.166351 
	C218.137909,282.437012 219.925217,283.480377 220.605301,285.014526 
	C225.783371,296.695435 230.745163,308.472229 235.670029,320.857635 
	C232.040131,321.325775 228.514481,321.155426 224.988846,320.985107 
M210.812454,301.421326 
	C210.162628,303.177002 209.512802,304.932648 208.763626,306.956757 
	C212.939972,306.956757 216.357147,306.956757 220.443100,306.956757 
	C218.491058,302.049103 216.725876,297.611206 214.567062,292.183655 
	C213.079529,295.798370 212.073578,298.242859 210.812454,301.421326 
z"/>
<path fill="#1B3F4B" opacity="1.000000" stroke="none" 
	d="
M299.028137,270.050629 
	C299.306000,263.302155 299.786285,256.550201 299.669342,249.808594 
	C299.649017,248.638489 297.104187,247.512177 295.139740,245.878616 
	C299.346497,244.926132 303.109070,244.074219 307.160980,243.156799 
	C307.489807,244.798950 307.771057,246.203568 308.054169,247.617432 
	C308.367645,247.654358 308.819183,247.833237 308.940399,247.703491 
	C312.291534,244.116898 316.172943,242.266678 320.964355,244.519913 
	C325.777008,246.783127 325.567291,251.386658 325.686310,255.722885 
	C325.759399,258.385010 325.373718,261.102112 325.785095,263.700958 
	C326.217987,266.435669 327.355255,269.058899 328.287262,272.060974 
	C325.776611,272.060974 321.996918,272.060974 317.983917,272.060974 
	C317.983917,266.753357 318.269165,261.429718 317.846558,256.162842 
	C317.672211,253.990265 316.373993,250.617004 314.874207,250.167404 
	C312.986511,249.601517 310.368683,251.471130 307.509918,252.768860 
	C307.158600,257.845032 307.363220,262.442230 307.567841,267.039398 
	C307.705536,267.777435 307.843201,268.515503 307.759583,269.789246 
	C307.335632,271.020416 307.133026,271.715881 306.930450,272.411316 
	C305.889526,272.474335 304.848602,272.537323 303.298828,272.229675 
	C301.536041,271.256226 300.282104,270.653442 299.028137,270.050629 
z"/>
<path fill="#1A3D49" opacity="1.000000" stroke="none" 
	d="
M279.932556,273.813873 
	C266.206390,273.214172 263.436829,262.138855 266.158508,252.291901 
	C267.630676,246.965759 275.257812,242.428726 281.303345,243.063324 
	C287.177429,243.679901 290.559570,247.565369 291.189331,253.733383 
	C291.515350,256.926971 290.212402,257.940857 287.379974,258.065338 
	C282.746796,258.268921 278.116974,258.548584 273.520386,258.794281 
	C273.012512,267.139679 277.570404,269.708405 289.663910,268.196381 
	C288.848511,272.039337 288.848511,272.039337 279.932556,273.813873 
M279.143250,246.551285 
	C273.676208,247.008057 272.643829,248.305344 272.769470,254.740173 
	C276.132629,254.740173 279.491241,254.740173 284.626831,254.740173 
	C282.623962,251.396515 281.241516,249.088593 279.143250,246.551285 
z"/>
<path fill="#1A3C4A" opacity="1.000000" stroke="none" 
	d="
M285.848907,320.955811 
	C286.154175,314.085663 286.484619,307.216522 286.751251,300.344879 
	C286.846954,297.877411 286.788849,295.403992 287.167542,292.243042 
	C287.329529,290.021515 287.124908,288.490204 286.920319,286.958923 
	C285.270050,285.342194 283.619781,283.725494 281.490417,281.639404 
	C287.794281,281.639404 293.834290,281.631256 299.873505,281.695496 
	C299.999542,281.696838 300.116638,282.535980 299.848206,283.397644 
	C299.458466,283.811066 298.987396,283.955597 298.987396,283.955597 
	C298.535156,283.907990 298.082916,283.860352 297.044128,283.957428 
	C296.312286,284.402893 296.166992,284.703674 296.021698,285.004456 
	C296.021698,285.004456 295.706940,285.048798 295.170837,285.262329 
	C294.475433,296.524017 294.300446,307.571991 294.214844,318.620697 
	C294.211456,319.058136 295.059326,319.502197 295.653107,319.928772 
	C295.795654,319.914398 296.078857,319.958191 296.078857,319.958191 
	C296.078857,319.958191 296.021271,320.411011 295.798157,320.953705 
	C292.333008,321.316193 289.090973,321.136017 285.848907,320.955811 
z"/>
<path fill="#9CD3D0" opacity="1.000000" stroke="none" 
	d="
M296.361084,319.657104 
	C296.078857,319.958191 295.795654,319.914398 295.628967,319.462402 
	C295.481018,309.010651 295.499756,299.010925 295.518463,289.011169 
	C296.008636,289.767151 296.925385,290.523834 296.924103,291.278961 
	C296.908142,300.638123 296.758545,309.997040 296.361084,319.657104 
z"/>
<path fill="#275158" opacity="1.000000" stroke="none" 
	d="
M285.463226,320.971710 
	C289.090973,321.136017 292.333008,321.316193 295.835022,321.178925 
	C297.616180,321.053955 299.137421,321.246429 301.312317,321.521637 
	C297.951172,324.292938 285.371094,324.553101 280.284454,321.948944 
	C282.537476,321.497040 283.807526,321.242310 285.463226,320.971710 
z"/>
<path fill="#275158" opacity="1.000000" stroke="none" 
	d="
M224.605789,321.004242 
	C228.514481,321.155426 232.040131,321.325775 235.834503,321.170715 
	C237.368301,321.170380 238.633331,321.495453 239.898376,321.820496 
	C239.830231,322.263062 239.762085,322.705597 239.693939,323.148163 
	C233.320282,323.148163 226.946625,323.148163 220.572968,323.148163 
	C220.522202,322.669586 220.471451,322.191040 220.420700,321.712463 
	C221.688049,321.482758 222.955383,321.253052 224.605789,321.004242 
z"/>
<path fill="#275158" opacity="1.000000" stroke="none" 
	d="
M247.587906,321.012085 
	C251.210571,321.145569 254.420776,321.288940 257.895081,321.099854 
	C259.782501,321.066467 261.405792,321.365540 263.029114,321.664581 
	C262.974792,322.147736 262.920441,322.630890 262.866119,323.114044 
	C256.616577,323.114044 250.367020,323.114044 244.117462,323.114044 
	C244.012711,322.764160 243.907974,322.414246 243.803223,322.064362 
	C244.927292,321.716888 246.051361,321.369446 247.587906,321.012085 
z"/>
<path fill="#0A2E3B" opacity="1.000000" stroke="none" 
	d="
M295.443542,288.621277 
	C295.499756,299.010925 295.481018,309.010651 295.486450,319.476776 
	C295.059326,319.502197 294.211456,319.058136 294.214844,318.620697 
	C294.300446,307.571991 294.475433,296.524017 295.011871,285.263184 
	C295.382202,286.110748 295.375397,287.171051 295.443542,288.621277 
z"/>
<path fill="#275158" opacity="1.000000" stroke="none" 
	d="
M307.667725,266.581726 
	C307.363220,262.442230 307.158600,257.845032 307.309540,253.107391 
	C307.699280,257.352661 307.733459,261.738373 307.667725,266.581726 
z"/>
<path fill="#275158" opacity="1.000000" stroke="none" 
	d="
M298.644836,270.042603 
	C300.282104,270.653442 301.536041,271.256226 302.916534,272.135132 
	C300.501617,272.411255 297.960175,272.411255 295.418701,272.411255 
	C295.344727,271.926849 295.270721,271.442444 295.196716,270.958069 
	C296.218323,270.650238 297.239929,270.342438 298.644836,270.042603 
z"/>
<path fill="#275158" opacity="1.000000" stroke="none" 
	d="
M307.313965,272.534424 
	C307.133026,271.715881 307.335632,271.020416 307.763611,270.165100 
	C309.270935,270.502441 310.552856,270.999725 311.834808,271.496979 
	C311.856232,271.785278 311.877686,272.073608 311.899109,272.361908 
	C310.498596,272.460449 309.098053,272.558990 307.313965,272.534424 
z"/>
<path fill="#0A2E3B" opacity="1.000000" stroke="none" 
	d="
M286.858490,287.377563 
	C287.124908,288.490204 287.329529,290.021515 287.256287,291.781982 
	C286.917877,290.606171 286.857269,289.201172 286.858490,287.377563 
z"/>
<path fill="#9CD3D0" opacity="1.000000" stroke="none" 
	d="
M259.738342,300.917755 
	C259.822388,301.372040 259.906464,301.826355 260.054382,302.622253 
	C259.650543,302.975861 259.182800,302.987854 258.364410,302.998901 
	C257.967712,302.246735 257.921692,301.495544 258.167114,300.457947 
	C258.885162,300.420319 259.311768,300.669037 259.738342,300.917755 
z"/>
<path fill="#9CD3D0" opacity="1.000000" stroke="none" 
	d="
M296.229736,284.898560 
	C296.166992,284.703674 296.312286,284.402893 296.721436,284.076996 
	C296.882416,284.357635 296.699890,284.604584 296.229736,284.898560 
z"/>
<path fill="#9CD3D0" opacity="1.000000" stroke="none" 
	d="
M299.089172,284.127258 
	C298.987396,283.955597 299.458466,283.811066 299.704803,283.808350 
	C299.697723,283.970093 299.444336,284.134521 299.089172,284.127258 
z"/>
<path fill="#8FC9C4" opacity="1.000000" stroke="none" 
	d="
M185.110794,250.059753 
	C185.520432,246.830597 185.614883,243.955048 186.405685,241.285782 
	C188.080399,235.632904 191.706253,232.949203 197.278793,232.684448 
	C203.912399,232.369308 207.817474,234.367599 210.157425,239.916061 
	C213.404007,247.614243 213.278290,255.532578 210.265411,263.241364 
	C208.482544,267.803040 204.842072,270.078827 199.732956,270.187042 
	C194.349686,270.301025 189.963913,268.449005 188.005432,263.487488 
	C186.397659,259.414398 186.029007,254.852203 185.110794,250.059753 
z"/>
<path fill="#8FC8C3" opacity="1.000000" stroke="none" 
	d="
M238.649414,259.972260 
	C238.650833,258.178894 238.747528,256.849243 238.634811,255.537598 
	C238.377609,252.544113 239.213257,249.694016 242.438293,249.798080 
	C244.999588,249.880737 249.446991,251.397903 249.677032,252.823517 
	C250.422882,257.445923 250.077240,262.418854 249.088989,267.028900 
	C248.829102,268.241241 244.716507,269.268646 242.390198,269.234100 
	C239.510818,269.191376 238.336395,266.833984 238.632278,263.911102 
	C238.748138,262.766602 238.650192,261.600433 238.649414,259.972260 
z"/>
<path fill="#8DC6C2" opacity="1.000000" stroke="none" 
	d="
M260.159119,300.888428 
	C259.311768,300.669037 258.885162,300.420319 258.226196,300.085083 
	C257.993835,295.198029 257.993835,290.397522 257.993835,284.036835 
	C261.480621,285.198822 265.650330,285.337677 266.925995,287.329773 
	C268.524139,289.825378 268.435547,293.978607 267.805176,297.165131 
	C267.144196,300.506683 263.910889,301.382996 260.159119,300.888428 
z"/>
<path fill="#8DC6C2" opacity="1.000000" stroke="none" 
	d="
M210.940033,301.054321 
	C212.073578,298.242859 213.079529,295.798370 214.567062,292.183655 
	C216.725876,297.611206 218.491058,302.049103 220.443100,306.956757 
	C216.357147,306.956757 212.939972,306.956757 208.763626,306.956757 
	C209.512802,304.932648 210.162628,303.177002 210.940033,301.054321 
z"/>
<path fill="#8DC5C1" opacity="1.000000" stroke="none" 
	d="
M279.501160,246.665985 
	C281.241516,249.088593 282.623962,251.396515 284.626831,254.740173 
	C279.491241,254.740173 276.132629,254.740173 272.769470,254.740173 
	C272.643829,248.305344 273.676208,247.008057 279.501160,246.665985 
z"/>
</svg>