<svg version="1.1" id="Layer_1" xmlns="http://www.w3.org/2000/svg" xmlns:xlink="http://www.w3.org/1999/xlink" x="0px" y="0px"
	 width="100%" viewBox="0 0 500 546" enable-background="new 0 0 500 546" xml:space="preserve">
<path fill="#FEFEFE" opacity="1.000000" stroke="none" 
	d="
M1.000000,209.000000 
	C1.000000,139.349854 1.000000,70.199722 1.000000,1.024792 
	C167.610306,1.024792 334.220612,1.024792 500.915466,1.024792 
	C500.915466,182.900116 500.915466,364.800262 500.915466,546.850220 
	C334.333435,546.850220 167.666733,546.850220 1.000000,546.850220 
	C1.000000,434.446075 1.000000,321.973053 1.000000,209.000000 
M99.987892,425.332825 
	C99.620262,425.240631 99.252632,425.148468 98.761803,424.873657 
	C98.761803,424.873657 98.551628,424.939636 98.156853,424.342407 
	C97.078484,423.884674 96.000114,423.426910 94.820900,422.844269 
	C94.820900,422.844269 94.662926,422.872711 94.433830,422.358612 
	C94.296997,422.231110 94.160156,422.103638 94.112213,421.045349 
	C94.114258,318.328491 94.121826,215.611649 94.067451,112.894829 
	C94.066612,111.300621 93.302330,109.706825 92.262085,107.801483 
	C90.864899,107.159706 89.467705,106.517929 88.026756,105.966286 
	C88.026756,105.966286 88.115524,105.919807 87.856232,105.237968 
	C86.597649,104.777016 85.339058,104.316055 84.039139,103.946159 
	C84.039139,103.946159 84.131660,103.908226 83.841331,103.261887 
	C81.587265,102.131966 79.333199,101.002037 77.039528,99.953026 
	C77.039528,99.953026 77.127800,99.935097 76.960320,99.323181 
	C76.620445,99.234436 76.280571,99.145699 75.564018,98.963623 
	C75.564018,98.963623 75.175972,98.960075 74.918892,98.316269 
	C74.295776,98.156090 73.672668,97.995911 73.043953,97.928261 
	C73.043953,97.928261 73.134476,97.908302 72.913803,97.213135 
	C69.306435,95.426704 65.699066,93.640266 62.054913,91.937202 
	C62.054913,91.937202 62.145023,91.923584 61.980778,91.288116 
	C61.634388,91.201797 61.287998,91.115479 60.570992,90.944359 
	C60.570992,90.944359 60.190868,90.951942 59.971714,90.337830 
	C59.627411,90.231621 59.283108,90.125412 58.593052,89.904144 
	C58.593052,89.904144 58.230320,89.938927 57.933804,89.332275 
	C56.977505,88.853905 56.021206,88.375534 55.003674,87.979393 
	C55.003674,87.979393 55.092178,87.927666 54.829567,87.250893 
	C48.832409,84.094360 42.835251,80.937828 36.116974,78.296104 
	C36.064228,78.791573 35.965313,79.287033 35.965252,79.782509 
	C35.949795,205.857391 35.937725,331.932251 35.979488,458.007111 
	C35.979927,459.339233 36.689320,460.671051 37.592392,462.453796 
	C38.419792,462.980103 39.218903,463.558563 40.078747,464.025055 
	C57.083755,473.250885 74.063744,482.523560 91.114975,491.663269 
	C110.035782,501.805054 129.022919,511.823090 148.656326,522.343811 
	C151.054749,523.846130 151.021149,522.223450 151.003540,520.542053 
	C150.952957,515.710510 150.926910,510.878693 151.074265,505.225006 
	C150.959732,504.120331 150.845200,503.015625 150.779953,501.082916 
	C150.762802,499.424133 150.745651,497.765381 150.954559,495.489838 
	C150.866058,495.289581 150.777557,495.089325 150.719604,493.966797 
	C150.643616,481.682343 150.423035,469.395966 150.582977,457.114594 
	C150.628784,453.595490 149.694489,451.466888 146.140610,450.810455 
	C146.140610,450.810455 146.286194,450.730255 145.926987,450.199463 
	C144.958939,449.774353 143.990891,449.349243 143.014664,448.993744 
	C143.014664,448.993744 143.078735,448.965302 142.776505,448.420471 
	C142.194366,448.227264 141.612244,448.034088 141.040634,447.943085 
	C141.040634,447.943085 141.138382,447.911469 140.829987,447.357605 
	C140.232056,447.178711 139.634140,446.999786 139.056488,446.936066 
	C139.056488,446.936066 139.164490,446.891113 138.815948,446.371216 
	C138.233521,446.168518 137.651108,445.965851 137.077835,445.896820 
	C137.077835,445.896820 137.202927,445.848877 136.865936,445.321167 
	C136.285965,445.106140 135.705978,444.891144 135.121811,444.827026 
	C135.121811,444.827026 135.260361,444.767029 134.906876,444.214142 
	C133.907990,443.792236 132.909103,443.370361 131.804901,442.835571 
	C131.804901,442.835571 131.655746,442.875488 131.243286,442.305511 
	C130.602783,442.024872 129.962296,441.744202 129.266830,441.617126 
	C129.266830,441.617126 129.404266,441.529297 129.075958,441.087677 
	C128.725555,441.011200 128.375153,440.934692 128.041870,440.953888 
	C128.041870,440.953888 128.132523,440.918823 127.817856,440.378540 
	C127.240463,440.166962 126.663071,439.955383 126.091362,439.878967 
	C126.091362,439.878967 126.216545,439.827728 125.860542,439.306824 
	C125.265327,439.119507 124.670113,438.932190 124.087189,438.886169 
	C124.087189,438.886169 124.217896,438.831146 123.871361,438.290863 
	C122.912941,437.850586 121.954521,437.410309 121.002426,437.011566 
	C121.002426,437.011566 121.040726,436.994324 120.664162,436.476746 
	C119.884102,436.146210 119.104042,435.815704 118.240074,435.614349 
	C118.240074,435.614349 118.387123,435.568542 118.056488,435.132843 
	C117.704910,435.063721 117.353325,434.994598 117.014648,434.993896 
	C117.014648,434.993896 117.078064,434.965149 116.719910,434.446716 
	C115.957344,434.106873 115.194771,433.767029 114.277077,433.421387 
	C114.277077,433.421387 114.421585,433.450348 114.092514,433.021973 
	C113.752571,432.937317 113.412621,432.852661 113.082047,432.894806 
	C113.082047,432.894806 113.199272,432.845673 112.865692,432.295135 
	C111.884262,431.883698 110.902832,431.472260 109.790451,430.859711 
	C109.790451,430.859711 109.559593,430.925171 109.139374,430.361816 
	C108.098587,429.884766 107.057800,429.407715 106.012093,428.997437 
	C106.012093,428.997437 106.073143,428.969971 105.753395,428.411163 
	C104.964668,428.088989 104.175934,427.766785 103.033173,427.649109 
	C103.033173,427.649109 103.409431,427.489136 103.061165,427.074799 
	C102.715034,427.003754 102.368904,426.932709 102.041313,426.957306 
	C102.041313,426.957306 102.132019,426.921753 101.799141,426.400024 
	C101.227539,426.181519 100.655945,425.962982 100.081627,425.899780 
	C100.081627,425.899780 100.232513,425.862885 99.987892,425.332825 
M265.379211,79.257996 
	C265.379211,79.257996 265.084839,78.991486 265.033112,78.243950 
	C262.268799,71.830566 259.504486,65.417183 256.645721,58.323563 
	C254.559982,53.790241 254.336334,53.698475 250.273849,56.272175 
	C250.166611,56.842808 250.059387,57.413445 249.478973,58.494587 
	C245.954086,67.289711 242.504700,76.116180 238.871719,84.866440 
	C237.115402,89.096672 236.403320,94.165474 231.089966,96.306816 
	C235.667160,96.306816 240.244339,96.306816 244.821533,96.306816 
	C244.866806,95.963150 244.912079,95.619484 244.957352,95.275810 
	C243.341919,94.747192 241.726501,94.218567 239.593643,93.520622 
	C240.815567,90.250740 241.967468,87.168251 243.045609,84.038841 
	C243.045609,84.038841 243.049362,84.126183 243.703247,84.101463 
	C244.029190,83.895378 244.355148,83.689285 245.164505,83.837830 
	C245.911789,83.702736 246.659058,83.567635 247.921539,84.037392 
	C249.277054,84.001663 250.632553,83.965927 252.782425,84.088165 
	C253.857010,84.035782 254.931610,83.983398 256.498413,84.073601 
	C256.662354,84.025658 256.826294,83.977715 257.397308,84.082886 
	C257.397308,84.082886 257.831909,84.066620 258.067902,84.584198 
	C258.387512,85.052628 258.707153,85.521057 259.015686,86.571793 
	C259.306061,87.060547 259.596436,87.549301 259.943512,88.848907 
	C260.435974,90.398094 260.928436,91.947289 261.411804,93.467804 
	C259.608795,94.303398 258.118286,94.994179 255.423584,96.243034 
	C263.138641,96.243034 269.378326,96.243034 275.617981,96.243034 
	C275.627930,95.967873 275.637878,95.692711 275.647827,95.417549 
	C274.112579,94.583046 272.577332,93.748535 271.000427,92.413078 
	C270.902466,92.277145 270.804504,92.141205 270.641296,91.376083 
	C270.072083,90.259079 269.502869,89.142075 268.908783,87.337021 
	C268.226990,85.891861 267.545197,84.446701 266.856628,82.376472 
	C266.360168,81.478592 265.863708,80.580711 265.235870,79.608604 
	C265.235870,79.608604 265.381165,79.655090 265.379211,79.257996 
M416.825684,82.278946 
	C415.905304,82.130043 414.984894,81.981140 413.684814,81.252121 
	C397.697357,72.528603 381.709869,63.805080 365.578369,54.421860 
	C361.677185,52.319447 357.776031,50.217030 353.708557,48.025005 
	C353.330505,49.007999 353.019684,49.437405 353.021576,49.865417 
	C353.119812,72.027832 353.204468,94.190590 353.464081,116.351280 
	C353.480042,117.710594 354.573975,119.585487 355.733490,120.299416 
	C358.650543,122.095512 361.892426,123.364090 365.671875,125.134682 
	C380.297699,133.118271 394.923492,141.101868 409.784302,149.989334 
	C409.850555,152.649536 409.974396,155.309753 409.974670,157.969955 
	C409.985046,254.241669 409.983948,350.513397 409.984650,446.785095 
	C409.984680,451.282196 409.844177,455.786774 410.077637,460.271790 
	C410.145447,461.574249 411.286530,462.820892 412.011169,464.054688 
	C412.011169,464.054688 411.929047,464.069122 412.077515,464.690430 
	C413.016541,465.073578 413.955566,465.456696 415.594208,466.083435 
	C432.173645,475.003265 448.753113,483.923126 465.622345,493.615601 
	C466.466827,493.165070 467.927734,492.832062 468.040192,492.242035 
	C468.377777,490.471008 468.203613,488.599640 468.203644,486.767426 
	C468.205872,363.334930 468.205841,239.902451 468.202789,116.469955 
	C468.202759,114.804749 468.272369,113.126190 468.073975,111.482285 
	C468.012634,110.974113 467.169708,110.560272 466.138519,109.698517 
	C454.289886,103.143433 442.441223,96.588348 430.360596,89.430573 
	C425.920135,87.259819 421.479645,85.089066 416.999115,82.986786 
	C416.999115,82.986786 417.067993,82.947395 416.825684,82.278946 
M267.484711,481.843475 
	C267.326202,481.921967 267.167694,482.000427 266.193054,482.041168 
	C261.951111,483.038269 257.709137,484.035370 253.467178,485.032471 
	C253.434875,485.643585 253.402573,486.254700 253.370255,486.865845 
	C259.486633,486.090454 259.401581,489.796631 259.338165,493.739319 
	C259.244568,499.560303 259.146271,505.400513 259.515594,511.202881 
	C259.763458,515.097351 261.923309,518.142761 265.871552,519.353149 
	C269.856567,520.574890 273.742615,520.699890 277.035065,517.458557 
	C278.421326,516.093811 279.894440,514.817322 281.597809,513.252930 
	C281.951019,515.249146 282.216278,516.748413 282.429230,517.952026 
	C287.577759,517.952026 292.310120,517.952026 297.042480,517.952026 
	C297.171539,517.527161 297.300568,517.102295 297.429626,516.677429 
	C295.405060,515.844971 293.380524,515.012451 291.337769,513.210083 
	C291.366211,503.720184 291.433838,494.229980 291.360596,484.740875 
	C291.353485,483.822968 290.473236,482.911835 289.174255,481.971710 
	C284.764618,482.957428 280.354950,483.943115 275.945312,484.928833 
	C275.735870,485.451691 275.526398,485.974548 275.316956,486.497406 
	C283.538116,486.246857 281.914124,491.643738 281.994843,496.021820 
	C282.052887,499.170380 281.910614,502.324371 282.026947,505.469696 
	C282.169983,509.338318 280.448364,511.911804 276.783966,512.864624 
	C273.167908,513.804810 270.229584,512.763306 268.816040,508.040619 
	C268.815063,499.694336 268.814087,491.348083 269.006042,482.386169 
	C268.672699,482.238251 268.339325,482.090302 267.484711,481.843475 
M332.043427,57.610497 
	C333.377228,57.229507 334.711029,56.848518 336.199158,56.423450 
	C332.634003,53.682491 320.875153,53.812672 318.173340,56.445526 
	C319.633514,56.992592 321.093658,57.539658 322.592560,59.013313 
	C322.612305,70.414284 322.632050,81.815262 322.105469,93.646912 
	C320.722504,94.369392 319.339539,95.091873 317.956573,95.814354 
	C318.082153,96.049164 318.207703,96.283981 318.333282,96.518791 
	C324.185730,96.518791 330.038208,96.518791 337.131866,96.518791 
	C334.452148,94.868889 332.876434,93.898720 331.373260,92.002266 
	C331.412323,80.692940 331.451355,69.383614 332.043427,57.610497 
M314.173920,481.967773 
	C309.752228,482.955750 305.330566,483.943695 300.908875,484.931671 
	C300.687958,485.483795 300.467010,486.035950 300.246063,486.588074 
	C308.369934,486.069885 306.903046,491.320404 306.968048,495.597504 
	C307.026215,499.425323 306.752625,503.271606 307.036224,507.079132 
	C307.377380,511.658752 307.114624,515.569092 301.379456,516.316223 
	C301.279755,516.329224 301.253265,516.904663 301.091888,517.737549 
	C308.143250,517.737549 315.076294,517.737549 322.009308,517.737549 
	C322.099457,517.323975 322.189606,516.910339 322.279785,516.496765 
	C320.317078,515.730042 318.354401,514.963379 316.310547,513.222961 
	C316.351807,503.662445 316.429626,494.101715 316.371399,484.541809 
	C316.366241,483.690460 315.476868,482.844543 314.173920,481.967773 
M294.968201,58.103989 
	C301.817993,58.027248 304.299194,59.533604 304.549500,64.628922 
	C304.665680,66.993408 304.418152,70.028648 303.032867,71.639748 
	C301.490631,73.433357 298.466309,73.952606 296.147644,74.999321 
	C298.990051,78.049370 304.277649,77.629982 308.963928,73.789742 
	C312.608673,70.803001 314.320892,65.171730 312.858673,60.691605 
	C311.459656,56.405167 308.043549,54.931778 303.950989,54.824295 
	C296.811462,54.636791 289.666656,54.588097 282.524963,54.630920 
	C281.688873,54.635937 280.858490,55.584671 279.498901,56.419056 
	C284.775757,57.478390 284.835327,57.477726 284.884247,61.860413 
	C284.952942,68.010910 285.256287,74.185410 284.836609,80.306946 
	C284.448181,85.972061 287.967804,92.852295 279.869110,96.401665 
	C286.647644,96.401665 292.760712,96.401665 298.873810,96.401665 
	C298.905151,96.127922 298.936523,95.854187 298.967896,95.580444 
	C297.197906,94.708878 295.427887,93.837303 293.748383,92.037140 
	C293.879425,80.705978 294.010498,69.374809 294.968201,58.103989 
M123.416397,308.091736 
	C123.906540,310.707825 124.286850,313.350067 124.903595,315.935974 
	C132.064682,345.961212 147.348969,370.989899 171.790710,389.930573 
	C204.682587,415.419495 241.932770,423.992371 282.373566,414.637054 
	C323.011810,405.236053 352.884918,381.079010 371.140472,343.458801 
	C386.447937,311.913910 388.891937,278.806030 377.263763,245.861481 
	C359.797699,196.377121 324.560211,166.257965 272.547272,157.727356 
	C231.429657,150.983688 194.646378,162.500137 164.227661,190.654953 
	C130.400848,221.964218 117.128395,261.410492 123.416397,308.091736 
M247.672958,498.972229 
	C246.817047,492.210938 242.680420,488.798431 236.231689,487.680511 
	C232.628357,487.055878 229.005356,486.481110 225.458939,485.608551 
	C221.406128,484.611389 219.346512,481.891479 219.349792,477.627686 
	C219.353958,472.225494 222.720169,468.476807 228.102905,468.008392 
	C235.448792,467.369141 239.025269,469.811615 240.198166,476.048920 
	C240.357025,476.893738 241.411713,477.570099 242.051575,478.324463 
	C242.661942,477.538330 243.682236,476.812408 243.808060,475.955139 
	C244.237000,473.032684 244.350861,470.063965 244.579926,467.176575 
	C237.284866,463.212219 226.487946,462.805420 219.413574,466.160919 
	C213.220093,469.098572 209.465073,475.659882 210.080826,482.468414 
	C210.736908,489.722839 213.961334,493.190369 221.974579,495.094788 
	C224.718124,495.746796 227.520065,496.149292 230.275345,496.756470 
	C236.629379,498.156586 238.787720,500.642120 238.457840,506.059570 
	C238.112167,511.736511 234.289276,515.579224 228.570831,515.997925 
	C220.095490,516.618530 216.070328,513.566284 214.077179,505.169556 
	C213.902252,504.432617 212.975845,503.874054 212.398453,503.232666 
	C211.837036,503.896240 210.933228,504.483551 210.765808,505.234955 
	C208.401550,515.845154 210.363953,518.596008 221.253815,519.763611 
	C223.879028,520.045044 226.580429,520.062622 229.207458,519.803223 
	C240.809448,518.657654 247.274460,511.640686 247.672958,498.972229 
M81.604805,58.006844 
	C71.739120,64.896629 71.875092,83.163002 78.546379,90.961121 
	C85.531174,99.125710 101.677299,100.636536 111.004028,93.471649 
	C119.054619,87.287086 120.528427,78.611511 118.967873,69.267532 
	C117.666985,61.478363 112.812584,56.450283 105.186577,54.500690 
	C97.186691,52.455513 89.384682,52.925220 81.604805,58.006844 
M126.369926,110.797928 
	C125.637115,111.153496 124.904305,111.509064 124.171486,111.864632 
	C124.249191,112.106911 124.326889,112.349197 124.404587,112.591476 
	C130.087723,112.591476 135.770844,112.591476 142.312210,112.591476 
	C135.870300,108.850426 135.155212,106.533226 137.094925,97.380379 
	C144.499130,100.038643 149.116394,95.028374 153.358643,90.566345 
	C157.791168,85.904190 158.404968,79.806770 155.960693,73.769882 
	C154.260117,69.569885 150.509613,67.588684 146.327881,68.079063 
	C143.103592,68.457169 140.067001,70.435875 136.736938,71.788185 
	C136.736938,70.672462 136.736938,69.283875 136.736938,67.534264 
	C132.263474,68.459320 128.205215,69.298523 124.146935,70.137726 
	C123.677025,70.658905 123.207115,71.180084 122.737206,71.701263 
	C130.368240,70.916389 128.813614,75.446991 128.846207,78.860535 
	C128.932053,87.851166 128.929230,96.844879 128.762405,105.833664 
	C128.732254,107.458061 127.754364,109.064873 126.369926,110.797928 
M353.298584,501.429138 
	C355.620483,517.571899 366.392700,524.361755 380.044312,518.084839 
	C381.910248,517.226868 383.210968,515.139587 384.773376,513.621521 
	C369.459167,515.590942 362.291962,511.582703 363.358673,501.267426 
	C369.645081,500.857788 375.948090,500.600037 382.204651,499.917023 
	C383.541382,499.771057 385.649139,498.213318 385.808136,497.082062 
	C387.189240,487.253662 378.694000,479.647186 368.943848,481.705353 
	C358.927032,483.819794 355.306549,488.191711 353.298584,501.429138 
M340.795319,491.577942 
	C342.298920,490.846252 343.745514,489.675720 345.317627,489.471497 
	C348.921417,489.003387 348.946289,489.194824 348.387573,484.622650 
	C346.009674,484.622650 343.578156,484.622650 341.200989,484.622650 
	C341.200989,479.350983 341.200989,474.488525 341.200989,469.198059 
	C337.565918,470.638702 334.371521,471.904694 331.227570,473.150696 
	C330.546448,478.774567 333.941833,485.464172 325.206879,488.707916 
	C327.990295,489.297913 329.524414,489.623108 331.189880,489.976166 
	C331.189880,496.577118 331.166229,502.897522 331.197632,509.217651 
	C331.221283,513.976318 332.075104,518.280762 337.576599,519.724426 
	C342.591400,521.040344 345.791046,519.460938 349.139679,514.050964 
	C340.789856,513.245117 340.787872,513.245117 340.780884,504.556702 
	C340.777649,500.558380 340.783997,496.560059 340.795319,491.577942 
M215.908768,87.379883 
	C215.908768,90.482277 215.908768,93.584671 215.908768,96.257454 
	C219.938950,96.257454 223.661499,96.257454 227.384048,96.257454 
	C227.802689,95.775345 228.221329,95.293228 228.639969,94.811119 
	C222.574005,95.250992 223.488358,91.711365 223.441895,88.764587 
	C223.394714,85.772354 223.487244,82.777588 223.421646,79.786057 
	C223.326767,75.458534 223.597122,70.910614 218.595764,68.739517 
	C213.648300,66.591827 209.944092,68.687202 206.707596,72.322914 
	C206.579315,72.467003 206.147949,72.341286 205.843048,72.341286 
	C205.535645,70.786644 205.236023,69.271332 204.896896,67.556206 
	C200.718781,68.494980 196.961761,69.339134 193.585495,70.097740 
	C195.166153,71.999725 197.553223,73.548424 197.688828,75.274048 
	C198.167603,81.366722 197.875153,87.519997 197.875153,93.537903 
	C196.032715,94.272423 194.595215,94.845497 193.157730,95.418579 
	C193.208435,95.707703 193.259140,95.996819 193.309845,96.285942 
	C198.858185,96.285942 204.406525,96.285942 209.903366,96.285942 
	C208.254135,94.399040 206.011993,93.005264 205.767883,91.321754 
	C205.176941,87.246414 205.372925,83.030624 205.528046,78.881775 
	C205.652252,75.559303 207.520447,73.768204 211.005692,73.799599 
	C214.482651,73.830917 215.601883,76.074615 215.833511,78.961273 
	C216.032440,81.440239 215.896881,83.946045 215.908768,87.379883 
M164.944290,91.323059 
	C168.643967,97.547142 174.435394,98.800957 180.926041,97.606735 
	C183.884796,97.062355 187.643402,96.814575 188.073349,92.243294 
	C176.072952,94.501297 170.483292,91.393669 171.453827,83.248497 
	C177.320999,82.811020 183.183746,82.373878 188.942627,81.944473 
	C189.257187,69.325874 181.286453,64.003433 171.117798,69.133942 
	C163.283371,73.086723 161.168228,80.087143 164.944290,91.323059 
M307.334229,464.805908 
	C306.754730,466.730072 305.418060,468.801727 305.758087,470.546722 
	C306.405243,473.868042 309.050842,475.529572 312.473419,474.532898 
	C315.719818,473.587463 317.405029,471.195679 316.546448,467.713898 
	C315.619843,463.956482 312.442780,462.798218 307.334229,464.805908 
z"/>
<path fill="#02B4AF" opacity="1.000000" stroke="none" 
	d="
M430.592590,90.033264 
	C442.441223,96.588348 454.289886,103.143433 466.476074,110.356110 
	C466.850311,127.508797 466.917572,144.003891 466.918823,160.498993 
	C466.927032,269.141235 466.930145,377.783447 466.853577,486.425629 
	C466.852051,488.565125 465.861603,490.703857 465.332550,492.842957 
	C448.753113,483.923126 432.173645,475.003265 415.199463,465.624695 
	C413.846130,464.800385 412.887604,464.434753 411.929047,464.069122 
	C411.929047,464.069122 412.011169,464.054688 411.983490,463.650452 
	C411.666748,461.125427 411.141785,459.006256 411.127625,456.883636 
	C411.046509,444.735168 411.086029,432.585876 411.085968,420.436859 
	C411.085602,332.065277 411.096039,243.693680 411.021179,155.322174 
	C411.019409,153.242844 410.061340,151.164352 409.549316,149.085464 
	C394.923492,141.101868 380.297699,133.118271 365.280457,124.653709 
	C362.703278,122.737114 360.214355,121.599075 358.424164,119.775177 
	C356.889496,118.211624 355.236450,115.875824 355.208527,113.859726 
	C354.938263,94.368752 354.991394,74.873169 354.987518,55.378895 
	C354.987244,54.027370 355.269897,52.675793 355.381622,51.676205 
	C359.215790,52.938843 362.469086,54.010204 365.722412,55.081566 
	C381.709869,63.805080 397.697357,72.528603 414.013245,81.869186 
	C415.250458,82.639961 416.159210,82.793678 417.067993,82.947395 
	C417.067993,82.947395 416.999115,82.986786 417.031555,83.306824 
	C421.573547,85.762329 426.083069,87.897797 430.592590,90.033264 
z"/>
<path fill="#120380" opacity="1.000000" stroke="none" 
	d="
M94.662926,422.872711 
	C94.662926,422.872711 94.820900,422.844269 94.965408,423.290192 
	C96.257156,424.137299 97.404388,424.538483 98.551628,424.939636 
	C98.551628,424.939636 98.761803,424.873657 98.988022,425.189972 
	C99.553665,425.625153 99.893089,425.744019 100.232513,425.862854 
	C100.232513,425.862885 100.081627,425.899780 100.197922,426.133911 
	C100.920158,426.552612 101.526093,426.737183 102.132019,426.921753 
	C102.132019,426.921753 102.041313,426.957306 102.173706,427.168762 
	C102.673874,427.416534 103.041649,427.452820 103.409431,427.489136 
	C103.409431,427.489136 103.033173,427.649109 103.227097,427.913635 
	C104.305069,428.442078 105.189110,428.706024 106.073151,428.969971 
	C106.073143,428.969971 106.012093,428.997437 106.071625,429.353577 
	C107.273972,430.114838 108.416786,430.520020 109.559593,430.925171 
	C109.559593,430.925171 109.790451,430.859711 109.939590,431.315277 
	C111.125580,432.129120 112.162430,432.487396 113.199272,432.845673 
	C113.199272,432.845673 113.082047,432.894806 113.195831,433.110352 
	C113.680275,433.367371 114.050934,433.408844 114.421585,433.450348 
	C114.421585,433.450348 114.277077,433.421387 114.353561,433.792297 
	C115.312721,434.430511 116.195389,434.697845 117.078064,434.965149 
	C117.078064,434.965149 117.014648,434.993896 117.155449,435.208984 
	C117.659874,435.472229 118.023499,435.520386 118.387123,435.568542 
	C118.387123,435.568542 118.240074,435.614349 118.318275,435.912537 
	C119.277893,436.471924 120.159309,436.733124 121.040726,436.994324 
	C121.040726,436.994324 121.002426,437.011566 121.047508,437.356506 
	C122.134361,438.078003 123.176132,438.454559 124.217896,438.831146 
	C124.217896,438.831146 124.087189,438.886169 124.213799,439.128021 
	C124.965790,439.522491 125.591171,439.675110 126.216545,439.827728 
	C126.216545,439.827728 126.091362,439.878967 126.201958,440.123962 
	C126.919205,440.552246 127.525864,440.735535 128.132523,440.918823 
	C128.132523,440.918823 128.041870,440.953888 128.169998,441.169495 
	C128.666840,441.433167 129.035553,441.481232 129.404266,441.529297 
	C129.404266,441.529297 129.266830,441.617126 129.367279,441.932922 
	C130.197067,442.457672 130.926407,442.666565 131.655746,442.875488 
	C131.655746,442.875488 131.804901,442.835571 131.939041,443.260315 
	C133.135574,444.045715 134.197968,444.406372 135.260361,444.767029 
	C135.260361,444.767029 135.121811,444.827026 135.231079,445.076172 
	C135.961212,445.499847 136.582077,445.674347 137.202927,445.848877 
	C137.202927,445.848877 137.077835,445.896820 137.198822,446.139832 
	C137.934708,446.552246 138.549591,446.721680 139.164490,446.891113 
	C139.164490,446.891113 139.056488,446.936066 139.188873,447.173920 
	C139.926971,447.578339 140.532684,447.744904 141.138382,447.911469 
	C141.138382,447.911469 141.040634,447.943085 141.170258,448.184692 
	C141.892822,448.605988 142.485779,448.785645 143.078735,448.965302 
	C143.078735,448.965302 143.014664,448.993744 143.061981,449.332703 
	C144.168259,450.024536 145.227234,450.377380 146.286194,450.730255 
	C146.286194,450.730255 146.140610,450.810455 146.159561,451.138885 
	C147.110535,453.864441 148.790771,456.243958 148.847717,458.661713 
	C149.124969,470.431000 148.967987,482.210510 148.683945,494.279541 
	C148.598328,498.050812 148.793457,501.528992 148.992493,505.469971 
	C148.996384,509.959229 148.996353,513.985718 148.590973,518.010376 
	C146.421921,517.651855 144.440857,517.695435 142.929214,516.874573 
	C131.772568,510.816040 120.785065,504.444489 109.601028,498.438202 
	C87.358612,486.493195 65.035904,474.697296 42.712582,462.903748 
	C40.049519,461.496826 37.665947,460.321198 38.915333,456.548401 
	C39.362762,455.197266 38.991405,453.574493 38.991405,452.075714 
	C38.991604,330.839783 38.989693,209.603851 39.007519,88.367920 
	C39.007820,86.329254 39.247536,84.290619 39.432415,81.345947 
	C42.189163,82.710655 44.035751,83.765419 45.988514,84.558846 
	C48.984699,85.776222 52.053940,86.813789 55.092178,87.927666 
	C55.092178,87.927666 55.003674,87.979393 55.066078,88.307877 
	C56.162426,89.070541 57.196373,89.504738 58.230316,89.938934 
	C58.230320,89.938927 58.593052,89.904144 58.913101,90.190742 
	C59.552395,90.635536 59.871632,90.793739 60.190868,90.951942 
	C60.190868,90.951942 60.570992,90.944359 60.895901,91.209015 
	C61.528881,91.623642 61.836952,91.773613 62.145023,91.923584 
	C62.145023,91.923584 62.054913,91.937202 62.085762,92.252518 
	C65.789238,94.347984 69.461861,96.128143 73.134476,97.908302 
	C73.134476,97.908302 73.043953,97.928261 73.197205,98.173691 
	C73.958961,98.599442 74.567467,98.779762 75.175972,98.960075 
	C75.175972,98.960075 75.564018,98.963623 75.892059,99.227066 
	C76.522675,99.638710 76.825233,99.786903 77.127800,99.935097 
	C77.127800,99.935097 77.039528,99.953026 77.077332,100.273026 
	C79.453979,101.698090 81.792816,102.803162 84.131660,103.908226 
	C84.131660,103.908226 84.039139,103.946159 84.092300,104.278427 
	C85.468819,105.047066 86.792175,105.483437 88.115524,105.919800 
	C88.115524,105.919807 88.026756,105.966286 88.078262,106.297272 
	C89.089355,109.269394 90.877106,111.907768 90.885918,114.552071 
	C91.052353,164.534714 91.008537,214.518082 91.008545,264.501282 
	C91.008545,313.484802 90.989059,362.468384 91.083344,411.451721 
	C91.086922,413.314575 92.190041,415.175323 92.837669,417.446594 
	C92.930092,419.235657 92.965622,420.615143 93.203629,422.256042 
	C93.825050,422.635834 94.243988,422.754272 94.662926,422.872711 
z"/>
<path fill="#1D3947" opacity="1.000000" stroke="none" 
	d="
M123.357208,307.658661 
	C117.128395,261.410492 130.400848,221.964218 164.227661,190.654953 
	C194.646378,162.500137 231.429657,150.983688 272.547272,157.727356 
	C324.560211,166.257965 359.797699,196.377121 377.263763,245.861481 
	C388.891937,278.806030 386.447937,311.913910 371.140472,343.458801 
	C352.884918,381.079010 323.011810,405.236053 282.373566,414.637054 
	C241.932770,423.992371 204.682587,415.419495 171.790710,389.930573 
	C147.348969,370.989899 132.064682,345.961212 124.903595,315.935974 
	C124.286850,313.350067 123.906540,310.707825 123.357208,307.658661 
M196.497955,391.047485 
	C219.382416,403.292999 243.747299,408.033661 269.383057,404.044922 
	C313.519775,397.177612 345.180756,372.983337 362.247528,331.914093 
	C377.897034,294.255310 374.250305,257.043701 352.073364,222.638641 
	C331.185730,190.233795 300.593445,172.489487 262.370087,169.159622 
	C232.420868,166.550583 205.002762,174.719772 180.967407,193.111603 
	C143.640915,221.673798 127.021355,267.906738 137.505035,313.429016 
	C145.363724,347.553131 165.113235,373.461823 196.497955,391.047485 
z"/>
<path fill="#180D6B" opacity="1.000000" stroke="none" 
	d="
M54.960873,87.589279 
	C52.053940,86.813789 48.984699,85.776222 45.988514,84.558846 
	C44.035751,83.765419 42.189163,82.710655 39.432415,81.345947 
	C39.247536,84.290619 39.007820,86.329254 39.007519,88.367920 
	C38.989693,209.603851 38.991604,330.839783 38.991405,452.075714 
	C38.991405,453.574493 39.362762,455.197266 38.915333,456.548401 
	C37.665947,460.321198 40.049519,461.496826 42.712582,462.903748 
	C65.035904,474.697296 87.358612,486.493195 109.601028,498.438202 
	C120.785065,504.444489 131.772568,510.816040 142.929214,516.874573 
	C144.440857,517.695435 146.421921,517.651855 148.595093,518.352234 
	C148.663422,519.762268 148.322311,520.828674 147.981171,521.895020 
	C129.022919,511.823090 110.035782,501.805054 91.114975,491.663269 
	C74.063744,482.523560 57.083755,473.250885 40.078747,464.025055 
	C39.218903,463.558563 38.419792,462.980103 37.311111,461.758270 
	C37.027924,335.465118 37.026943,209.867508 37.016376,84.269890 
	C37.016197,82.107018 36.900105,79.944153 36.838097,77.781288 
	C42.835251,80.937828 48.832409,84.094360 54.960873,87.589279 
z"/>
<path fill="#213B4A" opacity="1.000000" stroke="none" 
	d="
M247.760925,499.377380 
	C247.274460,511.640686 240.809448,518.657654 229.207458,519.803223 
	C226.580429,520.062622 223.879028,520.045044 221.253815,519.763611 
	C210.363953,518.596008 208.401550,515.845154 210.765808,505.234955 
	C210.933228,504.483551 211.837036,503.896240 212.398468,503.232666 
	C212.975845,503.874054 213.902252,504.432617 214.077179,505.169556 
	C216.070328,513.566284 220.095490,516.618530 228.570831,515.997925 
	C234.289276,515.579224 238.112167,511.736511 238.457840,506.059570 
	C238.787720,500.642120 236.629379,498.156586 230.275345,496.756470 
	C227.520065,496.149292 224.718124,495.746796 221.974579,495.094788 
	C213.961334,493.190369 210.736908,489.722839 210.080826,482.468414 
	C209.465073,475.659882 213.220093,469.098572 219.413574,466.160919 
	C226.487946,462.805420 237.284866,463.212219 244.579926,467.176575 
	C244.350861,470.063965 244.237000,473.032684 243.808060,475.955139 
	C243.682236,476.812408 242.661942,477.538330 242.051575,478.324463 
	C241.411713,477.570099 240.357025,476.893738 240.198166,476.048920 
	C239.025269,469.811615 235.448792,467.369141 228.102905,468.008392 
	C222.720169,468.476807 219.353958,472.225494 219.349792,477.627686 
	C219.346512,481.891479 221.406128,484.611389 225.458939,485.608551 
	C229.005356,486.481110 232.628357,487.055878 236.231689,487.680511 
	C242.680420,488.798431 246.817047,492.210938 247.760925,499.377380 
z"/>
<path fill="#213B4A" opacity="1.000000" stroke="none" 
	d="
M81.916466,57.810619 
	C89.384682,52.925220 97.186691,52.455513 105.186577,54.500690 
	C112.812584,56.450283 117.666985,61.478363 118.967873,69.267532 
	C120.528427,78.611511 119.054619,87.287086 111.004028,93.471649 
	C101.677299,100.636536 85.531174,99.125710 78.546379,90.961121 
	C71.875092,83.163002 71.739120,64.896629 81.916466,57.810619 
M104.159660,59.112831 
	C96.104073,54.809265 88.053749,56.547905 85.077522,63.695038 
	C81.660530,71.900620 81.896324,80.341072 86.033562,88.224220 
	C90.434937,96.610680 102.608932,96.885590 107.502625,89.058708 
	C111.276176,83.023354 111.916267,65.042267 104.159660,59.112831 
z"/>
<path fill="#213C4C" opacity="1.000000" stroke="none" 
	d="
M291.355957,514.179932 
	C293.380524,515.012451 295.405060,515.844971 297.429626,516.677429 
	C297.300568,517.102295 297.171539,517.527161 297.042480,517.952026 
	C292.310120,517.952026 287.577759,517.952026 282.429230,517.952026 
	C282.216278,516.748413 281.951019,515.249146 281.597809,513.252930 
	C279.894440,514.817322 278.421326,516.093811 277.035065,517.458557 
	C273.742615,520.699890 269.856567,520.574890 265.871552,519.353149 
	C261.923309,518.142761 259.763458,515.097351 259.515594,511.202881 
	C259.146271,505.400513 259.244568,499.560303 259.338165,493.739319 
	C259.401581,489.796631 259.486633,486.090454 253.370255,486.865845 
	C253.402573,486.254700 253.434875,485.643585 253.467178,485.032471 
	C257.709137,484.035370 261.951111,483.038269 266.598877,482.523499 
	C267.000732,490.315979 266.907318,497.628143 267.073059,504.934387 
	C267.103882,506.292816 268.177368,507.627533 268.769653,508.973206 
	C270.229584,512.763306 273.167908,513.804810 276.783966,512.864624 
	C280.448364,511.911804 282.169983,509.338318 282.026947,505.469696 
	C281.910614,502.324371 282.052887,499.170380 281.994843,496.021820 
	C281.914124,491.643738 283.538116,486.246857 275.316956,486.497406 
	C275.526398,485.974548 275.735870,485.451691 275.945312,484.928833 
	C280.354950,483.943115 284.764618,482.957428 289.579926,482.453430 
	C289.985413,491.698975 289.915192,500.463867 290.046936,509.225708 
	C290.071869,510.883270 290.898987,512.528809 291.355957,514.179932 
z"/>
<path fill="#1F3949" opacity="1.000000" stroke="none" 
	d="
M126.791977,110.738861 
	C127.754364,109.064873 128.732254,107.458061 128.762405,105.833664 
	C128.929230,96.844879 128.932053,87.851166 128.846207,78.860535 
	C128.813614,75.446991 130.368240,70.916389 122.737206,71.701263 
	C123.207115,71.180084 123.677025,70.658905 124.146935,70.137726 
	C128.205215,69.298523 132.263474,68.459320 136.736938,67.534264 
	C136.736938,69.283875 136.736938,70.672462 136.736938,71.788185 
	C140.067001,70.435875 143.103592,68.457169 146.327881,68.079063 
	C150.509613,67.588684 154.260117,69.569885 155.960693,73.769882 
	C158.404968,79.806770 157.791168,85.904190 153.358643,90.566345 
	C149.116394,95.028374 144.499130,100.038643 137.094925,97.380379 
	C135.155212,106.533226 135.870300,108.850426 142.312210,112.591476 
	C135.770844,112.591476 130.087723,112.591476 124.404587,112.591476 
	C124.326889,112.349197 124.249191,112.106911 124.171486,111.864632 
	C124.904305,111.509064 125.637115,111.153496 126.791977,110.738861 
M136.308228,87.120605 
	C135.832138,90.811859 137.084930,93.361168 141.027847,93.932259 
	C144.976212,94.504150 147.744583,92.644432 148.401764,88.893951 
	C148.990341,85.534927 149.095795,81.910439 148.490387,78.570564 
	C147.795105,74.734932 144.675323,73.345970 140.872269,73.835236 
	C137.104614,74.319969 135.994492,76.724297 136.278397,80.227219 
	C136.439362,82.213341 136.307587,84.223206 136.308228,87.120605 
z"/>
<path fill="#213B4A" opacity="1.000000" stroke="none" 
	d="
M353.302979,501.008179 
	C355.306549,488.191711 358.927032,483.819794 368.943848,481.705353 
	C378.694000,479.647186 387.189240,487.253662 385.808136,497.082062 
	C385.649139,498.213318 383.541382,499.771057 382.204651,499.917023 
	C375.948090,500.600037 369.645081,500.857788 363.359131,501.274445 
	C362.291962,511.582703 369.459167,515.590942 384.773376,513.621521 
	C383.210968,515.139587 381.910248,517.226868 380.044312,518.084839 
	C366.392700,524.361755 355.620483,517.571899 353.302979,501.008179 
M367.939819,485.344330 
	C362.302734,487.040863 362.609619,491.662201 362.211182,496.549744 
	C366.991882,496.549744 371.362701,496.549744 375.720612,496.549744 
	C376.367920,488.642090 374.739197,486.083649 367.939819,485.344330 
z"/>
<path fill="#180D6B" opacity="1.000000" stroke="none" 
	d="
M92.780777,417.037048 
	C92.190041,415.175323 91.086922,413.314575 91.083344,411.451721 
	C90.989059,362.468384 91.008545,313.484802 91.008545,264.501282 
	C91.008537,214.518082 91.052353,164.534714 90.885918,114.552071 
	C90.877106,111.907768 89.089355,109.269394 88.100143,106.252205 
	C89.467705,106.517929 90.864899,107.159706 92.605377,108.418137 
	C92.955559,210.374634 92.963165,311.714478 92.961487,413.054321 
	C92.961464,414.381897 92.843628,415.709473 92.780777,417.037048 
z"/>
<path fill="#223D4C" opacity="1.000000" stroke="none" 
	d="
M293.657898,92.965736 
	C295.427887,93.837303 297.197906,94.708878 298.967896,95.580444 
	C298.936523,95.854187 298.905151,96.127922 298.873810,96.401665 
	C292.760712,96.401665 286.647644,96.401665 279.869110,96.401665 
	C287.967804,92.852295 284.448181,85.972061 284.836609,80.306946 
	C285.256287,74.185410 284.952942,68.010910 284.884247,61.860413 
	C284.835327,57.477726 284.775757,57.478390 279.498901,56.419056 
	C280.858490,55.584671 281.688873,54.635937 282.524963,54.630920 
	C289.666656,54.588097 296.811462,54.636791 303.950989,54.824295 
	C308.043549,54.931778 311.459656,56.405167 312.858673,60.691605 
	C314.320892,65.171730 312.608673,70.803001 308.963928,73.789742 
	C304.277649,77.629982 298.990051,78.049370 296.147644,74.999321 
	C298.466309,73.952606 301.490631,73.433357 303.032867,71.639748 
	C304.418152,70.028648 304.665680,66.993408 304.549500,64.628922 
	C304.299194,59.533604 301.817993,58.027248 294.150848,58.159599 
	C292.890381,59.002537 292.068787,59.786407 292.061584,60.577717 
	C291.970978,70.501358 291.956390,80.426537 292.067444,90.349701 
	C292.077301,91.227539 293.103668,92.093994 293.657898,92.965736 
z"/>
<path fill="#233E4E" opacity="1.000000" stroke="none" 
	d="
M340.790649,492.069824 
	C340.783997,496.560059 340.777649,500.558380 340.780884,504.556702 
	C340.787872,513.245117 340.789856,513.245117 349.139679,514.050964 
	C345.791046,519.460938 342.591400,521.040344 337.576599,519.724426 
	C332.075104,518.280762 331.221283,513.976318 331.197632,509.217651 
	C331.166229,502.897522 331.189880,496.577118 331.189880,489.976166 
	C329.524414,489.623108 327.990295,489.297913 325.206879,488.707916 
	C333.941833,485.464172 330.546448,478.774567 331.227570,473.150696 
	C334.371521,471.904694 337.565918,470.638702 341.200989,469.198059 
	C341.200989,474.488525 341.200989,479.350983 341.200989,484.622650 
	C343.578156,484.622650 346.009674,484.622650 348.387573,484.622650 
	C348.946289,489.194824 348.921417,489.003387 345.317627,489.471497 
	C343.745514,489.675720 342.298920,490.846252 340.790649,492.069824 
z"/>
<path fill="#1F3A49" opacity="1.000000" stroke="none" 
	d="
M215.909012,86.909935 
	C215.896881,83.946045 216.032440,81.440239 215.833511,78.961273 
	C215.601883,76.074615 214.482651,73.830917 211.005692,73.799599 
	C207.520447,73.768204 205.652252,75.559303 205.528046,78.881775 
	C205.372925,83.030624 205.176941,87.246414 205.767883,91.321754 
	C206.011993,93.005264 208.254135,94.399040 209.903366,96.285942 
	C204.406525,96.285942 198.858185,96.285942 193.309845,96.285942 
	C193.259140,95.996819 193.208435,95.707703 193.157730,95.418579 
	C194.595215,94.845497 196.032715,94.272423 197.875153,93.537903 
	C197.875153,87.519997 198.167603,81.366722 197.688828,75.274048 
	C197.553223,73.548424 195.166153,71.999725 193.585495,70.097740 
	C196.961761,69.339134 200.718781,68.494980 204.896896,67.556206 
	C205.236023,69.271332 205.535645,70.786644 205.843048,72.341286 
	C206.147949,72.341286 206.579315,72.467003 206.707596,72.322914 
	C209.944092,68.687202 213.648300,66.591827 218.595764,68.739517 
	C223.597122,70.910614 223.326767,75.458534 223.421646,79.786057 
	C223.487244,82.777588 223.394714,85.772354 223.441895,88.764587 
	C223.488358,91.711365 222.574005,95.250992 228.639969,94.811119 
	C228.221329,95.293228 227.802689,95.775345 227.384048,96.257454 
	C223.661499,96.257454 219.938950,96.257454 215.908768,96.257454 
	C215.908768,93.584671 215.908768,90.482277 215.909012,86.909935 
z"/>
<path fill="#27404E" opacity="1.000000" stroke="none" 
	d="
M164.785156,90.971283 
	C161.168228,80.087143 163.283371,73.086723 171.117798,69.133942 
	C181.286453,64.003433 189.257187,69.325874 188.942627,81.944473 
	C183.183746,82.373878 177.320999,82.811020 171.453827,83.248497 
	C170.483292,91.393669 176.072952,94.501297 188.073349,92.243294 
	C187.643402,96.814575 183.884796,97.062355 180.926041,97.606735 
	C174.435394,98.800957 168.643967,97.547142 164.785156,90.971283 
M178.376816,79.406044 
	C182.118820,79.535965 181.150894,76.886925 180.763321,74.975662 
	C180.157745,71.989449 178.172012,70.356361 175.023087,70.928169 
	C170.438019,71.760750 170.609070,75.379143 170.345322,79.412994 
	C172.918839,79.412994 175.185547,79.412994 178.376816,79.406044 
z"/>
<path fill="#2D6B6A" opacity="1.000000" stroke="none" 
	d="
M465.477448,493.229279 
	C465.861603,490.703857 466.852051,488.565125 466.853577,486.425629 
	C466.930145,377.783447 466.927032,269.141235 466.918823,160.498993 
	C466.917572,144.003891 466.850311,127.508797 466.749146,110.558472 
	C467.169708,110.560272 468.012634,110.974113 468.073975,111.482285 
	C468.272369,113.126190 468.202759,114.804749 468.202789,116.469955 
	C468.205841,239.902451 468.205872,363.334930 468.203644,486.767426 
	C468.203613,488.599640 468.377777,490.471008 468.040192,492.242035 
	C467.927734,492.832062 466.466827,493.165070 465.477448,493.229279 
z"/>
<path fill="#6A6681" opacity="1.000000" stroke="none" 
	d="
M36.477539,78.038696 
	C36.900105,79.944153 37.016197,82.107018 37.016376,84.269890 
	C37.026943,209.867508 37.027924,335.465118 37.048790,461.532898 
	C36.689320,460.671051 35.979927,459.339233 35.979488,458.007111 
	C35.937725,331.932251 35.949795,205.857391 35.965252,79.782509 
	C35.965313,79.287033 36.064228,78.791573 36.477539,78.038696 
z"/>
<path fill="#1D3848" opacity="1.000000" stroke="none" 
	d="
M316.391693,514.196716 
	C318.354401,514.963379 320.317078,515.730042 322.279785,516.496765 
	C322.189606,516.910339 322.099457,517.323975 322.009308,517.737549 
	C315.076294,517.737549 308.143250,517.737549 301.091888,517.737549 
	C301.253265,516.904663 301.279755,516.329224 301.379456,516.316223 
	C307.114624,515.569092 307.377380,511.658752 307.036224,507.079132 
	C306.752625,503.271606 307.026215,499.425323 306.968048,495.597504 
	C306.903046,491.320404 308.369934,486.069885 300.246063,486.588074 
	C300.467010,486.035950 300.687958,485.483795 300.908875,484.931671 
	C305.330566,483.943695 309.752228,482.955750 314.582397,482.450836 
	C314.992279,491.704987 314.922516,500.477203 315.058136,509.246216 
	C315.083740,510.902863 315.926178,512.546875 316.391693,514.196716 
z"/>
<path fill="#203B4A" opacity="1.000000" stroke="none" 
	d="
M256.740204,59.003796 
	C259.504486,65.417183 262.268799,71.830566 264.888550,78.719322 
	C264.956390,79.348160 265.168793,79.501625 265.381165,79.655090 
	C265.381165,79.655090 265.235870,79.608604 265.198059,80.006180 
	C265.727997,81.269684 266.295685,82.135612 266.863403,83.001549 
	C267.545197,84.446701 268.226990,85.891861 268.693420,87.870087 
	C269.220856,89.603859 269.963684,90.804565 270.706512,92.005272 
	C270.804504,92.141205 270.902466,92.277145 270.836914,93.006302 
	C265.658936,96.260757 264.081940,95.746147 262.096466,91.052116 
	C261.624207,89.935631 260.637085,89.036934 259.886780,88.038055 
	C259.596436,87.549301 259.306061,87.060547 259.245483,86.094231 
	C258.927521,85.099983 258.379700,84.583305 257.831909,84.066620 
	C257.831909,84.066620 257.397308,84.082886 257.104370,83.849709 
	C256.543030,83.721359 256.274628,83.826187 256.006195,83.931015 
	C254.931610,83.983398 253.857010,84.035782 252.091537,83.733841 
	C250.069214,83.397186 248.737778,83.414856 247.406342,83.432526 
	C246.659058,83.567635 245.911789,83.702736 244.599396,83.570694 
	C243.705963,83.577759 243.377655,83.851967 243.049362,84.126175 
	C243.049362,84.126183 243.045609,84.038841 242.763214,84.001160 
	C242.679779,83.068993 242.594055,81.811333 243.151581,81.374268 
	C243.811386,80.857033 245.026230,81.047813 246.369064,80.846748 
	C247.487640,80.817825 248.237656,80.873848 249.194885,81.201843 
	C250.605362,81.292336 251.808640,81.110840 253.338242,80.846680 
	C254.106522,80.819359 254.548462,80.874710 255.160583,81.173645 
	C256.093140,81.113106 256.855469,80.808983 257.617828,80.504852 
	C257.160095,80.002129 256.702362,79.499397 256.042664,78.690254 
	C253.937317,74.278107 252.033951,70.172371 249.843445,65.845985 
	C249.688248,63.078251 249.820190,60.531162 249.952148,57.984077 
	C250.059387,57.413445 250.166611,56.842808 250.873840,56.110054 
	C253.229279,56.966553 254.984741,57.985172 256.740204,59.003796 
z"/>
<path fill="#1F3B4C" opacity="1.000000" stroke="none" 
	d="
M322.553833,58.086723 
	C321.093658,57.539658 319.633514,56.992592 318.171295,56.449898 
	C320.875153,53.812672 332.634003,53.682491 336.199158,56.423450 
	C334.711029,56.848518 333.377228,57.229507 331.381165,58.038727 
	C330.486572,59.064167 330.054657,59.660355 330.051575,60.258743 
	C330.000580,70.171379 329.966766,80.084602 330.051331,89.996651 
	C330.059692,90.977440 330.865173,91.951416 331.300720,92.928551 
	C332.876434,93.898720 334.452148,94.868889 337.131866,96.518791 
	C330.038208,96.518791 324.185730,96.518791 318.333282,96.518791 
	C318.207703,96.283981 318.082153,96.049164 317.956573,95.814354 
	C319.339539,95.091873 320.722504,94.369392 322.730835,93.151001 
	C323.526245,81.586815 323.711975,70.518669 323.809967,59.449745 
	C323.813965,58.999149 322.991333,58.541233 322.553833,58.086723 
z"/>
<path fill="#3C7773" opacity="1.000000" stroke="none" 
	d="
M409.666809,149.537399 
	C410.061340,151.164352 411.019409,153.242844 411.021179,155.322174 
	C411.096039,243.693680 411.085602,332.065277 411.085968,420.436859 
	C411.086029,432.585876 411.046509,444.735168 411.127625,456.883636 
	C411.141785,459.006256 411.666748,461.125427 411.945709,463.669647 
	C411.286530,462.820892 410.145447,461.574249 410.077637,460.271790 
	C409.844177,455.786774 409.984680,451.282196 409.984650,446.785095 
	C409.983948,350.513397 409.985046,254.241669 409.974670,157.969955 
	C409.974396,155.309753 409.850555,152.649536 409.666809,149.537399 
z"/>
<path fill="#5B5774" opacity="1.000000" stroke="none" 
	d="
M92.837669,417.446594 
	C92.843628,415.709473 92.961464,414.381897 92.961487,413.054321 
	C92.963165,311.714478 92.955559,210.374634 92.921501,108.573807 
	C93.302330,109.706825 94.066612,111.300621 94.067451,112.894829 
	C94.121826,215.611649 94.114258,318.328491 93.812538,421.530914 
	C93.342293,422.009186 93.171715,422.001923 93.001144,421.994629 
	C92.965622,420.615143 92.930092,419.235657 92.837669,417.446594 
z"/>
<path fill="#418784" opacity="1.000000" stroke="none" 
	d="
M365.650391,54.751717 
	C362.469086,54.010204 359.215790,52.938843 355.381622,51.676205 
	C355.269897,52.675793 354.987244,54.027370 354.987518,55.378895 
	C354.991394,74.873169 354.938263,94.368752 355.208527,113.859726 
	C355.236450,115.875824 356.889496,118.211624 358.424164,119.775177 
	C360.214355,121.599075 362.703278,122.737114 364.946533,124.508453 
	C361.892426,123.364090 358.650543,122.095512 355.733490,120.299416 
	C354.573975,119.585487 353.480042,117.710594 353.464081,116.351280 
	C353.204468,94.190590 353.119812,72.027832 353.021576,49.865417 
	C353.019684,49.437405 353.330505,49.007999 353.708557,48.025005 
	C357.776031,50.217030 361.677185,52.319447 365.650391,54.751717 
z"/>
<path fill="#263D49" opacity="1.000000" stroke="none" 
	d="
M249.715561,58.239334 
	C249.820190,60.531162 249.688248,63.078251 249.753098,66.200531 
	C248.482239,70.397987 246.912201,73.984291 245.618347,77.667618 
	C245.292130,78.596306 245.849274,79.835297 246.000488,80.931694 
	C245.026230,81.047813 243.811386,80.857033 243.151581,81.374268 
	C242.594055,81.811333 242.679779,83.068993 242.800095,84.024620 
	C241.967468,87.168251 240.815567,90.250740 239.593643,93.520622 
	C241.726501,94.218567 243.341919,94.747192 244.957352,95.275810 
	C244.912079,95.619484 244.866806,95.963150 244.821533,96.306816 
	C240.244339,96.306816 235.667160,96.306816 231.089966,96.306816 
	C236.403320,94.165474 237.115402,89.096672 238.871719,84.866440 
	C242.504700,76.116180 245.954086,67.289711 249.715561,58.239334 
z"/>
<path fill="#1B1354" opacity="1.000000" stroke="none" 
	d="
M148.318756,522.119385 
	C148.322311,520.828674 148.663422,519.762268 149.000443,518.354065 
	C148.996353,513.985718 148.996384,509.959229 148.999237,505.011047 
	C148.989594,500.721741 148.977142,497.354065 148.964691,493.986420 
	C148.967987,482.210510 149.124969,470.431000 148.847717,458.661713 
	C148.790771,456.243958 147.110535,453.864441 146.204636,451.069061 
	C149.694489,451.466888 150.628784,453.595490 150.582977,457.114594 
	C150.423035,469.395966 150.643616,481.682343 150.519318,494.534119 
	C150.455536,495.436462 150.592026,495.771545 150.728516,496.106598 
	C150.745651,497.765381 150.762802,499.424133 150.525543,501.734253 
	C150.477829,503.606049 150.684525,504.826508 150.891220,506.046997 
	C150.926910,510.878693 150.952957,515.710510 151.003540,520.542053 
	C151.021149,522.223450 151.054749,523.846130 148.318756,522.119385 
z"/>
<path fill="#223D4C" opacity="1.000000" stroke="none" 
	d="
M307.620697,464.574768 
	C312.442780,462.798218 315.619843,463.956482 316.546448,467.713898 
	C317.405029,471.195679 315.719818,473.587463 312.473419,474.532898 
	C309.050842,475.529572 306.405243,473.868042 305.758087,470.546722 
	C305.418060,468.801727 306.754730,466.730072 307.620697,464.574768 
z"/>
<path fill="#0D2736" opacity="1.000000" stroke="none" 
	d="
M293.703125,92.501434 
	C293.103668,92.093994 292.077301,91.227539 292.067444,90.349701 
	C291.956390,80.426537 291.970978,70.501358 292.061584,60.577717 
	C292.068787,59.786407 292.890381,59.002537 293.737549,58.129425 
	C294.010498,69.374809 293.879425,80.705978 293.703125,92.501434 
z"/>
<path fill="#263D49" opacity="1.000000" stroke="none" 
	d="
M259.915161,88.443481 
	C260.637085,89.036934 261.624207,89.935631 262.096466,91.052116 
	C264.081940,95.746147 265.658936,96.260757 270.857758,93.256775 
	C272.577332,93.748535 274.112579,94.583046 275.647827,95.417549 
	C275.637878,95.692711 275.627930,95.967873 275.617981,96.243034 
	C269.378326,96.243034 263.138641,96.243034 255.423584,96.243034 
	C258.118286,94.994179 259.608795,94.303398 261.411804,93.467804 
	C260.928436,91.947289 260.435974,90.398094 259.915161,88.443481 
z"/>
<path fill="#0D2736" opacity="1.000000" stroke="none" 
	d="
M268.792847,508.506897 
	C268.177368,507.627533 267.103882,506.292816 267.073059,504.934387 
	C266.907318,497.628143 267.000732,490.315979 267.006958,482.542358 
	C267.167694,482.000427 267.326202,481.921967 267.816956,482.112244 
	C268.298981,482.664490 268.520294,482.871399 268.813141,483.001801 
	C268.814087,491.348083 268.815063,499.694336 268.792847,508.506897 
z"/>
<path fill="#0C2431" opacity="1.000000" stroke="none" 
	d="
M322.573181,58.550018 
	C322.991333,58.541233 323.813965,58.999149 323.809967,59.449745 
	C323.711975,70.518669 323.526245,81.586815 323.003998,92.935669 
	C322.632050,81.815262 322.612305,70.414284 322.573181,58.550018 
z"/>
<path fill="#0C2431" opacity="1.000000" stroke="none" 
	d="
M331.336975,92.465408 
	C330.865173,91.951416 330.059692,90.977440 330.051331,89.996651 
	C329.966766,80.084602 330.000580,70.171379 330.051575,60.258743 
	C330.054657,59.660355 330.486572,59.064167 331.104645,58.270622 
	C331.451355,69.383614 331.412323,80.692940 331.336975,92.465408 
z"/>
<path fill="#122936" opacity="1.000000" stroke="none" 
	d="
M316.351135,513.709839 
	C315.926178,512.546875 315.083740,510.902863 315.058136,509.246216 
	C314.922516,500.477203 314.992279,491.704987 314.994507,482.464996 
	C315.476868,482.844543 316.366241,483.690460 316.371399,484.541809 
	C316.429626,494.101715 316.351807,503.662445 316.351135,513.709839 
z"/>
<path fill="#122936" opacity="1.000000" stroke="none" 
	d="
M291.346863,513.695007 
	C290.898987,512.528809 290.071869,510.883270 290.046936,509.225708 
	C289.915192,500.463867 289.985413,491.698975 289.991943,482.466370 
	C290.473236,482.911835 291.353485,483.822968 291.360596,484.740875 
	C291.433838,494.229980 291.366211,503.720184 291.346863,513.695007 
z"/>
<path fill="#317E7C" opacity="1.000000" stroke="none" 
	d="
M430.476593,89.731918 
	C426.083069,87.897797 421.573547,85.762329 417.051605,83.272583 
	C421.479645,85.089066 425.920135,87.259819 430.476593,89.731918 
z"/>
<path fill="#180D6B" opacity="1.000000" stroke="none" 
	d="
M73.024139,97.560715 
	C69.461861,96.128143 65.789238,94.347984 62.104156,92.210831 
	C65.699066,93.640266 69.306435,95.426704 73.024139,97.560715 
z"/>
<path fill="#263D49" opacity="1.000000" stroke="none" 
	d="
M256.692963,58.663681 
	C254.984741,57.985172 253.229279,56.966553 251.098297,55.920628 
	C254.336334,53.698475 254.559982,53.790241 256.692963,58.663681 
z"/>
<path fill="#180D6B" opacity="1.000000" stroke="none" 
	d="
M83.986496,103.585052 
	C81.792816,102.803162 79.453979,101.698090 77.097137,100.232574 
	C79.333199,101.002037 81.587265,102.131966 83.986496,103.585052 
z"/>
<path fill="#263D49" opacity="1.000000" stroke="none" 
	d="
M270.673889,91.690674 
	C269.963684,90.804565 269.220856,89.603859 268.705841,88.214111 
	C269.502869,89.142075 270.072083,90.259079 270.673889,91.690674 
z"/>
<path fill="#180D6B" opacity="1.000000" stroke="none" 
	d="
M87.985878,105.578888 
	C86.792175,105.483437 85.468819,105.047066 84.112961,104.232895 
	C85.339058,104.316055 86.597649,104.777016 87.985878,105.578888 
z"/>
<path fill="#1B1354" opacity="1.000000" stroke="none" 
	d="
M109.349487,430.643494 
	C108.416786,430.520020 107.273972,430.114838 106.074089,429.320190 
	C107.057800,429.407715 108.098587,429.884766 109.349487,430.643494 
z"/>
<path fill="#1B1354" opacity="1.000000" stroke="none" 
	d="
M135.083618,444.490570 
	C134.197968,444.406372 133.135574,444.045715 131.991699,443.316772 
	C132.909103,443.370361 133.907990,443.792236 135.083618,444.490570 
z"/>
<path fill="#1B1354" opacity="1.000000" stroke="none" 
	d="
M124.044632,438.561005 
	C123.176132,438.454559 122.134361,438.078003 121.044342,437.335754 
	C121.954521,437.410309 122.912941,437.850586 124.044632,438.561005 
z"/>
<path fill="#1B1354" opacity="1.000000" stroke="none" 
	d="
M146.106598,450.464844 
	C145.227234,450.377380 144.168259,450.024536 143.066071,449.297913 
	C143.990891,449.349243 144.958939,449.774353 146.106598,450.464844 
z"/>
<path fill="#1B1354" opacity="1.000000" stroke="none" 
	d="
M113.032486,432.570404 
	C112.162430,432.487396 111.125580,432.129120 110.005066,431.415833 
	C110.902832,431.472260 111.884262,431.883698 113.032486,432.570404 
z"/>
<path fill="#3C7773" opacity="1.000000" stroke="none" 
	d="
M412.003296,464.379761 
	C412.887604,464.434753 413.846130,464.800385 414.849640,465.502899 
	C413.955566,465.456696 413.016541,465.073578 412.003296,464.379761 
z"/>
<path fill="#1B1354" opacity="1.000000" stroke="none" 
	d="
M98.354240,424.641022 
	C97.404388,424.538483 96.257156,424.137299 95.015831,423.352631 
	C96.000114,423.426910 97.078484,423.884674 98.354240,424.641022 
z"/>
<path fill="#263D49" opacity="1.000000" stroke="none" 
	d="
M266.860016,82.689011 
	C266.295685,82.135612 265.727997,81.269684 265.263763,80.043289 
	C265.863708,80.580711 266.360168,81.478592 266.860016,82.689011 
z"/>
<path fill="#180D6B" opacity="1.000000" stroke="none" 
	d="
M58.082062,89.635605 
	C57.196373,89.504738 56.162426,89.070541 55.096691,88.266762 
	C56.021206,88.375534 56.977505,88.853905 58.082062,89.635605 
z"/>
<path fill="#263D49" opacity="1.000000" stroke="none" 
	d="
M247.663940,83.734955 
	C248.737778,83.414856 250.069214,83.397186 251.694366,83.654861 
	C250.632553,83.965927 249.277054,84.001663 247.663940,83.734955 
z"/>
<path fill="#263D49" opacity="1.000000" stroke="none" 
	d="
M257.949890,84.325409 
	C258.379700,84.583305 258.927521,85.099983 259.251038,85.803078 
	C258.707153,85.521057 258.387512,85.052628 257.949890,84.325409 
z"/>
<path fill="#767392" opacity="1.000000" stroke="none" 
	d="
M150.982742,505.635986 
	C150.684525,504.826508 150.477829,503.606049 150.500916,502.148254 
	C150.845200,503.015625 150.959732,504.120331 150.982742,505.635986 
z"/>
<path fill="#317E7C" opacity="1.000000" stroke="none" 
	d="
M416.946838,82.613174 
	C416.159210,82.793678 415.250458,82.639961 414.203094,82.159241 
	C414.984894,81.981140 415.905304,82.130043 416.946838,82.613174 
z"/>
<path fill="#1B1354" opacity="1.000000" stroke="none" 
	d="
M105.913269,428.690552 
	C105.189110,428.706024 104.305069,428.442078 103.404114,427.811371 
	C104.175934,427.766785 104.964668,428.088989 105.913269,428.690552 
z"/>
<path fill="#1B1354" opacity="1.000000" stroke="none" 
	d="
M116.898987,434.705933 
	C116.195389,434.697845 115.312721,434.430511 114.431122,433.795197 
	C115.194771,433.767029 115.957344,434.106873 116.898987,434.705933 
z"/>
<path fill="#1B1354" opacity="1.000000" stroke="none" 
	d="
M120.852448,436.735535 
	C120.159309,436.733124 119.277893,436.471924 118.360229,435.847961 
	C119.104042,435.815704 119.884102,436.146210 120.852448,436.735535 
z"/>
<path fill="#1B1354" opacity="1.000000" stroke="none" 
	d="
M131.449524,442.590515 
	C130.926407,442.666565 130.197067,442.457672 129.394775,441.856140 
	C129.962296,441.744202 130.602783,442.024872 131.449524,442.590515 
z"/>
<path fill="#180D6B" opacity="1.000000" stroke="none" 
	d="
M75.047432,98.638168 
	C74.567467,98.779762 73.958961,98.599442 73.200005,98.127426 
	C73.672668,97.995911 74.295776,98.156090 75.047432,98.638168 
z"/>
<path fill="#1B1354" opacity="1.000000" stroke="none" 
	d="
M142.927612,448.692871 
	C142.485779,448.785645 141.892822,448.605988 141.164993,448.133606 
	C141.612244,448.034088 142.194366,448.227264 142.927612,448.692871 
z"/>
<path fill="#1B1354" opacity="1.000000" stroke="none" 
	d="
M140.984192,447.634521 
	C140.532684,447.744904 139.926971,447.578339 139.178741,447.116333 
	C139.634140,446.999786 140.232056,447.178711 140.984192,447.634521 
z"/>
<path fill="#1B1354" opacity="1.000000" stroke="none" 
	d="
M138.990219,446.631165 
	C138.549591,446.721680 137.934708,446.552246 137.194244,446.072998 
	C137.651108,445.965851 138.233521,446.168518 138.990219,446.631165 
z"/>
<path fill="#1B1354" opacity="1.000000" stroke="none" 
	d="
M127.975189,440.648682 
	C127.525864,440.735535 126.919205,440.552246 126.199112,440.056396 
	C126.663071,439.955383 127.240463,440.166962 127.975189,440.648682 
z"/>
<path fill="#1B1354" opacity="1.000000" stroke="none" 
	d="
M126.038544,439.567261 
	C125.591171,439.675110 124.965790,439.522491 124.207657,439.057373 
	C124.670113,438.932190 125.265327,439.119507 126.038544,439.567261 
z"/>
<path fill="#1B1354" opacity="1.000000" stroke="none" 
	d="
M101.965584,426.660889 
	C101.526093,426.737183 100.920158,426.552612 100.199280,426.056274 
	C100.655945,425.962982 101.227539,426.181519 101.965584,426.660889 
z"/>
<path fill="#1B1354" opacity="1.000000" stroke="none" 
	d="
M137.034424,445.585022 
	C136.582077,445.674347 135.961212,445.499847 135.233185,445.000732 
	C135.705978,444.891144 136.285965,445.106140 137.034424,445.585022 
z"/>
<path fill="#213C4C" opacity="1.000000" stroke="none" 
	d="
M268.909607,482.693970 
	C268.520294,482.871399 268.298981,482.664490 268.077606,482.161682 
	C268.339325,482.090302 268.672699,482.238251 268.909607,482.693970 
z"/>
<path fill="#180D6B" opacity="1.000000" stroke="none" 
	d="
M60.081291,90.644882 
	C59.871632,90.793739 59.552395,90.635536 59.085983,90.248268 
	C59.283108,90.125412 59.627411,90.231621 60.081291,90.644882 
z"/>
<path fill="#767392" opacity="1.000000" stroke="none" 
	d="
M150.841537,495.798218 
	C150.592026,495.771545 150.455536,495.436462 150.504044,494.995239 
	C150.777557,495.089325 150.866058,495.289581 150.841537,495.798218 
z"/>
<path fill="#180D6B" opacity="1.000000" stroke="none" 
	d="
M62.062901,91.605850 
	C61.836952,91.773613 61.528881,91.623642 61.081211,91.251419 
	C61.287998,91.115479 61.634388,91.201797 62.062901,91.605850 
z"/>
<path fill="#263D49" opacity="1.000000" stroke="none" 
	d="
M265.380188,79.456543 
	C265.168793,79.501625 264.956390,79.348160 264.914429,79.093094 
	C265.084839,78.991486 265.379211,79.257996 265.380188,79.456543 
z"/>
<path fill="#180D6B" opacity="1.000000" stroke="none" 
	d="
M77.044060,99.629135 
	C76.825233,99.786903 76.522675,99.638710 76.080399,99.273735 
	C76.280571,99.145699 76.620445,99.234436 77.044060,99.629135 
z"/>
<path fill="#1B1354" opacity="1.000000" stroke="none" 
	d="
M93.203629,422.256042 
	C93.171715,422.001923 93.342293,422.009186 93.768097,421.996338 
	C94.160156,422.103638 94.296997,422.231110 94.548378,422.615662 
	C94.243988,422.754272 93.825050,422.635834 93.203629,422.256042 
z"/>
<path fill="#263D49" opacity="1.000000" stroke="none" 
	d="
M256.252319,84.002304 
	C256.274628,83.826187 256.543030,83.721359 256.900879,83.773148 
	C256.826294,83.977715 256.662354,84.025658 256.252319,84.002304 
z"/>
<path fill="#1B1354" opacity="1.000000" stroke="none" 
	d="
M100.110207,425.597839 
	C99.893089,425.744019 99.553665,425.625153 99.049622,425.281311 
	C99.252632,425.148468 99.620262,425.240631 100.110207,425.597839 
z"/>
<path fill="#263D49" opacity="1.000000" stroke="none" 
	d="
M243.376312,84.113815 
	C243.377655,83.851967 243.705963,83.577759 244.357697,83.393372 
	C244.355148,83.689285 244.029190,83.895378 243.376312,84.113815 
z"/>
<path fill="#1B1354" opacity="1.000000" stroke="none" 
	d="
M103.235298,427.281982 
	C103.041649,427.452820 102.673874,427.416534 102.164429,427.120941 
	C102.368904,426.932709 102.715034,427.003754 103.235298,427.281982 
z"/>
<path fill="#1B1354" opacity="1.000000" stroke="none" 
	d="
M114.257050,433.236145 
	C114.050934,433.408844 113.680275,433.367371 113.191147,433.046936 
	C113.412621,432.852661 113.752571,432.937317 114.257050,433.236145 
z"/>
<path fill="#1B1354" opacity="1.000000" stroke="none" 
	d="
M118.221802,435.350708 
	C118.023499,435.520386 117.659874,435.472229 117.148994,435.174805 
	C117.353325,434.994598 117.704910,435.063721 118.221802,435.350708 
z"/>
<path fill="#1B1354" opacity="1.000000" stroke="none" 
	d="
M129.240112,441.308472 
	C129.035553,441.481232 128.666840,441.433167 128.161438,441.121643 
	C128.375153,440.934692 128.725555,441.011200 129.240112,441.308472 
z"/>
<path fill="#180D6B" opacity="1.000000" stroke="none" 
	d="
M148.683945,494.279541 
	C148.977142,497.354065 148.989594,500.721741 148.995316,504.548279 
	C148.793457,501.528992 148.598328,498.050812 148.683945,494.279541 
z"/>
<path fill="#90CAC4" opacity="1.000000" stroke="none" 
	d="
M196.174728,390.869232 
	C165.113235,373.461823 145.363724,347.553131 137.505035,313.429016 
	C127.021355,267.906738 143.640915,221.673798 180.967407,193.111603 
	C205.002762,174.719772 232.420868,166.550583 262.370087,169.159622 
	C300.593445,172.489487 331.185730,190.233795 352.073364,222.638641 
	C374.250305,257.043701 377.897034,294.255310 362.247528,331.914093 
	C345.180756,372.983337 313.519775,397.177612 269.383057,404.044922 
	C243.747299,408.033661 219.382416,403.292999 196.174728,390.869232 
M196.614822,323.401398 
	C196.742920,315.624054 196.916229,307.846893 196.943695,300.069214 
	C196.947266,299.060333 196.197998,298.048859 195.460709,297.006653 
	C195.460709,297.006653 195.136520,296.910156 195.204956,296.095398 
	C195.375946,289.197266 190.991272,285.919708 183.821182,283.797363 
	C190.686066,281.983643 194.570953,278.914276 196.112228,272.700043 
	C196.408356,270.822968 196.992737,268.939362 196.950226,267.070007 
	C196.775742,259.399017 196.410355,251.732346 196.119598,243.356689 
	C199.536484,240.664246 202.953384,237.971817 207.844757,234.117523 
	C202.896317,234.420197 199.155380,234.428757 195.478806,234.919556 
	C187.722565,235.954956 184.209137,240.040024 183.568970,248.030334 
	C183.568970,248.030334 183.227798,248.042938 182.534256,248.528961 
	C182.356171,252.656876 181.973907,256.789093 182.060547,260.911438 
	C182.138657,264.627899 182.730286,268.333527 183.288879,272.682404 
	C183.213150,273.115295 183.137421,273.548157 182.717133,274.154083 
	C182.641693,274.256226 182.481445,274.417175 182.504776,274.450836 
	C182.642715,274.649719 182.823288,274.819000 183.175385,275.469604 
	C183.211792,275.634521 183.248199,275.799438 182.927536,276.591156 
	C179.446442,279.198547 175.965347,281.805969 171.919662,284.836243 
	C176.771484,285.854401 181.898849,286.310028 183.245239,292.690552 
	C183.178162,293.120331 183.111069,293.550110 182.433395,294.559448 
	C182.289230,301.682404 182.079422,308.805145 182.059052,315.928436 
	C182.055206,317.271484 182.805649,318.616669 183.549652,319.983795 
	C183.549652,319.983795 183.879257,320.076508 183.808029,320.891998 
	C184.830765,331.297211 196.682587,337.514282 206.149597,333.064392 
	C202.696823,330.073944 199.123062,326.978729 195.816391,323.859619 
	C195.816391,323.859619 196.040680,324.006592 196.614822,323.401398 
M320.114990,319.498657 
	C320.085266,319.329987 320.055511,319.161285 320.207916,318.070679 
	C320.231110,310.279022 320.177917,302.486115 320.305450,294.696167 
	C320.385284,289.821442 322.509857,286.481659 327.752686,285.733429 
	C329.021118,285.552399 330.224152,284.913086 332.395721,284.158295 
	C330.767578,283.045959 330.216125,282.416840 329.549957,282.252472 
	C321.437225,280.250275 320.310760,278.822266 320.245026,270.372803 
	C320.189636,263.250092 320.097046,256.127655 320.107544,248.501282 
	C320.045898,248.342422 319.984253,248.183548 320.000458,247.232330 
	C319.743774,241.947693 317.545135,237.826614 312.393555,236.027588 
	C307.411987,234.287918 302.268616,233.496475 297.069733,235.412979 
	C297.754883,236.560547 298.503479,237.065170 299.328888,237.333023 
	C307.030365,239.832123 308.066895,241.252701 308.079437,249.538834 
	C308.088226,255.364532 308.180725,261.192169 308.064789,267.015533 
	C307.907440,274.920624 309.515564,281.623932 319.252167,283.435822 
	C307.550293,288.913116 308.318329,292.507935 308.109283,302.301331 
	C307.985016,308.124451 308.097961,313.952332 308.074310,319.777954 
	C308.046021,326.744781 306.527832,328.690521 299.765717,330.880493 
	C298.709442,331.222565 297.820435,332.081055 296.854065,332.700775 
	C297.030518,333.196564 297.206940,333.692322 297.383362,334.188110 
	C301.302185,333.889587 305.289886,333.950714 309.125214,333.216248 
	C316.659180,331.773468 319.677002,327.827179 320.114990,319.498657 
M225.923645,293.569244 
	C229.634644,291.488586 231.985809,288.169037 230.565903,284.182617 
	C229.590302,281.443604 227.005142,278.578461 224.390594,277.294312 
	C220.882843,275.571472 217.258179,277.134613 214.828247,280.453094 
	C212.531357,283.589966 212.324799,286.924652 214.467209,290.182770 
	C217.062393,294.129395 220.728561,295.329773 225.923645,293.569244 
M251.419205,276.749084 
	C244.347046,277.695099 240.380447,282.907806 242.619598,288.514160 
	C244.263794,292.630829 247.437576,294.785980 251.919876,294.398376 
	C256.305206,294.019165 259.618835,290.494385 259.944153,286.257721 
	C260.289276,281.762268 257.578430,278.463226 251.419205,276.749084 
M271.622955,288.579193 
	C275.730988,295.388885 282.663269,296.603790 286.929779,291.172089 
	C289.571869,287.808441 289.764404,284.133698 287.317841,280.584381 
	C284.714722,276.807922 280.874634,275.752563 276.815277,277.403076 
	C272.335510,279.224518 270.370331,282.890747 271.622955,288.579193 
z"/>
<path fill="#FAFBFC" opacity="1.000000" stroke="none" 
	d="
M104.462227,59.347504 
	C111.916267,65.042267 111.276176,83.023354 107.502625,89.058708 
	C102.608932,96.885590 90.434937,96.610680 86.033562,88.224220 
	C81.896324,80.341072 81.660530,71.900620 85.077522,63.695038 
	C88.053749,56.547905 96.104073,54.809265 104.462227,59.347504 
z"/>
<path fill="#F2F5F7" opacity="1.000000" stroke="none" 
	d="
M136.307938,86.671494 
	C136.307587,84.223206 136.439362,82.213341 136.278397,80.227219 
	C135.994492,76.724297 137.104614,74.319969 140.872269,73.835236 
	C144.675323,73.345970 147.795105,74.734932 148.490387,78.570564 
	C149.095795,81.910439 148.990341,85.534927 148.401764,88.893951 
	C147.744583,92.644432 144.976212,94.504150 141.027847,93.932259 
	C137.084930,93.361168 135.832138,90.811859 136.307938,86.671494 
z"/>
<path fill="#EFF4F5" opacity="1.000000" stroke="none" 
	d="
M368.318665,485.311462 
	C374.739197,486.083649 376.367920,488.642090 375.720612,496.549744 
	C371.362701,496.549744 366.991882,496.549744 362.211182,496.549744 
	C362.609619,491.662201 362.302734,487.040863 368.318665,485.311462 
z"/>
<path fill="#F2F5F7" opacity="1.000000" stroke="none" 
	d="
M177.914551,79.409515 
	C175.185547,79.412994 172.918839,79.412994 170.345322,79.412994 
	C170.609070,75.379143 170.438019,71.760750 175.023087,70.928169 
	C178.172012,70.356361 180.157745,71.989449 180.763321,74.975662 
	C181.150894,76.886925 182.118820,79.535965 177.914551,79.409515 
z"/>
<path fill="#E9EEF0" opacity="1.000000" stroke="none" 
	d="
M246.369064,80.846748 
	C245.849274,79.835297 245.292130,78.596306 245.618347,77.667618 
	C246.912201,73.984291 248.482239,70.397987 250.040253,66.421173 
	C252.033951,70.172371 253.937317,74.278107 256.012787,79.001404 
	C255.786728,80.056000 255.388565,80.493027 254.990387,80.930054 
	C254.548462,80.874710 254.106522,80.819359 252.941406,80.759338 
	C251.141388,80.813065 250.064514,80.871460 248.987656,80.929863 
	C248.237656,80.873848 247.487640,80.817825 246.369064,80.846748 
z"/>
<path fill="#263D49" opacity="1.000000" stroke="none" 
	d="
M255.160583,81.173645 
	C255.388565,80.493027 255.786728,80.056000 256.214783,79.307816 
	C256.702362,79.499397 257.160095,80.002129 257.617828,80.504852 
	C256.855469,80.808983 256.093140,81.113106 255.160583,81.173645 
z"/>
<path fill="#263D49" opacity="1.000000" stroke="none" 
	d="
M249.194885,81.201843 
	C250.064514,80.871460 251.141388,80.813065 252.615082,80.842003 
	C251.808640,81.110840 250.605362,81.292336 249.194885,81.201843 
z"/>
<path fill="#183949" opacity="1.000000" stroke="none" 
	d="
M320.020905,249.005112 
	C320.097046,256.127655 320.189636,263.250092 320.245026,270.372803 
	C320.310760,278.822266 321.437225,280.250275 329.549957,282.252472 
	C330.216125,282.416840 330.767578,283.045959 332.395721,284.158295 
	C330.224152,284.913086 329.021118,285.552399 327.752686,285.733429 
	C322.509857,286.481659 320.385284,289.821442 320.305450,294.696167 
	C320.177917,302.486115 320.231110,310.279022 319.948120,318.613098 
	C319.613953,319.254059 319.456238,319.407776 319.478943,319.442047 
	C319.608368,319.637543 319.780762,319.804596 319.938568,319.981323 
	C319.677002,327.827179 316.659180,331.773468 309.125214,333.216248 
	C305.289886,333.950714 301.302185,333.889587 297.383362,334.188110 
	C297.206940,333.692322 297.030518,333.196564 296.854065,332.700775 
	C297.820435,332.081055 298.709442,331.222565 299.765717,330.880493 
	C306.527832,328.690521 308.046021,326.744781 308.074310,319.777954 
	C308.097961,313.952332 307.985016,308.124451 308.109283,302.301331 
	C308.318329,292.507935 307.550293,288.913116 319.252167,283.435822 
	C309.515564,281.623932 307.907440,274.920624 308.064789,267.015533 
	C308.180725,261.192169 308.088226,255.364532 308.079437,249.538834 
	C308.066895,241.252701 307.030365,239.832123 299.328888,237.333023 
	C298.503479,237.065170 297.754883,236.560547 297.069733,235.412979 
	C302.268616,233.496475 307.411987,234.287918 312.393555,236.027588 
	C317.545135,237.826614 319.743774,241.947693 319.806152,247.727448 
	C319.748169,248.483429 319.884521,248.744278 320.020905,249.005112 
z"/>
<path fill="#183849" opacity="1.000000" stroke="none" 
	d="
M183.898041,247.939499 
	C184.209137,240.040024 187.722565,235.954956 195.478806,234.919556 
	C199.155380,234.428757 202.896317,234.420197 207.844757,234.117523 
	C202.953384,237.971817 199.536484,240.664246 196.004364,243.697800 
	C195.889145,244.038910 195.689651,243.929672 195.328613,244.083023 
	C194.644806,251.844345 194.257477,259.450623 194.060242,267.061859 
	C194.025726,268.393646 194.790070,269.746124 195.242035,271.399872 
	C195.330948,272.128387 195.363297,272.546082 195.395660,272.963776 
	C194.570953,278.914276 190.686066,281.983643 183.821182,283.797363 
	C190.991272,285.919708 195.375946,289.197266 194.850723,296.788910 
	C194.341644,305.726013 194.157074,313.969391 194.098465,322.213654 
	C194.094543,322.766815 195.043518,323.326721 195.549286,323.883484 
	C199.123062,326.978729 202.696823,330.073944 206.149597,333.064392 
	C196.682587,337.514282 184.830765,331.297211 184.161835,320.198395 
	C184.670029,311.047852 184.864853,302.591064 184.904068,294.133606 
	C184.907318,293.436829 183.853973,292.735107 183.291550,292.035706 
	C181.898849,286.310028 176.771484,285.854401 171.919662,284.836243 
	C175.965347,281.805969 179.446442,279.198547 183.475983,276.160889 
	C184.350220,268.148132 184.752991,260.567596 184.941803,252.981735 
	C184.983383,251.310684 184.265961,249.620743 183.898041,247.939499 
z"/>
<path fill="#183949" opacity="1.000000" stroke="none" 
	d="
M225.581970,293.723694 
	C220.728561,295.329773 217.062393,294.129395 214.467209,290.182770 
	C212.324799,286.924652 212.531357,283.589966 214.828247,280.453094 
	C217.258179,277.134613 220.882843,275.571472 224.390594,277.294312 
	C227.005142,278.578461 229.590302,281.443604 230.565903,284.182617 
	C231.985809,288.169037 229.634644,291.488586 225.581970,293.723694 
z"/>
<path fill="#183949" opacity="1.000000" stroke="none" 
	d="
M251.823456,276.807983 
	C257.578430,278.463226 260.289276,281.762268 259.944153,286.257721 
	C259.618835,290.494385 256.305206,294.019165 251.919876,294.398376 
	C247.437576,294.785980 244.263794,292.630829 242.619598,288.514160 
	C240.380447,282.907806 244.347046,277.695099 251.823456,276.807983 
z"/>
<path fill="#183949" opacity="1.000000" stroke="none" 
	d="
M271.497528,288.209503 
	C270.370331,282.890747 272.335510,279.224518 276.815277,277.403076 
	C280.874634,275.752563 284.714722,276.807922 287.317841,280.584381 
	C289.764404,284.133698 289.571869,287.808441 286.929779,291.172089 
	C282.663269,296.603790 275.730988,295.388885 271.497528,288.209503 
z"/>
<path fill="#092D3B" opacity="1.000000" stroke="none" 
	d="
M183.268402,292.363129 
	C183.853973,292.735107 184.907318,293.436829 184.904068,294.133606 
	C184.864853,302.591064 184.670029,311.047852 184.197449,319.790649 
	C183.879257,320.076508 183.549652,319.983795 183.423309,319.507874 
	C183.212631,310.681244 183.128296,302.330566 183.043976,293.979889 
	C183.111069,293.550110 183.178162,293.120331 183.268402,292.363129 
z"/>
<path fill="#092D3B" opacity="1.000000" stroke="none" 
	d="
M183.733505,247.984924 
	C184.265961,249.620743 184.983383,251.310684 184.941803,252.981735 
	C184.752991,260.567596 184.350220,268.148132 183.654526,275.847473 
	C183.248199,275.799438 183.211792,275.634521 183.171021,274.984619 
	C183.131653,274.326782 183.096680,274.153931 183.061691,273.981049 
	C183.137421,273.548157 183.213150,273.115295 183.277863,271.897125 
	C183.253815,263.422211 183.240814,255.732574 183.227814,248.042938 
	C183.227798,248.042938 183.568970,248.030334 183.733505,247.984924 
z"/>
<path fill="#092D3B" opacity="1.000000" stroke="none" 
	d="
M195.682831,323.871552 
	C195.043518,323.326721 194.094543,322.766815 194.098465,322.213654 
	C194.157074,313.969391 194.341644,305.726013 194.816498,297.196289 
	C195.136520,296.910156 195.460709,297.006653 195.579117,297.486725 
	C195.811905,306.646729 195.926285,315.326660 196.040680,324.006592 
	C196.040680,324.006592 195.816391,323.859619 195.682831,323.871552 
z"/>
<path fill="#9ED4D1" opacity="1.000000" stroke="none" 
	d="
M195.753937,272.831909 
	C195.363297,272.546082 195.330948,272.128387 195.393875,270.998901 
	C195.556000,261.501312 195.622818,252.715500 195.689651,243.929672 
	C195.689651,243.929672 195.889145,244.038910 196.002167,244.051514 
	C196.410355,251.732346 196.775742,259.399017 196.950226,267.070007 
	C196.992737,268.939362 196.408356,270.822968 195.753937,272.831909 
z"/>
<path fill="#9ED4D1" opacity="1.000000" stroke="none" 
	d="
M196.327759,323.703979 
	C195.926285,315.326660 195.811905,306.646729 195.747482,297.502686 
	C196.197998,298.048859 196.947266,299.060333 196.943695,300.069214 
	C196.916229,307.846893 196.742920,315.624054 196.327759,323.703979 
z"/>
<path fill="#9ED4D1" opacity="1.000000" stroke="none" 
	d="
M182.738678,294.269653 
	C183.128296,302.330566 183.212631,310.681244 183.252502,319.496399 
	C182.805649,318.616669 182.055206,317.271484 182.059052,315.928436 
	C182.079422,308.805145 182.289230,301.682404 182.738678,294.269653 
z"/>
<path fill="#9ED4D1" opacity="1.000000" stroke="none" 
	d="
M182.881042,248.285950 
	C183.240814,255.732574 183.253815,263.422211 183.181122,271.577881 
	C182.730286,268.333527 182.138657,264.627899 182.060547,260.911438 
	C181.973907,256.789093 182.356171,252.656876 182.881042,248.285950 
z"/>
<path fill="#9ED4D1" opacity="1.000000" stroke="none" 
	d="
M182.889404,274.067566 
	C183.096680,274.153931 183.131653,274.326782 183.078079,274.748962 
	C182.823288,274.819000 182.642715,274.649719 182.504776,274.450836 
	C182.481445,274.417175 182.641693,274.256226 182.889404,274.067566 
z"/>
<path fill="#092D3B" opacity="1.000000" stroke="none" 
	d="
M320.064209,248.753204 
	C319.884521,248.744278 319.748169,248.483429 319.767212,248.123627 
	C319.984253,248.183548 320.045898,248.342422 320.064209,248.753204 
z"/>
<path fill="#092D3B" opacity="1.000000" stroke="none" 
	d="
M320.026794,319.739990 
	C319.780762,319.804596 319.608368,319.637543 319.478943,319.442047 
	C319.456238,319.407776 319.613953,319.254059 319.857025,319.074036 
	C320.055511,319.161285 320.085266,319.329987 320.026794,319.739990 
z"/>
<path fill="#092D3B" opacity="1.000000" stroke="none" 
	d="
M195.328613,244.083023 
	C195.622818,252.715500 195.556000,261.501312 195.337311,270.688110 
	C194.790070,269.746124 194.025726,268.393646 194.060242,267.061859 
	C194.257477,259.450623 194.644806,251.844345 195.328613,244.083023 
z"/>
</svg>