<svg version="1.1" id="Layer_1" xmlns="http://www.w3.org/2000/svg" xmlns:xlink="http://www.w3.org/1999/xlink" x="0px" y="0px"
	 width="100%" viewBox="0 0 818 880" enable-background="new 0 0 818 880" xml:space="preserve">
<path fill="#FEFEFE" opacity="1.000000" stroke="none" 
	d="
M819.000000,341.000000 
	C819.000000,521.333252 819.000000,701.166504 819.000000,880.999817 
	C546.333496,880.999878 273.667053,880.999878 1.000425,880.999939 
	C1.000283,587.666992 1.000283,294.333954 1.000142,1.000700 
	C273.666229,1.000467 546.332458,1.000467 818.999390,1.000233 
	C819.000000,114.166664 819.000000,227.333328 819.000000,341.000000 
M773.758606,136.194641 
	C773.021179,136.153046 772.283752,136.111435 771.045959,135.626724 
	C739.962769,118.866676 708.885498,102.095757 677.794739,85.349701 
	C647.970276,69.285690 618.131897,53.247490 587.902527,36.333599 
	C584.300354,35.014484 585.989624,38.113716 585.984314,38.999077 
	C585.890320,54.708382 585.930908,70.418709 586.019287,86.128380 
	C586.024719,87.102631 586.665649,88.073311 586.985413,88.980927 
	C586.985413,88.980927 586.919556,89.003128 587.074280,89.928734 
	C587.014465,95.260941 586.954651,100.593147 586.133667,106.358894 
	C586.277893,118.409103 586.422180,130.459320 586.420227,143.366852 
	C586.416870,146.651901 586.505676,149.940247 586.388000,153.221191 
	C586.223389,157.807297 588.656738,159.657257 593.508484,160.176697 
	C594.141846,160.707947 594.705933,161.367828 595.418701,161.751602 
	C613.561157,171.520752 631.732666,181.235748 649.869263,191.015732 
	C660.882080,196.954300 671.844849,202.985580 683.154907,209.777817 
	C683.421631,212.184235 683.921387,214.590622 683.921936,216.997086 
	C683.959290,391.606079 683.957031,566.215088 683.958618,740.824097 
	C683.958679,743.823120 683.889465,746.825867 684.033325,749.818176 
	C684.065491,750.487061 684.859985,751.119385 685.976807,751.988892 
	C698.443970,758.692078 710.931946,765.356934 723.373291,772.107727 
	C741.077271,781.714233 758.747070,791.383728 776.716614,801.788757 
	C778.833435,802.771057 780.950317,803.753296 783.952759,805.146484 
	C783.952759,800.417419 783.952759,796.949707 783.952698,793.481995 
	C783.951965,578.879211 783.951355,364.276459 783.949219,149.673676 
	C783.949219,148.007538 784.413696,146.128540 783.798157,144.728470 
	C783.005798,142.926483 781.340210,141.508469 779.991394,139.960281 
	C779.991394,139.960281 780.055542,139.944351 779.778931,139.381378 
	C779.194397,139.228561 778.609863,139.075745 777.996948,138.989426 
	C777.996948,138.989426 778.057007,138.949127 777.781555,138.376404 
	C777.199829,138.223709 776.618042,138.071014 775.987732,137.980896 
	C775.987732,137.980896 776.054077,137.938354 775.820496,137.343704 
	C775.228027,137.202438 774.635559,137.061172 773.994690,136.993591 
	C773.994690,136.993591 774.050720,136.927689 773.758606,136.194641 
M44.089607,750.912598 
	C47.615070,752.724548 51.140533,754.536560 54.967361,756.840698 
	C55.498806,757.050110 56.030251,757.259521 57.054005,757.956909 
	C64.927811,762.092834 72.801613,766.228760 81.086159,770.919800 
	C112.463249,787.828064 143.829651,804.756348 175.241699,821.599426 
	C177.320343,822.713989 179.746902,823.179688 182.650314,824.279785 
	C185.545029,825.838806 188.439758,827.397827 191.461090,829.619019 
	C193.363022,830.766052 195.264954,831.913086 197.280472,833.161743 
	C197.280472,833.161743 197.417892,833.095886 197.693008,833.762390 
	C200.136810,834.862000 202.580612,835.961670 205.677246,837.321533 
	C214.822403,842.441956 223.890335,847.708496 233.153595,852.605530 
	C236.512421,854.381165 237.042313,851.704529 237.028076,849.068848 
	C236.981293,840.407227 236.935669,831.745544 237.012909,822.142212 
	C237.046616,814.835876 237.178009,807.528381 237.090332,800.223511 
	C236.969299,790.140198 236.683044,780.058899 236.414459,769.045532 
	C236.350296,758.392700 236.117752,747.736633 236.317642,737.088745 
	C236.383316,733.588623 235.090225,731.735535 232.181442,730.175110 
	C201.094360,713.497253 170.050766,696.738342 139.048737,679.068787 
	C139.043243,501.696960 139.041077,324.325134 139.001465,146.953308 
	C139.000854,144.201920 138.538315,141.450623 137.968262,138.097855 
	C135.771194,136.951477 133.574127,135.805084 131.240250,134.828857 
	C131.240250,134.828857 131.321533,134.626205 131.036606,134.181946 
	C130.697861,134.171555 130.359100,134.161163 129.353012,133.841125 
	C119.108032,128.180191 108.881401,122.485725 98.613884,116.865967 
	C81.984673,107.764236 65.347534,98.676537 48.665424,89.672394 
	C45.865810,88.161308 42.822491,87.101738 39.187237,86.357391 
	C39.120937,87.351433 38.996597,88.345474 38.996536,89.339516 
	C38.982925,307.387085 38.976063,525.434631 39.012653,743.482178 
	C39.012913,745.039307 39.613815,746.596375 40.208584,748.733643 
	C41.366497,749.274414 42.524406,749.815247 44.089607,750.912598 
M634.069397,400.419067 
	C629.032837,385.030121 625.070801,369.181763 618.729309,354.350800 
	C606.634155,326.063507 588.639038,301.597717 565.939087,280.765503 
	C546.594238,263.012360 524.819153,248.943604 500.570099,238.756805 
	C476.801086,228.771667 452.099091,222.622086 426.324127,221.634918 
	C413.579529,221.146805 400.681854,220.944946 388.037872,222.315231 
	C362.176147,225.117996 337.379181,232.193420 313.933197,243.777374 
	C284.926666,258.108643 259.901154,277.397308 239.170654,302.304260 
	C210.352539,336.928223 193.254990,376.726196 188.146851,421.280090 
	C183.134689,464.996613 190.397217,506.964844 209.892548,546.630920 
	C226.421753,580.261902 249.833221,608.216431 280.179871,630.057007 
	C315.178314,655.245422 354.286072,669.549255 397.501862,672.397949 
	C437.477692,675.033081 475.350952,667.554871 511.454163,650.226501 
	C545.604736,633.835327 573.797607,610.147827 595.741943,579.617676 
	C620.437500,545.260010 634.894470,506.931580 637.793030,464.167969 
	C639.236694,442.868286 637.825012,422.092377 634.069397,400.419067 
z"/>
<path fill="#02B4AF" opacity="1.000000" stroke="none" 
	d="
M588.299622,37.197941 
	C618.131897,53.247490 647.970276,69.285690 677.794739,85.349701 
	C708.885498,102.095757 739.962769,118.866676 771.523071,136.137634 
	C772.683716,136.741577 773.367249,136.834625 774.050720,136.927689 
	C774.050720,136.927689 773.994690,136.993591 774.065918,137.298126 
	C774.776062,137.714554 775.415100,137.826447 776.054077,137.938354 
	C776.054077,137.938354 775.987732,137.980896 776.059692,138.291687 
	C776.773376,138.718033 777.415222,138.833572 778.057007,138.949127 
	C778.057007,138.949127 777.996948,138.989426 778.065186,139.297562 
	C778.774109,139.718582 779.414856,139.831467 780.055542,139.944351 
	C780.055542,139.944351 779.991394,139.960281 779.962524,140.336945 
	C780.585876,143.043335 781.808228,145.372849 781.809204,147.702835 
	C781.894470,363.544464 781.873108,579.386108 781.979126,795.227722 
	C781.981262,799.581421 780.713379,801.410889 776.431458,801.026367 
	C758.747070,791.383728 741.077271,781.714233 723.373291,772.107727 
	C710.931946,765.356934 698.443970,758.692078 685.568298,751.434204 
	C685.130005,748.547424 685.074219,746.215210 685.074158,743.883057 
	C685.070801,570.764587 685.072021,397.646088 685.072205,224.527618 
	C685.072205,220.528732 685.236267,216.517853 684.958191,212.538116 
	C684.872192,211.306946 683.573547,210.160477 682.830139,208.975220 
	C671.844849,202.985580 660.882080,196.954300 649.869263,191.015732 
	C631.732666,181.235748 613.561157,171.520752 595.418701,161.751602 
	C594.705933,161.367828 594.141846,160.707947 593.129456,159.645004 
	C589.394165,156.854889 588.685791,153.716614 588.730042,149.758270 
	C588.937988,131.161575 588.873047,112.560966 588.743408,93.962891 
	C588.731812,92.305481 587.555115,90.656197 586.919556,89.003128 
	C586.919556,89.003128 586.985413,88.980927 587.011780,88.541290 
	C587.047058,73.008148 587.013184,57.914337 587.119263,42.821507 
	C587.132507,40.944309 587.888000,39.072330 588.299622,37.197941 
z"/>
<path fill="#120380" opacity="1.000000" stroke="none" 
	d="
M197.417892,833.095886 
	C197.417892,833.095886 197.280472,833.161743 197.174988,832.804321 
	C196.731735,831.957458 196.393997,831.468018 196.009857,830.657593 
	C194.958191,829.894226 193.952896,829.451843 192.679016,828.990479 
	C192.051773,828.966614 191.693130,828.961731 191.334473,828.956848 
	C188.439758,827.397827 185.545029,825.838806 182.281677,823.765991 
	C181.142548,822.451355 180.511719,821.392700 179.580658,820.888245 
	C165.780502,813.411499 151.954773,805.981506 138.102829,798.601013 
	C132.697647,795.721069 127.215805,792.984741 121.762413,790.195618 
	C108.534706,783.430542 95.303223,776.672791 81.943100,769.707947 
	C81.601219,769.251038 81.345558,769.055786 80.962479,768.569702 
	C76.803619,765.951843 72.773109,763.596313 68.638214,761.440979 
	C65.515358,759.813293 62.259007,758.441650 58.977600,756.605347 
	C57.610878,755.804932 56.328659,755.355286 54.961449,754.559448 
	C51.612610,752.774353 48.348766,751.335449 44.951569,749.695618 
	C44.604908,749.245544 44.349583,749.051697 43.933193,748.670654 
	C43.544781,747.963196 43.275417,747.498291 43.004387,746.562683 
	C43.002720,527.532959 43.002720,308.973969 43.002720,89.756828 
	C57.994625,97.931366 71.882019,105.496704 85.762451,113.074783 
	C93.842957,117.486366 101.821701,122.095520 110.014664,126.286499 
	C116.871559,129.794037 123.972984,132.823532 131.135681,136.369400 
	C134.489868,139.151535 135.088348,142.408356 135.086304,146.346298 
	C134.995026,321.572784 135.007370,496.799347 135.007935,672.025879 
	C135.007935,673.524963 134.795837,675.070129 135.098007,676.506531 
	C135.292755,677.432312 136.247284,678.198303 136.978897,679.255859 
	C137.294113,679.777771 137.573074,679.937988 137.929855,680.025513 
	C137.926315,680.094421 137.966980,680.226257 138.017395,680.557739 
	C139.549362,682.149414 140.863068,683.723083 142.538834,684.620850 
	C156.891144,692.310303 171.374466,699.756653 185.688858,707.515076 
	C199.814331,715.171204 213.715286,723.243347 227.879242,730.825684 
	C231.593964,732.814270 233.146301,735.007568 233.113541,739.323730 
	C232.917572,765.133667 232.970901,790.946045 233.094360,816.756897 
	C233.104370,818.851990 234.266479,820.941650 234.943390,823.229980 
	C234.993530,823.426147 235.051498,823.827515 235.028198,824.306519 
	C235.004913,833.016235 235.004913,841.247009 235.004913,850.674988 
	C229.277740,847.567139 224.722183,844.950562 220.037094,842.591064 
	C214.764084,839.935547 209.374298,837.511902 203.658325,834.934814 
	C201.326843,834.286804 199.372375,833.691345 197.417892,833.095886 
z"/>
<path fill="#1C3847" opacity="1.000000" stroke="none" 
	d="
M634.116821,400.843201 
	C637.825012,422.092377 639.236694,442.868286 637.793030,464.167969 
	C634.894470,506.931580 620.437500,545.260010 595.741943,579.617676 
	C573.797607,610.147827 545.604736,633.835327 511.454163,650.226501 
	C475.350952,667.554871 437.477692,675.033081 397.501862,672.397949 
	C354.286072,669.549255 315.178314,655.245422 280.179871,630.057007 
	C249.833221,608.216431 226.421753,580.261902 209.892548,546.630920 
	C190.397217,506.964844 183.134689,464.996613 188.146851,421.280090 
	C193.254990,376.726196 210.352539,336.928223 239.170654,302.304260 
	C259.901154,277.397308 284.926666,258.108643 313.933197,243.777374 
	C337.379181,232.193420 362.176147,225.117996 388.037872,222.315231 
	C400.681854,220.944946 413.579529,221.146805 426.324127,221.634918 
	C452.099091,222.622086 476.801086,228.771667 500.570099,238.756805 
	C524.819153,248.943604 546.594238,263.012360 565.939087,280.765503 
	C588.639038,301.597717 606.634155,326.063507 618.729309,354.350800 
	C625.070801,369.181763 629.032837,385.030121 634.116821,400.843201 
M616.517151,433.391357 
	C614.180298,419.528870 613.096191,405.310333 609.275696,391.869537 
	C596.953247,348.518524 573.088745,312.457611 537.078552,285.087860 
	C499.733978,256.703949 457.469238,242.194229 410.364807,243.095825 
	C399.465424,243.304413 388.520294,244.526703 377.725800,246.146271 
	C349.639923,250.360123 323.789856,260.911896 300.272003,276.542877 
	C270.119293,296.583679 246.599045,322.886505 230.313278,355.372253 
	C215.891998,384.138855 208.217590,414.675781 208.871078,446.858490 
	C209.176254,461.888306 210.492432,477.135315 213.588898,491.811615 
	C217.621582,510.925415 224.840775,529.136353 234.472260,546.361511 
	C246.536880,567.938171 261.831482,586.871704 280.624939,602.700989 
	C306.878601,624.813843 336.830566,640.014343 370.740417,646.473022 
	C383.857452,648.971375 397.195282,650.387390 410.474762,651.933594 
	C422.999146,653.391846 435.117310,649.861023 447.331146,648.010986 
	C472.773987,644.156982 496.431244,635.072876 518.360596,621.761841 
	C544.716492,605.763916 566.549805,584.899841 583.413818,558.996948 
	C599.251770,534.670044 609.598755,508.186127 614.230652,479.510712 
	C615.277954,473.026733 616.095032,466.505524 617.620544,459.419739 
	C617.432373,450.945190 617.244202,442.470612 616.517151,433.391357 
z"/>
<path fill="#160B5F" opacity="1.000000" stroke="none" 
	d="
M130.966125,136.064713 
	C123.972984,132.823532 116.871559,129.794037 110.014664,126.286499 
	C101.821701,122.095520 93.842957,117.486366 85.762451,113.074783 
	C71.882019,105.496704 57.994625,97.931366 43.002720,89.756828 
	C43.002720,308.973969 43.002720,527.532959 42.746208,746.456177 
	C42.008495,746.541016 41.527287,746.261658 41.023388,745.515625 
	C40.999653,529.070007 40.999115,313.091034 40.992378,97.112045 
	C40.992283,94.113937 40.914246,91.115837 40.830521,87.806137 
	C40.489563,86.940880 40.190670,86.387207 39.891773,85.833542 
	C42.822491,87.101738 45.865810,88.161308 48.665424,89.672394 
	C65.347534,98.676537 81.984673,107.764236 98.613884,116.865967 
	C108.881401,122.485725 119.108032,128.180191 129.851074,134.189255 
	C130.673264,134.566986 130.997391,134.596603 131.321533,134.626221 
	C131.321533,134.626205 131.240250,134.828857 131.182770,135.088623 
	C131.072220,135.587173 131.019165,135.825943 130.966125,136.064713 
z"/>
<path fill="#44706D" opacity="1.000000" stroke="none" 
	d="
M776.574036,801.407593 
	C780.713379,801.410889 781.981262,799.581421 781.979126,795.227722 
	C781.873108,579.386108 781.894470,363.544464 781.809204,147.702835 
	C781.808228,145.372849 780.585876,143.043335 779.992188,140.319336 
	C781.340210,141.508469 783.005798,142.926483 783.798157,144.728470 
	C784.413696,146.128540 783.949219,148.007538 783.949219,149.673676 
	C783.951355,364.276459 783.951965,578.879211 783.952698,793.481995 
	C783.952759,796.949707 783.952759,800.417419 783.952759,805.146484 
	C780.950317,803.753296 778.833435,802.771057 776.574036,801.407593 
z"/>
<path fill="#180C60" opacity="1.000000" stroke="none" 
	d="
M131.135681,136.369400 
	C131.019165,135.825943 131.072220,135.587173 131.251175,135.003540 
	C133.574127,135.805084 135.771194,136.951477 138.029221,138.434601 
	C138.090179,138.771362 137.979736,138.954300 137.646027,139.215088 
	C137.211304,141.628418 137.021973,143.780975 137.021835,145.933517 
	C137.010803,321.138641 137.015137,496.343750 137.010635,671.548889 
	C137.010559,674.044556 136.913223,676.540222 136.861282,679.035889 
	C136.247284,678.198303 135.292755,677.432312 135.098007,676.506531 
	C134.795837,675.070129 135.007935,673.524963 135.007935,672.025879 
	C135.007370,496.799347 134.995026,321.572784 135.086304,146.346298 
	C135.088348,142.408356 134.489868,139.151535 131.135681,136.369400 
z"/>
<path fill="#5D5970" opacity="1.000000" stroke="none" 
	d="
M39.539505,86.095467 
	C40.190670,86.387207 40.489563,86.940880 40.555229,88.097855 
	C40.214127,90.684509 40.011887,92.667847 40.011761,94.651207 
	C39.998241,310.005188 39.999599,525.359192 40.004494,740.713196 
	C40.004543,742.877625 40.063148,745.041992 40.091652,747.449463 
	C40.088882,747.692566 39.934254,748.153442 39.934258,748.153442 
	C39.613815,746.596375 39.012913,745.039307 39.012653,743.482178 
	C38.976063,525.434631 38.982925,307.387085 38.996536,89.339516 
	C38.996597,88.345474 39.120937,87.351433 39.539505,86.095467 
z"/>
<path fill="#003736" opacity="1.000000" stroke="none" 
	d="
M682.992554,209.376526 
	C683.573547,210.160477 684.872192,211.306946 684.958191,212.538116 
	C685.236267,216.517853 685.072205,220.528732 685.072205,224.527618 
	C685.072021,397.646088 685.070801,570.764587 685.074158,743.883057 
	C685.074219,746.215210 685.130005,748.547424 685.231628,751.324036 
	C684.859985,751.119385 684.065491,750.487061 684.033325,749.818176 
	C683.889465,746.825867 683.958679,743.823120 683.958618,740.824097 
	C683.957031,566.215088 683.959290,391.606079 683.921936,216.997086 
	C683.921387,214.590622 683.421631,212.184235 682.992554,209.376526 
z"/>
<path fill="#3F3C51" opacity="1.000000" stroke="none" 
	d="
M138.190765,138.735321 
	C138.538315,141.450623 139.000854,144.201920 139.001465,146.953308 
	C139.041077,324.325134 139.043243,501.696960 138.761612,679.576233 
	C138.305313,680.131226 138.136154,680.178711 137.966980,680.226257 
	C137.966980,680.226257 137.926315,680.094421 137.960159,679.563782 
	C137.989243,499.006866 137.984482,318.980591 137.979736,138.954300 
	C137.979736,138.954300 138.090179,138.771362 138.190765,138.735321 
z"/>
<path fill="#1C135D" opacity="1.000000" stroke="none" 
	d="
M138.017395,680.557739 
	C138.136154,680.178711 138.305313,680.131226 138.734863,680.042725 
	C170.050766,696.738342 201.094360,713.497253 232.181442,730.175110 
	C235.090225,731.735535 236.383316,733.588623 236.317642,737.088745 
	C236.117752,747.736633 236.350296,758.392700 236.070679,769.730835 
	C235.559464,772.208679 235.261566,774.000061 235.244980,775.794006 
	C235.099243,791.540344 235.003677,807.287170 234.893250,823.033813 
	C234.266479,820.941650 233.104370,818.851990 233.094360,816.756897 
	C232.970901,790.946045 232.917572,765.133667 233.113541,739.323730 
	C233.146301,735.007568 231.593964,732.814270 227.879242,730.825684 
	C213.715286,723.243347 199.814331,715.171204 185.688858,707.515076 
	C171.374466,699.756653 156.891144,692.310303 142.538834,684.620850 
	C140.863068,683.723083 139.549362,682.149414 138.017395,680.557739 
z"/>
<path fill="#28205E" opacity="1.000000" stroke="none" 
	d="
M82.073273,769.912048 
	C95.303223,776.672791 108.534706,783.430542 121.762413,790.195618 
	C127.215805,792.984741 132.697647,795.721069 138.102829,798.601013 
	C151.954773,805.981506 165.780502,813.411499 179.580658,820.888245 
	C180.511719,821.392700 181.142548,822.451355 181.962341,823.599731 
	C179.746902,823.179688 177.320343,822.713989 175.241699,821.599426 
	C143.829651,804.756348 112.463249,787.828064 80.982330,770.528687 
	C80.878510,770.137634 81.085175,769.913757 81.332230,769.934204 
	C81.579292,769.954712 82.073273,769.912048 82.073273,769.912048 
z"/>
<path fill="#246461" opacity="1.000000" stroke="none" 
	d="
M586.996948,89.465935 
	C587.555115,90.656197 588.731812,92.305481 588.743408,93.962891 
	C588.873047,112.560966 588.937988,131.161575 588.730042,149.758270 
	C588.685791,153.716614 589.394165,156.854889 592.829346,159.442108 
	C588.656738,159.657257 586.223389,157.807297 586.388000,153.221191 
	C586.505676,149.940247 586.416870,146.651901 586.628906,142.444702 
	C586.856689,129.656830 586.875732,117.791092 586.894775,105.925354 
	C586.954651,100.593147 587.014465,95.260941 586.996948,89.465935 
z"/>
<path fill="#1C135D" opacity="1.000000" stroke="none" 
	d="
M204.035339,834.987366 
	C209.374298,837.511902 214.764084,839.935547 220.037094,842.591064 
	C224.722183,844.950562 229.277740,847.567139 235.004913,850.674988 
	C235.004913,841.247009 235.004913,833.016235 235.280334,824.279053 
	C236.000381,823.543152 236.444992,823.313538 236.889587,823.083923 
	C236.935669,831.745544 236.981293,840.407227 237.028076,849.068848 
	C237.042313,851.704529 236.512421,854.381165 233.153595,852.605530 
	C223.890335,847.708496 214.822403,842.441956 205.230576,836.929810 
	C204.534378,836.021118 204.284851,835.504272 204.035339,834.987366 
z"/>
<path fill="#767192" opacity="1.000000" stroke="none" 
	d="
M236.951263,822.613037 
	C236.444992,823.313538 236.000381,823.543152 235.303635,823.800110 
	C235.051498,823.827515 234.993530,823.426147 234.943390,823.229980 
	C235.003677,807.287170 235.099243,791.540344 235.244980,775.794006 
	C235.261566,774.000061 235.559464,772.208679 236.097229,770.196411 
	C236.683044,780.058899 236.969299,790.140198 237.090332,800.223511 
	C237.178009,807.528381 237.046616,814.835876 236.951263,822.613037 
z"/>
<path fill="#022C28" opacity="1.000000" stroke="none" 
	d="
M588.101074,36.765770 
	C587.888000,39.072330 587.132507,40.944309 587.119263,42.821507 
	C587.013184,57.914337 587.047058,73.008148 587.024536,88.573654 
	C586.665649,88.073311 586.024719,87.102631 586.019287,86.128380 
	C585.930908,70.418709 585.890320,54.708382 585.984314,38.999077 
	C585.989624,38.113716 584.300354,35.014484 588.101074,36.765770 
z"/>
<path fill="#28205E" opacity="1.000000" stroke="none" 
	d="
M59.062099,756.955994 
	C62.259007,758.441650 65.515358,759.813293 68.638214,761.440979 
	C72.773109,763.596313 76.803619,765.951843 80.952362,768.819824 
	C81.025711,769.418335 81.085175,769.913757 81.085175,769.913757 
	C81.085175,769.913757 80.878510,770.137634 80.776962,770.251160 
	C72.801613,766.228760 64.927811,762.092834 56.929688,757.582275 
	C56.805370,757.207642 57.042011,756.940063 57.377838,756.959839 
	C58.163143,756.971741 58.612625,756.963867 59.062099,756.955994 
z"/>
<path fill="#697F7C" opacity="1.000000" stroke="none" 
	d="
M586.514221,106.142120 
	C586.875732,117.791092 586.856689,129.656830 586.702026,142.016052 
	C586.422180,130.459320 586.277893,118.409103 586.514221,106.142120 
z"/>
<path fill="#28205E" opacity="1.000000" stroke="none" 
	d="
M45.084927,749.896484 
	C48.348766,751.335449 51.612610,752.774353 54.951019,754.812988 
	C55.045803,755.580017 55.066013,755.747253 54.980865,756.022705 
	C54.875507,756.130859 54.665997,756.348511 54.665997,756.348511 
	C51.140533,754.536560 47.615070,752.724548 43.986626,750.521973 
	C43.883644,750.131409 44.088692,749.910034 44.338058,749.929077 
	C44.753262,749.930847 44.919098,749.913635 45.084927,749.896484 
z"/>
<path fill="#312B5A" opacity="1.000000" stroke="none" 
	d="
M203.658325,834.934814 
	C204.284851,835.504272 204.534378,836.021118 204.904160,836.799683 
	C202.580612,835.961670 200.136810,834.862000 197.555450,833.429138 
	C199.372375,833.691345 201.326843,834.286804 203.658325,834.934814 
z"/>
<path fill="#312B5A" opacity="1.000000" stroke="none" 
	d="
M191.397781,829.287964 
	C191.693130,828.961731 192.051773,828.966614 192.834091,829.279480 
	C194.190598,830.051147 195.123428,830.514832 196.056244,830.978577 
	C196.393997,831.468018 196.731735,831.957458 197.118195,832.753540 
	C195.264954,831.913086 193.363022,830.766052 191.397781,829.287964 
z"/>
<path fill="#28205E" opacity="1.000000" stroke="none" 
	d="
M40.071419,748.443542 
	C39.934254,748.153442 40.088882,747.692566 40.292114,747.279907 
	C40.678925,746.572205 40.862503,746.277283 41.046082,745.982300 
	C41.527287,746.261658 42.008495,746.541016 42.747879,746.926941 
	C43.275417,747.498291 43.544781,747.963196 43.921471,748.921021 
	C44.028797,749.414001 44.088692,749.910034 44.088692,749.910034 
	C44.088692,749.910034 43.883644,750.131409 43.782982,750.243774 
	C42.524406,749.815247 41.366497,749.274414 40.071419,748.443542 
z"/>
<path fill="#28205E" opacity="1.000000" stroke="none" 
	d="
M56.683533,757.338257 
	C56.030251,757.259521 55.498806,757.050110 54.816681,756.594604 
	C54.665997,756.348511 54.875507,756.130859 55.261639,756.078735 
	C56.112511,756.331116 56.577255,756.635620 57.042007,756.940063 
	C57.042011,756.940063 56.805370,757.207642 56.683533,757.338257 
z"/>
<path fill="#44706D" opacity="1.000000" stroke="none" 
	d="
M779.917236,139.662872 
	C779.414856,139.831467 778.774109,139.718582 778.079346,139.264313 
	C778.609863,139.075745 779.194397,139.228561 779.917236,139.662872 
z"/>
<path fill="#44706D" opacity="1.000000" stroke="none" 
	d="
M777.919312,138.662766 
	C777.415222,138.833572 776.773376,138.718033 776.083984,138.260406 
	C776.618042,138.071014 777.199829,138.223709 777.919312,138.662766 
z"/>
<path fill="#44706D" opacity="1.000000" stroke="none" 
	d="
M775.937256,137.641022 
	C775.415100,137.826447 774.776062,137.714554 774.090088,137.261276 
	C774.635559,137.061172 775.228027,137.202438 775.937256,137.641022 
z"/>
<path fill="#44706D" opacity="1.000000" stroke="none" 
	d="
M773.904663,136.561157 
	C773.367249,136.834625 772.683716,136.741577 771.773315,136.359192 
	C772.283752,136.111435 773.021179,136.153046 773.904663,136.561157 
z"/>
<path fill="#180C60" opacity="1.000000" stroke="none" 
	d="
M131.179077,134.404083 
	C130.997391,134.596603 130.673264,134.566986 130.184738,134.344086 
	C130.359100,134.161163 130.697861,134.171555 131.179077,134.404083 
z"/>
<path fill="#746D99" opacity="1.000000" stroke="none" 
	d="
M137.646027,139.215088 
	C137.984482,318.980591 137.989243,499.006866 137.963699,679.494873 
	C137.573074,679.937988 137.294113,679.777771 136.978897,679.255859 
	C136.913223,676.540222 137.010559,674.044556 137.010635,671.548889 
	C137.015137,496.343750 137.010803,321.138641 137.021835,145.933517 
	C137.021973,143.780975 137.211304,141.628418 137.646027,139.215088 
z"/>
<path fill="#1C135D" opacity="1.000000" stroke="none" 
	d="
M196.009857,830.657593 
	C195.123428,830.514832 194.190598,830.051147 193.102692,829.298462 
	C193.952896,829.451843 194.958191,829.894226 196.009857,830.657593 
z"/>
<path fill="#160B5F" opacity="1.000000" stroke="none" 
	d="
M57.377831,756.959839 
	C56.577255,756.635620 56.112511,756.331116 55.366997,755.970581 
	C55.066013,755.747253 55.045803,755.580017 55.036015,755.159180 
	C56.328659,755.355286 57.610878,755.804932 58.977600,756.605347 
	C58.612625,756.963867 58.163143,756.971741 57.377831,756.959839 
z"/>
<path fill="#160B5F" opacity="1.000000" stroke="none" 
	d="
M44.338058,749.929077 
	C44.088692,749.910034 44.028797,749.414001 44.040520,749.163574 
	C44.349583,749.051697 44.604908,749.245544 44.951569,749.695618 
	C44.919098,749.913635 44.753262,749.930847 44.338058,749.929077 
z"/>
<path fill="#160B5F" opacity="1.000000" stroke="none" 
	d="
M81.332230,769.934204 
	C81.085175,769.913757 81.025711,769.418335 81.035828,769.168213 
	C81.345558,769.055786 81.601219,769.251038 81.943100,769.707947 
	C82.073273,769.912048 81.579292,769.954712 81.332230,769.934204 
z"/>
<path fill="#90CBC5" opacity="1.000000" stroke="none" 
	d="
M617.018066,460.001465 
	C616.095032,466.505524 615.277954,473.026733 614.230652,479.510712 
	C609.598755,508.186127 599.251770,534.670044 583.413818,558.996948 
	C566.549805,584.899841 544.716492,605.763916 518.360596,621.761841 
	C496.431244,635.072876 472.773987,644.156982 447.331146,648.010986 
	C435.117310,649.861023 422.999146,653.391846 410.474762,651.933594 
	C397.195282,650.387390 383.857452,648.971375 370.740417,646.473022 
	C336.830566,640.014343 306.878601,624.813843 280.624939,602.700989 
	C261.831482,586.871704 246.536880,567.938171 234.472260,546.361511 
	C224.840775,529.136353 217.621582,510.925415 213.588898,491.811615 
	C210.492432,477.135315 209.176254,461.888306 208.871078,446.858490 
	C208.217590,414.675781 215.891998,384.138855 230.313278,355.372253 
	C246.599045,322.886505 270.119293,296.583679 300.272003,276.542877 
	C323.789856,260.911896 349.639923,250.360123 377.725800,246.146271 
	C388.520294,244.526703 399.465424,243.304413 410.364807,243.095825 
	C457.469238,242.194229 499.733978,256.703949 537.078552,285.087860 
	C573.088745,312.457611 596.953247,348.518524 609.275696,391.869537 
	C613.096191,405.310333 614.180298,419.528870 616.773682,434.162445 
	C617.026184,443.289520 617.022095,451.645477 617.018066,460.001465 
M344.315704,501.311707 
	C353.232880,501.562958 362.233154,502.698578 371.048920,501.870392 
	C386.552490,500.413879 399.841614,493.732147 409.147003,480.839905 
	C421.089020,464.294647 423.201599,445.648560 419.056061,426.187439 
	C415.513123,409.555328 405.563721,397.936035 389.619659,391.760010 
	C376.920105,386.840729 363.773529,386.439148 350.361694,387.901215 
	C327.912262,390.348511 310.461121,404.647736 304.561859,426.468445 
	C301.992676,435.971466 301.646729,445.676422 302.734100,455.596130 
	C305.333893,479.312714 320.081360,496.160767 344.315704,501.311707 
M489.785919,387.757019 
	C483.663879,387.799225 477.516144,387.495422 471.424622,387.948181 
	C452.752380,389.335999 439.570221,401.814728 438.214325,420.294250 
	C437.238159,433.598480 441.891174,445.575897 457.403595,449.487000 
	C464.779480,451.346741 472.313049,452.581390 479.775574,454.097290 
	C487.655273,455.697906 495.361481,457.818268 497.677765,466.892120 
	C500.855530,479.340515 491.711670,492.380127 478.950348,493.819550 
	C475.495667,494.209198 471.922668,494.238190 468.472870,493.838287 
	C461.395172,493.017822 455.044403,490.298889 449.617249,485.545959 
	C445.201660,481.678894 446.492767,476.434937 445.852844,471.582275 
	C445.679291,470.266083 443.696533,469.188416 442.544159,468.001251 
	C441.363068,469.160950 439.287018,470.224945 439.151062,471.496429 
	C438.445007,478.099823 438.545441,484.795135 437.721436,491.377869 
	C437.295776,494.778137 438.297089,496.080444 441.291107,497.196991 
	C454.625061,502.169373 468.261078,504.349060 482.394287,501.955872 
	C495.652222,499.710907 506.618378,493.751251 513.250793,481.518036 
	C522.083008,465.227386 520.380066,438.931915 492.616089,435.488434 
	C485.219238,434.571045 477.834229,433.146088 470.617310,431.282196 
	C458.455963,428.141357 453.872314,416.156616 460.433533,405.335785 
	C465.530975,396.928986 473.691650,395.534668 482.596008,396.018005 
	C488.935883,396.362152 495.265533,397.854126 499.206177,402.764771 
	C501.446686,405.556824 500.938812,410.449463 502.104004,414.263123 
	C502.543274,415.700806 504.007629,417.454559 505.360596,417.851776 
	C508.113617,418.660004 508.965637,416.850098 509.074066,414.162750 
	C509.301697,408.521759 509.574188,402.850189 510.410980,397.278687 
	C510.892975,394.069672 509.890625,392.412933 507.078857,391.697815 
	C501.636627,390.313660 496.148376,389.110504 489.785919,387.757019 
M290.000916,480.506348 
	C290.000641,476.674103 290.336517,472.806366 289.935913,469.016418 
	C288.817963,458.440552 288.962952,450.829346 273.197479,446.496094 
	C272.571869,446.324127 272.021149,445.879456 271.239532,445.455566 
	C271.925446,445.085236 272.202911,444.892639 272.509644,444.778809 
	C273.131531,444.547943 273.761108,444.328949 274.401703,444.158569 
	C283.133484,441.836029 289.011719,436.852448 289.302551,427.252014 
	C289.690338,414.451508 290.320190,401.622131 289.847595,388.842102 
	C289.387207,376.392273 296.254913,372.402435 305.524384,371.004486 
	C305.968994,370.937439 306.376312,370.623260 307.057129,370.304077 
	C306.906799,368.904602 306.758942,367.528351 306.518524,365.290497 
	C299.200226,366.186188 292.238770,366.631256 285.453857,367.970703 
	C276.794952,369.680176 271.510559,375.513153 270.995667,384.202911 
	C270.179657,397.973175 270.201904,411.796936 270.023041,425.600037 
	C269.865417,437.765900 266.389282,441.734100 254.407333,442.938660 
	C253.768951,443.002838 253.135178,443.112640 252.266357,443.233643 
	C252.266357,444.770721 252.266357,446.171356 252.266357,447.537323 
	C268.195648,450.362244 269.995819,452.549316 269.998230,468.879791 
	C269.999817,479.709839 269.923218,490.540558 270.018097,501.369781 
	C270.144257,515.765503 276.045258,523.597229 288.395264,525.905029 
	C291.004944,526.392578 293.652222,526.805176 296.298187,526.940918 
	C299.747375,527.117859 303.212494,526.984192 306.708374,526.984192 
	C306.708374,525.050293 306.708374,523.630005 306.708374,522.261475 
	C294.699158,520.162476 289.082764,516.055115 289.924957,502.493225 
	C290.357849,495.522247 290.000916,488.502197 290.000916,480.506348 
M530.999084,387.685638 
	C530.999084,399.018127 530.601990,410.368347 531.106140,421.678375 
	C531.656921,434.034668 533.096375,440.564819 547.904724,444.537354 
	C548.528870,444.704773 549.091736,445.100891 550.021729,445.556274 
	C547.234741,446.573486 544.721191,447.391174 542.286743,448.399780 
	C536.822083,450.663727 533.302307,454.739594 532.146973,460.511932 
	C531.434692,464.070465 531.090271,467.753571 531.049133,471.386047 
	C530.915283,483.217041 531.042664,495.050690 530.978333,506.882843 
	C530.939880,513.956055 527.638489,518.504883 520.975891,520.738403 
	C518.812988,521.463379 516.533081,521.839355 514.048767,522.437012 
	C514.124634,523.938293 514.194763,525.327515 514.314819,527.705139 
	C521.810242,526.792542 528.931458,526.351807 535.864014,524.966553 
	C543.411194,523.458496 547.924194,518.142090 549.769714,510.827087 
	C550.613281,507.483429 550.907288,503.931122 550.947815,500.467590 
	C551.086182,488.636719 550.968323,476.803101 551.010803,464.970764 
	C551.052368,453.398376 554.912354,449.255035 566.603088,448.066895 
	C567.240967,448.002014 567.873779,447.887329 568.736755,447.763000 
	C568.736755,446.223846 568.736755,444.822571 568.736755,443.457733 
	C552.616943,440.643799 551.002686,438.690277 551.000977,422.209839 
	C550.999939,411.877258 551.072021,401.544037 550.982483,391.212219 
	C550.876099,378.936951 546.565308,370.917175 537.533447,368.582916 
	C530.106934,366.663513 522.286621,366.267822 514.252197,365.142334 
	C514.252197,367.836212 514.252197,369.238342 514.252197,370.594238 
	C526.694214,372.955292 530.772522,376.935547 530.999084,387.685638 
z"/>
<path fill="#001014" opacity="1.000000" stroke="none" 
	d="
M617.319336,459.710602 
	C617.022095,451.645477 617.026184,443.289520 617.043152,434.464783 
	C617.244202,442.470612 617.432373,450.945190 617.319336,459.710602 
z"/>
<path fill="#5F5985" opacity="1.000000" stroke="none" 
	d="
M41.023392,745.515625 
	C40.862503,746.277283 40.678925,746.572205 40.294884,747.036804 
	C40.063148,745.041992 40.004543,742.877625 40.004494,740.713196 
	C39.999599,525.359192 39.998241,310.005188 40.011761,94.651207 
	C40.011887,92.667847 40.214127,90.684509 40.597298,88.409439 
	C40.914246,91.115837 40.992283,94.113937 40.992378,97.112045 
	C40.999115,313.091034 40.999653,529.070007 41.023392,745.515625 
z"/>
<path fill="#173847" opacity="1.000000" stroke="none" 
	d="
M343.897583,501.240326 
	C320.081360,496.160767 305.333893,479.312714 302.734100,455.596130 
	C301.646729,445.676422 301.992676,435.971466 304.561859,426.468445 
	C310.461121,404.647736 327.912262,390.348511 350.361694,387.901215 
	C363.773529,386.439148 376.920105,386.840729 389.619659,391.760010 
	C405.563721,397.936035 415.513123,409.555328 419.056061,426.187439 
	C423.201599,445.648560 421.089020,464.294647 409.147003,480.839905 
	C399.841614,493.732147 386.552490,500.413879 371.048920,501.870392 
	C362.233154,502.698578 353.232880,501.562958 343.897583,501.240326 
M386.103333,484.565002 
	C397.943970,469.109955 398.268707,451.154541 396.230499,433.153351 
	C395.379059,425.633545 392.582581,417.924774 388.975586,411.212769 
	C381.851410,397.955994 369.347260,394.632019 355.270416,396.140625 
	C343.294220,397.424164 334.575653,403.798096 330.551880,415.101257 
	C323.173462,435.827942 323.773376,456.550934 333.113373,476.623474 
	C343.358124,498.640472 374.249298,498.449524 386.103333,484.565002 
z"/>
<path fill="#183947" opacity="1.000000" stroke="none" 
	d="
M490.232544,387.794678 
	C496.148376,389.110504 501.636627,390.313660 507.078857,391.697815 
	C509.890625,392.412933 510.892975,394.069672 510.410980,397.278687 
	C509.574188,402.850189 509.301697,408.521759 509.074066,414.162750 
	C508.965637,416.850098 508.113617,418.660004 505.360596,417.851776 
	C504.007629,417.454559 502.543274,415.700806 502.104004,414.263123 
	C500.938812,410.449463 501.446686,405.556824 499.206177,402.764771 
	C495.265533,397.854126 488.935883,396.362152 482.596008,396.018005 
	C473.691650,395.534668 465.530975,396.928986 460.433533,405.335785 
	C453.872314,416.156616 458.455963,428.141357 470.617310,431.282196 
	C477.834229,433.146088 485.219238,434.571045 492.616089,435.488434 
	C520.380066,438.931915 522.083008,465.227386 513.250793,481.518036 
	C506.618378,493.751251 495.652222,499.710907 482.394287,501.955872 
	C468.261078,504.349060 454.625061,502.169373 441.291107,497.196991 
	C438.297089,496.080444 437.295776,494.778137 437.721436,491.377869 
	C438.545441,484.795135 438.445007,478.099823 439.151062,471.496429 
	C439.287018,470.224945 441.363068,469.160950 442.544159,468.001251 
	C443.696533,469.188416 445.679291,470.266083 445.852844,471.582275 
	C446.492767,476.434937 445.201660,481.678894 449.617249,485.545959 
	C455.044403,490.298889 461.395172,493.017822 468.472870,493.838287 
	C471.922668,494.238190 475.495667,494.209198 478.950348,493.819550 
	C491.711670,492.380127 500.855530,479.340515 497.677765,466.892120 
	C495.361481,457.818268 487.655273,455.697906 479.775574,454.097290 
	C472.313049,452.581390 464.779480,451.346741 457.403595,449.487000 
	C441.891174,445.575897 437.238159,433.598480 438.214325,420.294250 
	C439.570221,401.814728 452.752380,389.335999 471.424622,387.948181 
	C477.516144,387.495422 483.663879,387.799225 490.232544,387.794678 
z"/>
<path fill="#173846" opacity="1.000000" stroke="none" 
	d="
M290.000916,481.005341 
	C290.000916,488.502197 290.357849,495.522247 289.924957,502.493225 
	C289.082764,516.055115 294.699158,520.162476 306.708374,522.261475 
	C306.708374,523.630005 306.708374,525.050293 306.708374,526.984192 
	C303.212494,526.984192 299.747375,527.117859 296.298187,526.940918 
	C293.652222,526.805176 291.004944,526.392578 288.395264,525.905029 
	C276.045258,523.597229 270.144257,515.765503 270.018097,501.369781 
	C269.923218,490.540558 269.999817,479.709839 269.998230,468.879791 
	C269.995819,452.549316 268.195648,450.362244 252.266357,447.537323 
	C252.266357,446.171356 252.266357,444.770721 252.266357,443.233643 
	C253.135178,443.112640 253.768951,443.002838 254.407333,442.938660 
	C266.389282,441.734100 269.865417,437.765900 270.023041,425.600037 
	C270.201904,411.796936 270.179657,397.973175 270.995667,384.202911 
	C271.510559,375.513153 276.794952,369.680176 285.453857,367.970703 
	C292.238770,366.631256 299.200226,366.186188 306.518524,365.290497 
	C306.758942,367.528351 306.906799,368.904602 307.057129,370.304077 
	C306.376312,370.623260 305.968994,370.937439 305.524384,371.004486 
	C296.254913,372.402435 289.387207,376.392273 289.847595,388.842102 
	C290.320190,401.622131 289.690338,414.451508 289.302551,427.252014 
	C289.011719,436.852448 283.133484,441.836029 274.401703,444.158569 
	C273.761108,444.328949 273.131531,444.547943 272.509644,444.778809 
	C272.202911,444.892639 271.925446,445.085236 271.239532,445.455566 
	C272.021149,445.879456 272.571869,446.324127 273.197479,446.496094 
	C288.962952,450.829346 288.817963,458.440552 289.935913,469.016418 
	C290.336517,472.806366 290.000641,476.674103 290.000916,481.005341 
z"/>
<path fill="#173846" opacity="1.000000" stroke="none" 
	d="
M530.998779,387.216431 
	C530.772522,376.935547 526.694214,372.955292 514.252197,370.594238 
	C514.252197,369.238342 514.252197,367.836212 514.252197,365.142334 
	C522.286621,366.267822 530.106934,366.663513 537.533447,368.582916 
	C546.565308,370.917175 550.876099,378.936951 550.982483,391.212219 
	C551.072021,401.544037 550.999939,411.877258 551.000977,422.209839 
	C551.002686,438.690277 552.616943,440.643799 568.736755,443.457733 
	C568.736755,444.822571 568.736755,446.223846 568.736755,447.763000 
	C567.873779,447.887329 567.240967,448.002014 566.603088,448.066895 
	C554.912354,449.255035 551.052368,453.398376 551.010803,464.970764 
	C550.968323,476.803101 551.086182,488.636719 550.947815,500.467590 
	C550.907288,503.931122 550.613281,507.483429 549.769714,510.827087 
	C547.924194,518.142090 543.411194,523.458496 535.864014,524.966553 
	C528.931458,526.351807 521.810242,526.792542 514.314819,527.705139 
	C514.194763,525.327515 514.124634,523.938293 514.048767,522.437012 
	C516.533081,521.839355 518.812988,521.463379 520.975891,520.738403 
	C527.638489,518.504883 530.939880,513.956055 530.978333,506.882843 
	C531.042664,495.050690 530.915283,483.217041 531.049133,471.386047 
	C531.090271,467.753571 531.434692,464.070465 532.146973,460.511932 
	C533.302307,454.739594 536.822083,450.663727 542.286743,448.399780 
	C544.721191,447.391174 547.234741,446.573486 550.021729,445.556274 
	C549.091736,445.100891 548.528870,444.704773 547.904724,444.537354 
	C533.096375,440.564819 531.656921,434.034668 531.106140,421.678375 
	C530.601990,410.368347 530.999084,399.018127 530.998779,387.216431 
z"/>
<path fill="#8FCAC4" opacity="1.000000" stroke="none" 
	d="
M385.855408,484.823364 
	C374.249298,498.449524 343.358124,498.640472 333.113373,476.623474 
	C323.773376,456.550934 323.173462,435.827942 330.551880,415.101257 
	C334.575653,403.798096 343.294220,397.424164 355.270416,396.140625 
	C369.347260,394.632019 381.851410,397.955994 388.975586,411.212769 
	C392.582581,417.924774 395.379059,425.633545 396.230499,433.153351 
	C398.268707,451.154541 397.943970,469.109955 385.855408,484.823364 
z"/>
</svg>