<svg version="1.1" id="Layer_1" xmlns="http://www.w3.org/2000/svg" xmlns:xlink="http://www.w3.org/1999/xlink" x="0px" y="0px"
	 width="100%" viewBox="0 0 818 880" enable-background="new 0 0 818 880" xml:space="preserve">
<path fill="#FEFEFE" opacity="1.000000" stroke="none" 
	d="
M819.000000,308.000000 
	C819.000000,499.333252 819.000000,690.166504 819.000000,880.999817 
	C546.333557,880.999878 273.667053,880.999878 1.000435,880.999939 
	C1.000290,587.666992 1.000290,294.333954 1.000145,1.000711 
	C273.666229,1.000474 546.332458,1.000474 818.999390,1.000237 
	C819.000000,103.166664 819.000000,205.333328 819.000000,308.000000 
M773.831726,134.345123 
	C773.252258,134.162140 772.672852,133.979141 772.019653,133.844894 
	C772.019653,133.844894 772.064148,133.921265 771.820801,133.236847 
	C770.908569,133.119614 769.996338,133.002365 768.738342,132.268951 
	C756.795776,125.773941 744.875671,119.237129 732.905762,112.792854 
	C710.189087,100.562828 687.442200,88.389153 664.711121,76.185905 
	C638.538818,62.135250 612.370056,48.077923 585.811279,33.183311 
	C585.173584,34.178810 583.984131,35.172352 583.980530,36.170105 
	C583.922791,52.433430 584.015076,68.697296 583.883423,85.886604 
	C583.898315,96.994324 583.836182,108.102875 583.956787,119.209442 
	C584.030090,125.963554 584.385315,132.714600 584.469604,140.322525 
	C584.823547,145.060333 585.177551,149.798141 586.008545,154.997849 
	C587.694458,155.877762 589.380371,156.757675 591.802429,157.784348 
	C611.124939,168.218430 630.458801,178.631592 649.765381,189.095016 
	C660.154358,194.725403 670.496643,200.441971 681.244995,206.870361 
	C681.481262,208.954803 681.923157,211.039154 681.924072,213.123703 
	C681.959778,291.285339 681.954102,369.447021 681.955444,447.608673 
	C681.957153,546.269043 681.954468,644.929382 682.008606,743.589722 
	C682.009583,745.350220 682.698059,747.110352 683.768921,749.069885 
	C687.637695,751.107971 691.520813,753.119446 695.372620,755.189270 
	C705.509216,760.636353 715.622009,766.127747 725.762939,771.566772 
	C742.165894,780.364380 758.583923,789.134155 774.657288,798.481812 
	C775.401184,798.725769 776.145142,798.969727 776.921204,799.199036 
	C776.921204,799.199036 776.913574,799.164429 776.992493,799.980774 
	C778.403809,800.506104 779.815125,801.031494 781.964966,801.831848 
	C781.964966,797.352173 781.964966,793.876770 781.964905,790.401367 
	C781.962952,575.926086 781.961182,361.450867 781.957214,146.975601 
	C781.957214,144.975937 782.254456,142.896362 781.792664,141.005539 
	C781.499451,139.805038 780.056946,138.885208 779.005188,137.891510 
	C779.005188,137.891510 779.139771,137.881332 779.300903,137.242493 
	C778.895447,137.099808 778.489990,136.957123 778.026001,136.869385 
	C778.026001,136.869385 778.087219,136.921310 777.786255,136.376404 
	C777.206909,136.192856 776.627625,136.009308 776.006836,135.899765 
	C776.006836,135.899765 776.086182,135.929733 775.795105,135.378036 
	C775.225281,135.175903 774.655396,134.973785 774.009338,134.843765 
	C774.009338,134.843765 774.083069,134.918442 773.831726,134.345123 
M137.035767,138.300781 
	C136.797409,137.448120 136.559052,136.595459 136.011276,135.129333 
	C134.889923,134.434479 133.800766,133.680115 132.642502,133.053497 
	C107.915451,119.676170 83.209572,106.259178 58.428318,92.982903 
	C51.696224,89.376266 44.732162,86.202614 37.180092,83.364182 
	C37.116837,84.358498 36.998211,85.352814 36.998150,86.347130 
	C36.984695,304.387329 36.977566,522.427551 37.014259,740.467773 
	C37.014519,742.020813 37.620407,743.573730 38.245682,745.737671 
	C103.098091,780.777222 167.950500,815.816772 233.783585,851.386169 
	C236.243378,840.560669 234.580536,830.261475 235.009216,819.144348 
	C235.043762,811.837036 235.178146,804.528503 235.088623,797.222717 
	C234.965057,787.139771 234.672607,777.058960 234.402252,766.045654 
	C234.339340,755.268494 234.125641,744.488708 234.308990,733.715759 
	C234.361374,730.638428 233.353119,728.756836 230.872437,726.652588 
	C229.589584,725.439636 228.479034,723.930908 226.993698,723.065491 
	C220.878067,719.502136 214.676636,716.082642 208.455765,712.704102 
	C188.640915,701.942871 168.875000,691.087463 148.931168,680.570007 
	C142.858582,677.367554 139.867813,673.425659 139.874603,666.155518 
	C140.036011,493.332703 140.000046,320.509674 139.999451,147.686707 
	C139.999451,146.186813 140.352310,144.563278 139.891983,143.219620 
	C139.364594,141.680222 138.112015,140.389282 137.035767,138.300781 
M347.514038,227.001694 
	C335.656158,231.604553 323.475861,235.524887 312.003632,240.944122 
	C282.915619,254.684647 258.182617,274.202606 237.501099,298.934326 
	C208.481461,333.637024 191.406525,373.563995 186.135406,418.273560 
	C182.054123,452.890930 185.945465,486.902161 197.864105,519.841980 
	C214.365921,565.448425 242.501556,602.162720 282.237976,629.898743 
	C313.622253,651.804993 348.592010,664.780579 386.516541,668.811951 
	C422.008789,672.584778 456.653839,668.127136 490.298004,655.447449 
	C525.398926,642.218811 555.479675,621.749878 579.995361,593.678894 
	C613.067810,555.810425 632.309021,511.890533 635.734131,461.180298 
	C636.760559,445.984985 636.718506,431.003693 634.984741,415.988953 
	C632.420593,393.784088 626.426941,372.437164 617.237061,352.082764 
	C602.221252,318.824677 580.670044,290.581635 552.072754,267.707916 
	C529.124084,249.352295 503.706512,235.807892 475.540955,227.609772 
	C460.339569,223.185120 444.851776,220.714127 428.935944,219.151642 
	C414.024719,217.687775 399.433289,218.489899 384.858887,219.602905 
	C372.564514,220.541824 360.486237,224.310181 347.514038,227.001694 
M308.298492,90.904022 
	C308.224457,84.125092 308.805389,77.262901 307.956207,70.582497 
	C305.169678,48.661213 294.263214,32.235165 273.327301,23.846272 
	C254.322205,16.231045 234.691574,16.145731 215.203125,21.847860 
	C193.373383,28.235031 179.330017,42.584312 173.806931,64.840187 
	C171.063553,75.894913 170.825714,87.051369 171.751068,98.442101 
	C173.681030,122.199661 189.149231,142.804565 211.768082,150.010559 
	C223.610291,153.783279 235.745438,154.224869 248.182022,153.297546 
	C281.272888,150.830170 306.784058,125.022850 308.298492,90.904022 
M583.494019,847.081482 
	C599.284485,839.182983 607.983643,826.203674 608.816040,808.803833 
	C609.505432,794.391296 605.090820,780.916504 586.754700,775.961853 
	C579.904175,774.110779 572.701416,773.575134 565.831665,771.779968 
	C559.043091,770.006104 551.591492,768.681702 546.015625,764.852356 
	C537.952026,759.314697 538.711914,749.989929 541.279236,741.632935 
	C544.050049,732.613403 551.250427,728.326050 560.312805,727.131836 
	C562.932800,726.786560 565.646240,726.892578 568.296143,727.081360 
	C575.441711,727.590515 581.875305,729.953613 587.218628,734.885742 
	C591.440186,738.782410 589.355591,743.960693 589.979553,748.588135 
	C590.001648,748.751953 590.006042,748.923462 589.984741,749.087036 
	C589.579895,752.197693 591.038513,753.075806 594.019531,753.091248 
	C597.075073,753.106995 597.943054,752.020691 598.122314,749.031860 
	C598.509033,742.583191 598.939819,736.074341 600.211121,729.762939 
	C601.113647,725.282349 599.660400,723.378235 595.742249,721.994873 
	C580.309509,716.546265 564.452515,715.182861 548.697937,719.173096 
	C521.034119,726.179443 512.541138,750.122253 519.270508,772.749817 
	C522.807739,784.643921 532.694702,789.481384 543.882141,792.017151 
	C553.406982,794.176208 563.052307,795.818298 572.542114,798.112000 
	C579.120239,799.701904 583.960205,803.893127 585.417053,810.681885 
	C587.325867,819.576599 585.562805,827.863770 579.448792,834.889160 
	C571.982361,843.468567 561.938110,843.808899 551.857666,842.745728 
	C535.411438,841.011108 527.636047,832.339050 527.008179,815.985107 
	C527.001831,815.818726 526.989807,815.650024 527.008972,815.485779 
	C527.367249,812.421021 525.627869,811.911743 523.053284,811.941650 
	C520.591431,811.970276 519.089722,812.239380 518.908997,815.372437 
	C518.432190,823.641113 517.405273,831.878113 516.930237,840.146851 
	C516.844238,841.644409 517.948853,844.109680 519.161438,844.648804 
	C539.975037,853.901611 561.155273,856.344238 583.494019,847.081482 
z"/>
<path fill="#1C3846" opacity="1.000000" stroke="none" 
	d="
M347.913147,226.913910 
	C360.486237,224.310181 372.564514,220.541824 384.858887,219.602905 
	C399.433289,218.489899 414.024719,217.687775 428.935944,219.151642 
	C444.851776,220.714127 460.339569,223.185120 475.540955,227.609772 
	C503.706512,235.807892 529.124084,249.352295 552.072754,267.707916 
	C580.670044,290.581635 602.221252,318.824677 617.237061,352.082764 
	C626.426941,372.437164 632.420593,393.784088 634.984741,415.988953 
	C636.718506,431.003693 636.760559,445.984985 635.734131,461.180298 
	C632.309021,511.890533 613.067810,555.810425 579.995361,593.678894 
	C555.479675,621.749878 525.398926,642.218811 490.298004,655.447449 
	C456.653839,668.127136 422.008789,672.584778 386.516541,668.811951 
	C348.592010,664.780579 313.622253,651.804993 282.237976,629.898743 
	C242.501556,602.162720 214.365921,565.448425 197.864105,519.841980 
	C185.945465,486.902161 182.054123,452.890930 186.135406,418.273560 
	C191.406525,373.563995 208.481461,333.637024 237.501099,298.934326 
	C258.182617,274.202606 282.915619,254.684647 312.003632,240.944122 
	C323.475861,235.524887 335.656158,231.604553 347.913147,226.913910 
M206.775635,439.995850 
	C206.764343,442.624054 206.753067,445.252289 206.061203,448.143494 
	C205.643311,450.076538 205.225418,452.009552 204.807526,453.942596 
	C205.067398,453.967010 205.327286,453.991394 205.587158,454.015808 
	C206.019165,453.046173 206.451157,452.076538 206.964203,452.010559 
	C207.086868,471.944855 210.997223,491.334778 217.503525,509.966522 
	C228.309372,540.910706 245.294922,568.134888 269.194336,590.961243 
	C286.036377,607.047058 304.917847,619.868591 325.990692,629.650757 
	C353.445740,642.395508 382.560699,647.995117 412.534943,648.739197 
	C423.461884,649.010498 434.509399,646.700317 445.417023,645.017578 
	C470.841278,641.095459 494.496399,632.045471 516.416626,618.732056 
	C542.761475,602.731323 564.587280,581.866821 581.439270,555.969238 
	C597.264771,531.649048 607.613586,505.172455 612.232361,476.502655 
	C613.276611,470.020660 614.094482,463.502197 615.620056,456.420135 
	C615.431091,447.945557 615.242188,439.470978 614.520081,430.387390 
	C614.354858,429.405914 614.101929,428.430206 614.037415,427.442139 
	C612.744507,407.638885 608.255005,388.532654 601.045959,370.100922 
	C590.206970,342.388275 574.234192,318.015839 552.768127,297.315430 
	C539.102966,284.137634 523.948425,272.997162 507.200897,264.057007 
	C487.058411,253.304535 465.745728,245.910385 443.156647,242.475037 
	C433.533630,241.011566 423.832550,239.445053 414.138824,239.236923 
	C404.592499,239.031967 394.929901,239.934616 385.459747,241.318863 
	C359.416779,245.125580 334.612396,252.699829 311.450806,265.667908 
	C280.136505,283.200684 255.083221,307.267975 236.398590,337.607666 
	C218.672791,366.390442 209.045303,398.078400 206.071884,432.086273 
	C206.295105,434.431122 206.518341,436.775970 206.775635,439.995850 
z"/>
<path fill="#1A3847" opacity="1.000000" stroke="none" 
	d="
M308.243347,91.356842 
	C306.784058,125.022850 281.272888,150.830170 248.182022,153.297546 
	C235.745438,154.224869 223.610291,153.783279 211.768082,150.010559 
	C189.149231,142.804565 173.681030,122.199661 171.751068,98.442101 
	C170.825714,87.051369 171.063553,75.894913 173.806931,64.840187 
	C179.330017,42.584312 193.373383,28.235031 215.203125,21.847860 
	C234.691574,16.145731 254.322205,16.231045 273.327301,23.846272 
	C294.263214,32.235165 305.169678,48.661213 307.956207,70.582497 
	C308.805389,77.262901 308.224457,84.125092 308.243347,91.356842 
M211.758499,38.268433 
	C209.194458,42.512936 206.125153,46.537071 204.160019,51.042786 
	C197.984711,65.201775 198.220856,80.264252 199.452789,95.197968 
	C200.483368,107.690834 203.877106,119.595886 211.307892,130.130875 
	C224.842926,149.320129 261.226837,149.465363 272.020538,127.370430 
	C284.389130,102.051598 284.973480,75.883804 273.969482,50.312614 
	C263.311920,25.546389 232.514603,19.885956 211.758499,38.268433 
z"/>
<path fill="#1A3846" opacity="1.000000" stroke="none" 
	d="
M583.133667,847.203857 
	C561.155273,856.344238 539.975037,853.901611 519.161438,844.648804 
	C517.948853,844.109680 516.844238,841.644409 516.930237,840.146851 
	C517.405273,831.878113 518.432190,823.641113 518.908997,815.372437 
	C519.089722,812.239380 520.591431,811.970276 523.053284,811.941650 
	C525.627869,811.911743 527.367249,812.421021 527.008972,815.485779 
	C526.989807,815.650024 527.001831,815.818726 527.008179,815.985107 
	C527.636047,832.339050 535.411438,841.011108 551.857666,842.745728 
	C561.938110,843.808899 571.982361,843.468567 579.448792,834.889160 
	C585.562805,827.863770 587.325867,819.576599 585.417053,810.681885 
	C583.960205,803.893127 579.120239,799.701904 572.542114,798.112000 
	C563.052307,795.818298 553.406982,794.176208 543.882141,792.017151 
	C532.694702,789.481384 522.807739,784.643921 519.270508,772.749817 
	C512.541138,750.122253 521.034119,726.179443 548.697937,719.173096 
	C564.452515,715.182861 580.309509,716.546265 595.742249,721.994873 
	C599.660400,723.378235 601.113647,725.282349 600.211121,729.762939 
	C598.939819,736.074341 598.509033,742.583191 598.122314,749.031860 
	C597.943054,752.020691 597.075073,753.106995 594.019531,753.091248 
	C591.038513,753.075806 589.579895,752.197693 589.984741,749.087036 
	C590.006042,748.923462 590.001648,748.751953 589.979553,748.588135 
	C589.355591,743.960693 591.440186,738.782410 587.218628,734.885742 
	C581.875305,729.953613 575.441711,727.590515 568.296143,727.081360 
	C565.646240,726.892578 562.932800,726.786560 560.312805,727.131836 
	C551.250427,728.326050 544.050049,732.613403 541.279236,741.632935 
	C538.711914,749.989929 537.952026,759.314697 546.015625,764.852356 
	C551.591492,768.681702 559.043091,770.006104 565.831665,771.779968 
	C572.701416,773.575134 579.904175,774.110779 586.754700,775.961853 
	C605.090820,780.916504 609.505432,794.391296 608.816040,808.803833 
	C607.983643,826.203674 599.284485,839.182983 583.133667,847.203857 
z"/>
<path fill="#1A115F" opacity="1.000000" stroke="none" 
	d="
M230.846756,727.382141 
	C233.353119,728.756836 234.361374,730.638428 234.308990,733.715759 
	C234.125641,744.488708 234.339340,755.268494 234.058212,766.732361 
	C233.487183,784.618591 233.249115,801.818115 233.111084,819.018311 
	C233.108261,819.369507 234.268356,819.729980 234.885895,820.086182 
	C234.580536,830.261475 236.243378,840.560669 233.783585,851.386169 
	C167.950500,815.816772 103.098091,780.777222 38.190495,745.231812 
	C38.135307,744.726013 38.114998,744.282837 38.378857,743.932373 
	C38.752399,741.595276 38.957989,739.608521 38.958153,737.621826 
	C38.976009,522.290466 38.978870,306.959106 38.976440,91.627731 
	C38.976418,89.462776 38.894814,87.297813 38.807983,84.819778 
	C38.467968,83.947876 38.171265,83.389053 37.874565,82.830238 
	C44.732162,86.202614 51.696224,89.376266 58.428318,92.982903 
	C83.209572,106.259178 107.915451,119.676170 132.642502,133.053497 
	C133.800766,133.680115 134.889923,134.434479 136.070312,135.470306 
	C136.129349,135.811264 135.985443,135.954010 135.655960,136.221802 
	C135.225311,138.477371 135.035950,140.465134 135.035660,142.452942 
	C135.022369,231.452942 135.019165,320.452942 135.028885,409.452942 
	C135.038620,498.619171 135.063202,587.785400 134.677032,676.885986 
	C133.850174,674.666382 133.058197,672.512573 133.057495,670.358459 
	C133.000793,495.214172 133.005783,320.069916 133.006149,144.925629 
	C133.006149,143.425827 133.404816,141.776169 132.911591,140.461212 
	C132.165802,138.473053 131.232285,136.049149 129.609253,134.996216 
	C125.599083,132.394669 121.098213,130.564255 116.891174,128.248413 
	C107.219299,122.924355 97.640793,117.430275 87.954697,112.132622 
	C81.458885,108.579834 74.819267,105.291061 68.287819,101.802116 
	C59.585358,97.153458 50.925468,92.425110 40.994919,87.053566 
	C40.994919,90.418533 40.994926,92.488594 40.994919,94.558647 
	C40.994316,308.531311 41.023247,522.503967 40.843426,736.476501 
	C40.838295,742.582703 43.387547,745.580872 48.236504,747.963928 
	C55.633076,751.598938 63.036125,755.241272 70.260994,759.200623 
	C83.144341,766.260803 95.834595,773.673401 108.720177,780.729370 
	C123.208946,788.663330 137.843719,796.330200 152.379578,804.178711 
	C167.671356,812.435364 182.920837,820.770325 198.189621,829.069641 
	C206.037170,833.335083 213.851730,837.663269 221.752609,841.827637 
	C224.746506,843.405640 227.941086,844.602844 231.770172,846.294312 
	C231.872696,844.008057 232.047928,842.411621 231.998672,840.822205 
	C231.695312,831.032043 231.105682,821.244934 231.050446,811.454285 
	C230.911270,786.791565 230.877319,762.126282 231.114151,737.465027 
	C231.161530,732.531128 229.133163,729.691284 225.147263,727.568054 
	C216.809464,723.126465 208.499985,718.631714 200.170883,714.173645 
	C179.364578,703.037231 158.536469,691.941101 137.788254,680.697449 
	C136.553970,680.028687 135.945847,678.204407 135.275208,676.937683 
	C135.504044,676.957642 135.963379,676.939270 136.212616,676.969055 
	C136.629181,677.002197 136.796509,677.005493 137.260681,677.196533 
	C153.875427,686.215454 170.166931,695.095886 186.518997,703.863342 
	C201.260468,711.767273 216.068237,719.547363 230.846756,727.382141 
z"/>
<path fill="#2DA19D" opacity="1.000000" stroke="none" 
	d="
M774.995544,797.915771 
	C758.583923,789.134155 742.165894,780.364380 725.762939,771.566772 
	C715.622009,766.127747 705.509216,760.636353 695.372620,755.189270 
	C691.520813,753.119446 687.637695,751.107971 683.409180,748.511597 
	C683.035706,746.954163 683.010010,745.955078 683.009949,744.955994 
	C683.005310,566.768127 683.002258,388.580231 683.005798,210.392365 
	C683.005798,209.229233 683.099792,208.066116 683.529297,207.032913 
	C684.269287,209.196014 684.944824,211.229111 684.945374,213.262390 
	C684.993713,388.072693 684.989868,562.882996 684.989746,737.693298 
	C684.989746,739.193115 684.590088,740.842957 685.082703,742.158508 
	C685.878967,744.285095 686.762512,747.028992 688.479675,748.054382 
	C698.944519,754.302734 709.589844,760.259583 720.299011,766.085632 
	C737.022400,775.183533 753.836975,784.114075 770.634766,793.074646 
	C772.726868,794.190613 774.951599,795.057922 778.030762,796.456604 
	C778.030762,793.228943 778.030762,790.951965 778.030762,788.674927 
	C778.030762,574.703125 778.030762,360.731323 778.030701,146.759506 
	C778.030701,145.759644 778.349854,144.608688 777.964050,143.790268 
	C777.067261,141.887497 776.097168,139.885941 774.660706,138.405960 
	C773.013245,136.708603 770.829956,135.531387 768.918457,134.087280 
	C768.957458,134.046341 769.036194,133.965149 769.414917,133.993530 
	C770.550537,133.988342 771.307312,133.954803 772.064148,133.921265 
	C772.064148,133.921265 772.019653,133.844894 772.112915,134.155441 
	C772.831848,134.616806 773.457458,134.767624 774.083069,134.918442 
	C774.083069,134.918442 774.009338,134.843765 774.106201,135.145386 
	C774.830750,135.607910 775.458435,135.768814 776.086182,135.929733 
	C776.086182,135.929733 776.006836,135.899765 776.104004,136.193954 
	C776.829834,136.632538 777.458557,136.776917 778.087219,136.921295 
	C778.087219,136.921310 778.026001,136.869385 778.072754,137.138489 
	C778.459656,137.565521 778.799683,137.723419 779.139771,137.881332 
	C779.139771,137.881332 779.005188,137.891510 779.130798,138.286285 
	C779.496094,140.972275 779.945374,143.263489 779.945740,145.554764 
	C779.976990,360.756653 779.974060,575.958557 779.972534,791.160461 
	C779.972534,792.826050 780.347046,794.624634 779.833618,796.115540 
	C779.417542,797.323730 777.927368,798.162048 776.913574,799.164429 
	C776.913574,799.164429 776.921204,799.199036 776.775391,798.789062 
	C776.084900,798.224609 775.540222,798.070190 774.995544,797.915771 
z"/>
<path fill="#F4F3F8" opacity="1.000000" stroke="none" 
	d="
M230.859589,727.017334 
	C216.068237,719.547363 201.260468,711.767273 186.518997,703.863342 
	C170.166931,695.095886 153.875427,686.215454 137.286285,676.735413 
	C137.011642,498.715515 137.007782,321.344482 137.011871,143.973434 
	C137.011917,142.312424 137.117935,140.651413 137.174469,138.990402 
	C138.112015,140.389282 139.364594,141.680222 139.891983,143.219620 
	C140.352310,144.563278 139.999451,146.186813 139.999451,147.686707 
	C140.000046,320.509674 140.036011,493.332703 139.874603,666.155518 
	C139.867813,673.425659 142.858582,677.367554 148.931168,680.570007 
	C168.875000,691.087463 188.640915,701.942871 208.455765,712.704102 
	C214.676636,716.082642 220.878067,719.502136 226.993698,723.065491 
	C228.479034,723.930908 229.589584,725.439636 230.859589,727.017334 
z"/>
<path fill="#40736E" opacity="1.000000" stroke="none" 
	d="
M776.953003,799.572632 
	C777.927368,798.162048 779.417542,797.323730 779.833618,796.115540 
	C780.347046,794.624634 779.972534,792.826050 779.972534,791.160461 
	C779.974060,575.958557 779.976990,360.756653 779.945740,145.554764 
	C779.945374,143.263489 779.496094,140.972275 779.193115,138.260284 
	C780.056946,138.885208 781.499451,139.805038 781.792664,141.005539 
	C782.254456,142.896362 781.957214,144.975937 781.957214,146.975601 
	C781.961182,361.450867 781.962952,575.926086 781.964905,790.401367 
	C781.964966,793.876770 781.964966,797.352173 781.964966,801.831848 
	C779.815125,801.031494 778.403809,800.506104 776.953003,799.572632 
z"/>
<path fill="#5D5972" opacity="1.000000" stroke="none" 
	d="
M37.527328,83.097214 
	C38.171265,83.389053 38.467968,83.947876 38.537689,85.112740 
	C38.206863,87.703140 38.012188,89.687485 38.012066,91.671844 
	C37.998917,306.877960 37.999996,522.084045 38.005653,737.290161 
	C38.005718,739.621033 38.076977,741.951965 38.114998,744.282837 
	C38.114998,744.282837 38.135307,744.726013 38.039406,744.926392 
	C37.620407,743.573730 37.014519,742.020813 37.014259,740.467773 
	C36.977566,522.427551 36.984695,304.387329 36.998150,86.347130 
	C36.998211,85.352814 37.116837,84.358498 37.527328,83.097214 
z"/>
<path fill="#2DA19D" opacity="1.000000" stroke="none" 
	d="
M586.199768,34.023495 
	C612.370056,48.077923 638.538818,62.135250 664.711121,76.185905 
	C687.442200,88.389153 710.189087,100.562828 732.905762,112.792854 
	C744.875671,119.237129 756.795776,125.773941 768.890625,132.846451 
	C769.040649,133.604355 769.038452,133.784744 769.036194,133.965149 
	C769.036194,133.965149 768.957458,134.046341 768.557251,134.047455 
	C767.666504,133.962952 767.110107,133.998932 766.694763,133.774216 
	C748.830139,124.109558 730.989624,114.400314 713.121155,104.742714 
	C694.515930,94.686890 675.887939,84.673157 657.264893,74.650337 
	C639.493225,65.085701 621.726624,55.511269 603.932495,45.988583 
	C598.655640,43.164642 593.292847,40.501205 587.000000,37.265770 
	C587.000000,40.324783 587.000305,42.112438 586.999939,43.900093 
	C586.997620,55.879570 587.034241,67.859322 586.949158,79.838211 
	C586.936890,81.567917 586.339172,83.293465 585.764648,85.029755 
	C585.516968,85.038567 585.021912,85.011818 585.008179,84.542175 
	C584.996460,69.282043 584.955505,54.491272 585.053345,39.701424 
	C585.065857,37.806335 585.799988,35.916023 586.199768,34.023495 
z"/>
<path fill="#003A36" opacity="1.000000" stroke="none" 
	d="
M683.149902,206.902985 
	C683.099792,208.066116 683.005798,209.229233 683.005798,210.392365 
	C683.002258,388.580231 683.005310,566.768127 683.009949,744.955994 
	C683.010010,745.955078 683.035706,746.954163 683.057556,748.411987 
	C682.698059,747.110352 682.009583,745.350220 682.008606,743.589722 
	C681.954468,644.929382 681.957153,546.269043 681.955444,447.608673 
	C681.954102,369.447021 681.959778,291.285339 681.924072,213.123703 
	C681.923157,211.039154 681.481262,208.954803 681.402832,206.483337 
	C682.027649,206.124313 682.494751,206.152283 682.990601,206.365204 
	C683.019348,206.550156 683.149963,206.902985 683.149902,206.902985 
z"/>
<path fill="#3F3B54" opacity="1.000000" stroke="none" 
	d="
M137.105118,138.645599 
	C137.117935,140.651413 137.011917,142.312424 137.011871,143.973434 
	C137.007782,321.344482 137.011642,498.715515 136.989426,676.547729 
	C136.796509,677.005493 136.629181,677.002197 136.231110,676.507690 
	C135.995361,495.995728 135.990402,315.974884 135.985443,135.954010 
	C135.985443,135.954010 136.129349,135.811264 136.225021,135.777039 
	C136.559052,136.595459 136.797409,137.448120 137.105118,138.645599 
z"/>
<path fill="#2DA19D" opacity="1.000000" stroke="none" 
	d="
M682.961792,206.180267 
	C682.494751,206.152283 682.027649,206.124313 681.210327,206.107986 
	C670.496643,200.441971 660.154358,194.725403 649.765381,189.095016 
	C630.458801,178.631592 611.124939,168.218430 591.381042,157.406494 
	C589.969177,156.019089 588.978760,155.009537 588.377319,153.984177 
	C590.141296,154.418747 591.620850,154.674652 592.875122,155.349304 
	C606.926025,162.907074 620.939270,170.534912 634.968567,178.132812 
	C650.014648,186.281387 665.087830,194.380447 680.078552,202.629532 
	C681.316162,203.310532 682.013428,204.973541 682.961792,206.180267 
z"/>
<path fill="#757094" opacity="1.000000" stroke="none" 
	d="
M234.947571,819.615234 
	C234.268356,819.729980 233.108261,819.369507 233.111084,819.018311 
	C233.249115,801.818115 233.487183,784.618591 234.083344,767.198120 
	C234.672607,777.058960 234.965057,787.139771 235.088623,797.222717 
	C235.178146,804.528503 235.043762,811.837036 234.947571,819.615234 
z"/>
<path fill="#4C7370" opacity="1.000000" stroke="none" 
	d="
M585.021912,85.011818 
	C585.021912,85.011818 585.516968,85.038567 585.774414,85.389755 
	C586.062866,86.461601 586.093933,87.182266 586.062012,88.377716 
	C585.955811,99.579391 585.912537,110.306274 585.610413,121.350891 
	C585.105713,127.601418 584.859802,133.534225 584.613892,139.467026 
	C584.385315,132.714600 584.030090,125.963554 583.956787,119.209442 
	C583.836182,108.102875 583.898315,96.994324 584.213440,85.476318 
	C584.543457,85.066025 585.021912,85.011818 585.021912,85.011818 
z"/>
<path fill="#022F2D" opacity="1.000000" stroke="none" 
	d="
M585.008179,84.542175 
	C585.021912,85.011818 584.543457,85.066025 584.308472,85.013535 
	C584.015076,68.697296 583.922791,52.433430 583.980530,36.170105 
	C583.984131,35.172352 585.173584,34.178810 586.005493,33.603405 
	C585.799988,35.916023 585.065857,37.806335 585.053345,39.701424 
	C584.955505,54.491272 584.996460,69.282043 585.008179,84.542175 
z"/>
<path fill="#165652" opacity="1.000000" stroke="none" 
	d="
M584.541748,139.894775 
	C584.859802,133.534225 585.105713,127.601418 585.645020,121.816055 
	C586.018677,132.582748 586.098938,143.201996 586.014282,153.997253 
	C585.849487,154.173248 585.531494,154.535950 585.531494,154.535950 
	C585.177551,149.798141 584.823547,145.060333 584.541748,139.894775 
z"/>
<path fill="#165652" opacity="1.000000" stroke="none" 
	d="
M587.988281,154.000000 
	C588.978760,155.009537 589.969177,156.019089 591.012939,157.333099 
	C589.380371,156.757675 587.694458,155.877762 585.770020,154.766907 
	C585.531494,154.535950 585.849487,154.173248 586.315735,154.039368 
	C587.188232,153.941193 587.594482,153.976913 588.001282,154.006439 
	C588.001831,154.000259 587.988281,154.000000 587.988281,154.000000 
z"/>
<path fill="#40736E" opacity="1.000000" stroke="none" 
	d="
M769.414917,133.993530 
	C769.038452,133.784744 769.040649,133.604355 769.063477,133.154541 
	C769.996338,133.002365 770.908569,133.119614 771.942505,133.579056 
	C771.307312,133.954803 770.550537,133.988342 769.414917,133.993530 
z"/>
<path fill="#40736E" opacity="1.000000" stroke="none" 
	d="
M777.936768,136.648849 
	C777.458557,136.776917 776.829834,136.632538 776.124756,136.156952 
	C776.627625,136.009308 777.206909,136.192856 777.936768,136.648849 
z"/>
<path fill="#40736E" opacity="1.000000" stroke="none" 
	d="
M775.940674,135.653885 
	C775.458435,135.768814 774.830750,135.607910 774.144287,135.109329 
	C774.655396,134.973785 775.225281,135.175903 775.940674,135.653885 
z"/>
<path fill="#40736E" opacity="1.000000" stroke="none" 
	d="
M773.957397,134.631775 
	C773.457458,134.767624 772.831848,134.616806 772.149780,134.131073 
	C772.672852,133.979141 773.252258,134.162140 773.957397,134.631775 
z"/>
<path fill="#40736E" opacity="1.000000" stroke="none" 
	d="
M774.826416,798.198792 
	C775.540222,798.070190 776.084900,798.224609 776.759277,798.796387 
	C776.145142,798.969727 775.401184,798.725769 774.826416,798.198792 
z"/>
<path fill="#40736E" opacity="1.000000" stroke="none" 
	d="
M779.220337,137.561920 
	C778.799683,137.723419 778.459656,137.565521 778.102051,137.111023 
	C778.489990,136.957123 778.895447,137.099808 779.220337,137.561920 
z"/>
<path fill="#90CBC5" opacity="1.000000" stroke="none" 
	d="
M615.016479,457.000519 
	C614.094482,463.502197 613.276611,470.020660 612.232361,476.502655 
	C607.613586,505.172455 597.264771,531.649048 581.439270,555.969238 
	C564.587280,581.866821 542.761475,602.731323 516.416626,618.732056 
	C494.496399,632.045471 470.841278,641.095459 445.417023,645.017578 
	C434.509399,646.700317 423.461884,649.010498 412.534943,648.739197 
	C382.560699,647.995117 353.445740,642.395508 325.990692,629.650757 
	C304.917847,619.868591 286.036377,607.047058 269.194336,590.961243 
	C245.294922,568.134888 228.309372,540.910706 217.503525,509.966522 
	C210.997223,491.334778 207.086868,471.944855 206.992279,451.154663 
	C206.927490,449.492676 206.834625,448.686584 206.741760,447.880493 
	C206.753067,445.252289 206.764343,442.624054 206.881546,439.119751 
	C206.930145,436.131104 206.872833,434.018555 206.815521,431.905975 
	C209.045303,398.078400 218.672791,366.390442 236.398590,337.607666 
	C255.083221,307.267975 280.136505,283.200684 311.450806,265.667908 
	C334.612396,252.699829 359.416779,245.125580 385.459747,241.318863 
	C394.929901,239.934616 404.592499,239.031967 414.138824,239.236923 
	C423.832550,239.445053 433.533630,241.011566 443.156647,242.475037 
	C465.745728,245.910385 487.058411,253.304535 507.200897,264.057007 
	C523.948425,272.997162 539.102966,284.137634 552.768127,297.315430 
	C574.234192,318.015839 590.206970,342.388275 601.045959,370.100922 
	C608.255005,388.532654 612.744507,407.638885 614.037415,427.442139 
	C614.101929,428.430206 614.354858,429.405914 614.773682,431.160583 
	C615.023682,440.289337 615.020081,448.644928 615.016479,457.000519 
M425.832886,397.687897 
	C422.434143,389.794067 419.035400,381.900238 415.702148,374.158569 
	C411.280609,374.158569 407.305878,374.158569 403.244171,374.158569 
	C402.400909,376.270325 401.608673,378.278290 400.798767,380.279114 
	C386.837982,414.767426 372.802429,449.225830 358.974030,483.767151 
	C356.214111,490.661011 353.191895,496.495697 344.372772,496.253113 
	C343.630035,496.232697 342.428070,499.396484 342.195709,501.179535 
	C342.106384,501.864807 344.121155,503.535400 345.195831,503.552002 
	C356.999481,503.734650 368.808044,503.755981 380.611145,503.565857 
	C381.753296,503.547455 383.574738,501.999695 383.867981,500.851990 
	C384.911407,496.767883 382.604675,495.879974 378.864624,495.858948 
	C369.652924,495.807098 368.178802,493.767792 370.958313,485.000671 
	C372.912994,478.834991 375.185181,472.755615 377.664185,466.782379 
	C378.177155,465.546356 380.218964,464.194824 381.574982,464.174896 
	C394.900421,463.978943 408.231812,463.946625 421.555481,464.192902 
	C423.138550,464.222168 425.418335,465.844849 426.121063,467.324493 
	C428.968719,473.320648 431.420471,479.512695 433.841888,485.701477 
	C437.186432,494.249664 436.172943,495.651459 426.819763,495.943176 
	C425.987488,495.969147 424.652832,495.693054 424.411346,496.085846 
	C423.428284,497.685089 422.413910,499.446075 422.197601,501.242188 
	C422.116547,501.915375 424.171478,503.544159 425.265228,503.555817 
	C442.066284,503.735687 458.869934,503.776215 475.670959,503.623871 
	C476.786987,503.613770 478.881622,501.676239 478.784302,500.836456 
	C478.588745,499.149170 477.087097,496.160553 476.309143,496.217773 
	C468.358032,496.803009 465.749908,491.471588 463.227142,485.516327 
	C450.914886,456.451416 438.483795,427.436920 425.832886,397.687897 
M288.156219,515.365173 
	C286.771667,511.769318 284.344696,508.216766 284.193146,504.569672 
	C283.688812,492.433533 284.354126,480.250458 283.907623,468.109772 
	C283.403198,454.393951 281.105896,448.262054 266.845093,444.353241 
	C266.331329,444.212463 265.882019,443.836609 264.837128,443.256073 
	C266.900299,442.680511 268.355438,442.370270 269.742523,441.871094 
	C275.944580,439.639221 281.253296,436.346375 282.723297,429.324310 
	C283.433716,425.930725 283.901001,422.425629 283.945129,418.964203 
	C284.093811,407.308594 284.105835,395.648682 283.964661,383.992920 
	C283.883057,377.254028 287.110779,372.986847 293.138275,370.645142 
	C295.559509,369.704498 298.144470,369.185181 300.948151,368.390991 
	C300.875061,367.048767 300.799530,365.662445 300.671143,363.305420 
	C293.357330,364.186920 286.391846,364.546387 279.646393,365.957458 
	C270.642914,367.840942 265.539886,373.302704 264.970367,382.500671 
	C264.138977,395.928589 264.176178,409.415222 264.025970,422.878876 
	C263.878815,436.067810 260.637848,439.763062 247.648544,440.988922 
	C247.190399,441.032135 246.752823,441.293152 246.038315,441.548096 
	C246.118652,442.980011 246.197296,444.381653 246.272125,445.715363 
	C261.280670,447.593933 263.987427,450.686646 263.996613,465.620636 
	C264.003601,476.945068 263.898010,488.270599 264.024292,499.593628 
	C264.184021,513.911987 270.204437,521.936829 282.608582,523.872498 
	C288.156403,524.738281 293.856934,524.634277 299.490509,524.924377 
	C299.927734,524.946777 300.383728,524.604614 300.796387,524.445312 
	C300.796387,523.053101 300.796387,521.757751 300.796387,521.093933 
	C296.500763,519.229614 292.609802,517.540894 288.156219,515.365173 
M529.272583,363.999817 
	C526.314636,363.999817 523.356689,363.999817 520.275024,363.999817 
	C520.275024,365.893982 520.275024,367.301514 520.275024,368.657928 
	C533.296326,371.045654 537.726562,375.501068 537.103271,388.307068 
	C536.593933,398.771088 536.927979,409.280273 537.017639,419.768311 
	C537.123535,432.151917 540.930725,438.191345 550.606018,441.621490 
	C552.287537,442.217621 554.019104,442.672363 556.452515,443.413055 
	C553.227783,444.586273 550.712463,445.397430 548.279785,446.407623 
	C542.825439,448.672546 539.301392,452.738312 538.149597,458.508331 
	C537.439758,462.063934 537.090332,465.742523 537.049500,469.371185 
	C536.914490,481.356903 536.967773,493.345093 537.001038,505.332184 
	C537.017700,511.326477 534.219360,515.516479 528.840149,517.858459 
	C526.154236,519.027832 523.231689,519.653687 520.300781,520.561096 
	C520.300781,521.864685 520.300781,523.258484 520.300781,525.700256 
	C527.896545,524.769897 535.181274,524.349609 542.244934,522.872559 
	C548.630066,521.537415 553.247131,517.260498 555.024597,510.808777 
	C556.112854,506.858612 556.828857,502.689148 556.913940,498.601532 
	C557.159790,486.785919 556.972290,474.961792 557.009949,463.141205 
	C557.047729,451.296661 560.918823,447.172241 572.902527,446.043701 
	C573.522949,445.985291 574.129456,445.779083 575.004028,445.583038 
	C574.893921,443.982971 574.797485,442.582520 574.705994,441.252960 
	C559.643921,439.487946 557.004578,436.480164 557.001282,421.456482 
	C556.998840,410.634705 557.104126,399.811646 556.974670,388.991425 
	C556.806763,374.955658 551.261963,367.627014 539.080078,365.173218 
	C536.158508,364.584717 533.158997,364.382965 529.272583,363.999817 
M321.932343,431.177399 
	C321.132172,431.402954 320.330017,431.621613 319.532196,431.855194 
	C311.899902,434.089722 307.579437,441.889252 309.804077,449.412903 
	C312.106140,457.198364 320.218292,461.558136 327.850586,459.111786 
	C333.972595,457.149506 338.511688,450.652283 337.966614,444.631744 
	C337.260223,436.830353 331.770996,431.928680 321.932343,431.177399 
M490.062134,457.715942 
	C491.452850,458.238922 492.813568,458.869873 494.239532,459.265839 
	C499.850281,460.823639 505.513733,458.712860 509.106628,453.806519 
	C512.775513,448.796326 512.867310,442.616455 509.348877,437.494171 
	C505.937195,432.527374 500.207550,430.270691 494.611877,431.608124 
	C488.719482,433.016449 485.047302,436.553314 483.629211,442.505127 
	C482.121185,448.834381 484.639862,453.474579 490.062134,457.715942 
z"/>
<path fill="#001217" opacity="1.000000" stroke="none" 
	d="
M615.318237,456.710327 
	C615.020081,448.644928 615.023682,440.289337 615.040283,431.465088 
	C615.242188,439.470978 615.431091,447.945557 615.318237,456.710327 
z"/>
<path fill="#4E6868" opacity="1.000000" stroke="none" 
	d="
M206.443695,431.996124 
	C206.872833,434.018555 206.930145,436.131104 206.864517,438.682251 
	C206.518341,436.775970 206.295105,434.431122 206.443695,431.996124 
z"/>
<path fill="#4E6868" opacity="1.000000" stroke="none" 
	d="
M206.401489,448.011993 
	C206.834625,448.686584 206.927490,449.492676 206.951752,450.702820 
	C206.451157,452.076538 206.019165,453.046173 205.587158,454.015808 
	C205.327286,453.991394 205.067398,453.967010 204.807526,453.942596 
	C205.225418,452.009552 205.643311,450.076538 206.401489,448.011993 
z"/>
<path fill="#FDFEFE" opacity="1.000000" stroke="none" 
	d="
M212.009460,38.013939 
	C232.514603,19.885956 263.311920,25.546389 273.969482,50.312614 
	C284.973480,75.883804 284.389130,102.051598 272.020538,127.370430 
	C261.226837,149.465363 224.842926,149.320129 211.307892,130.130875 
	C203.877106,119.595886 200.483368,107.690834 199.452789,95.197968 
	C198.220856,80.264252 197.984711,65.201775 204.160019,51.042786 
	C206.125153,46.537071 209.194458,42.512936 212.009460,38.013939 
z"/>
<path fill="#120380" opacity="1.000000" stroke="none" 
	d="
M135.046387,676.917725 
	C135.945847,678.204407 136.553970,680.028687 137.788254,680.697449 
	C158.536469,691.941101 179.364578,703.037231 200.170883,714.173645 
	C208.499985,718.631714 216.809464,723.126465 225.147263,727.568054 
	C229.133163,729.691284 231.161530,732.531128 231.114151,737.465027 
	C230.877319,762.126282 230.911270,786.791565 231.050446,811.454285 
	C231.105682,821.244934 231.695312,831.032043 231.998672,840.822205 
	C232.047928,842.411621 231.872696,844.008057 231.770172,846.294312 
	C227.941086,844.602844 224.746506,843.405640 221.752609,841.827637 
	C213.851730,837.663269 206.037170,833.335083 198.189621,829.069641 
	C182.920837,820.770325 167.671356,812.435364 152.379578,804.178711 
	C137.843719,796.330200 123.208946,788.663330 108.720177,780.729370 
	C95.834595,773.673401 83.144341,766.260803 70.260994,759.200623 
	C63.036125,755.241272 55.633076,751.598938 48.236504,747.963928 
	C43.387547,745.580872 40.838295,742.582703 40.843426,736.476501 
	C41.023247,522.503967 40.994316,308.531311 40.994919,94.558647 
	C40.994926,92.488594 40.994919,90.418533 40.994919,87.053566 
	C50.925468,92.425110 59.585358,97.153458 68.287819,101.802116 
	C74.819267,105.291061 81.458885,108.579834 87.954697,112.132622 
	C97.640793,117.430275 107.219299,122.924355 116.891174,128.248413 
	C121.098213,130.564255 125.599083,132.394669 129.609253,134.996216 
	C131.232285,136.049149 132.165802,138.473053 132.911591,140.461212 
	C133.404816,141.776169 133.006149,143.425827 133.006149,144.925629 
	C133.005783,320.069916 133.000793,495.214172 133.057495,670.358459 
	C133.058197,672.512573 133.850174,674.666382 134.637512,676.907837 
	C135.002243,676.995361 135.046387,676.917725 135.046387,676.917725 
z"/>
<path fill="#605888" opacity="1.000000" stroke="none" 
	d="
M38.378860,743.932373 
	C38.076977,741.951965 38.005718,739.621033 38.005653,737.290161 
	C37.999996,522.084045 37.998917,306.877960 38.012066,91.671844 
	C38.012188,89.687485 38.206863,87.703140 38.581001,85.425827 
	C38.894814,87.297813 38.976418,89.462776 38.976440,91.627731 
	C38.978870,306.959106 38.976009,522.290466 38.958153,737.621826 
	C38.957989,739.608521 38.752399,741.595276 38.378860,743.932373 
z"/>
<path fill="#746C9D" opacity="1.000000" stroke="none" 
	d="
M135.655960,136.221802 
	C135.990402,315.974884 135.995361,495.995728 135.981857,676.477905 
	C135.963379,676.939270 135.504044,676.957642 135.275208,676.937683 
	C135.046387,676.917725 135.002243,676.995361 135.041763,676.973511 
	C135.063202,587.785400 135.038620,498.619171 135.028885,409.452942 
	C135.019165,320.452942 135.022369,231.452942 135.035660,142.452942 
	C135.035950,140.465134 135.225311,138.477371 135.655960,136.221802 
z"/>
<path fill="#01B5B0" opacity="1.000000" stroke="none" 
	d="
M586.125000,87.902924 
	C586.093933,87.182266 586.062866,86.461601 586.022095,85.380936 
	C586.339172,83.293465 586.936890,81.567917 586.949158,79.838211 
	C587.034241,67.859322 586.997620,55.879570 586.999939,43.900093 
	C587.000305,42.112438 587.000000,40.324783 587.000000,37.265770 
	C593.292847,40.501205 598.655640,43.164642 603.932495,45.988583 
	C621.726624,55.511269 639.493225,65.085701 657.264893,74.650337 
	C675.887939,84.673157 694.515930,94.686890 713.121155,104.742714 
	C730.989624,114.400314 748.830139,124.109558 766.694763,133.774216 
	C767.110107,133.998932 767.666504,133.962952 768.518311,134.088409 
	C770.829956,135.531387 773.013245,136.708603 774.660706,138.405960 
	C776.097168,139.885941 777.067261,141.887497 777.964050,143.790268 
	C778.349854,144.608688 778.030701,145.759644 778.030701,146.759506 
	C778.030762,360.731323 778.030762,574.703125 778.030762,788.674927 
	C778.030762,790.951965 778.030762,793.228943 778.030762,796.456604 
	C774.951599,795.057922 772.726868,794.190613 770.634766,793.074646 
	C753.836975,784.114075 737.022400,775.183533 720.299011,766.085632 
	C709.589844,760.259583 698.944519,754.302734 688.479675,748.054382 
	C686.762512,747.028992 685.878967,744.285095 685.082703,742.158508 
	C684.590088,740.842957 684.989746,739.193115 684.989746,737.693298 
	C684.989868,562.882996 684.993713,388.072693 684.945374,213.262390 
	C684.944824,211.229111 684.269287,209.196014 683.529358,207.032913 
	C683.149963,206.902985 683.019348,206.550156 682.990601,206.365219 
	C682.013428,204.973541 681.316162,203.310532 680.078552,202.629532 
	C665.087830,194.380447 650.014648,186.281387 634.968567,178.132812 
	C620.939270,170.534912 606.926025,162.907074 592.875122,155.349304 
	C591.620850,154.674652 590.141296,154.418747 588.377319,153.984192 
	C587.988281,154.000000 588.001831,154.000259 588.012329,153.536697 
	C588.004822,133.022644 588.030457,112.971840 587.888977,92.922203 
	C587.877136,91.245041 586.739563,89.575829 586.125000,87.902924 
z"/>
<path fill="#2DA19D" opacity="1.000000" stroke="none" 
	d="
M586.062012,88.377716 
	C586.739563,89.575829 587.877136,91.245041 587.888977,92.922203 
	C588.030457,112.971840 588.004822,133.022644 588.011841,153.542877 
	C587.594482,153.976913 587.188232,153.941193 586.480591,153.863358 
	C586.098938,143.201996 586.018677,132.582748 585.903870,121.498329 
	C585.912537,110.306274 585.955811,99.579391 586.062012,88.377716 
z"/>
<path fill="#173846" opacity="1.000000" stroke="none" 
	d="
M425.963806,398.046234 
	C438.483795,427.436920 450.914886,456.451416 463.227142,485.516327 
	C465.749908,491.471588 468.358032,496.803009 476.309143,496.217773 
	C477.087097,496.160553 478.588745,499.149170 478.784302,500.836456 
	C478.881622,501.676239 476.786987,503.613770 475.670959,503.623871 
	C458.869934,503.776215 442.066284,503.735687 425.265228,503.555817 
	C424.171478,503.544159 422.116547,501.915375 422.197601,501.242188 
	C422.413910,499.446075 423.428284,497.685089 424.411346,496.085846 
	C424.652832,495.693054 425.987488,495.969147 426.819763,495.943176 
	C436.172943,495.651459 437.186432,494.249664 433.841888,485.701477 
	C431.420471,479.512695 428.968719,473.320648 426.121063,467.324493 
	C425.418335,465.844849 423.138550,464.222168 421.555481,464.192902 
	C408.231812,463.946625 394.900421,463.978943 381.574982,464.174896 
	C380.218964,464.194824 378.177155,465.546356 377.664185,466.782379 
	C375.185181,472.755615 372.912994,478.834991 370.958313,485.000671 
	C368.178802,493.767792 369.652924,495.807098 378.864624,495.858948 
	C382.604675,495.879974 384.911407,496.767883 383.867981,500.851990 
	C383.574738,501.999695 381.753296,503.547455 380.611145,503.565857 
	C368.808044,503.755981 356.999481,503.734650 345.195831,503.552002 
	C344.121155,503.535400 342.106384,501.864807 342.195709,501.179535 
	C342.428070,499.396484 343.630035,496.232697 344.372772,496.253113 
	C353.191895,496.495697 356.214111,490.661011 358.974030,483.767151 
	C372.802429,449.225830 386.837982,414.767426 400.798767,380.279114 
	C401.608673,378.278290 402.400909,376.270325 403.244171,374.158569 
	C407.305878,374.158569 411.280609,374.158569 415.702148,374.158569 
	C419.035400,381.900238 422.434143,389.794067 425.963806,398.046234 
M411.432251,454.004364 
	C414.215851,454.004364 416.999420,454.004364 420.775696,454.004364 
	C414.283722,438.250244 408.111816,423.272736 401.451538,407.110168 
	C394.915375,423.429321 388.911591,438.419250 382.669434,454.004425 
	C392.506531,454.004425 401.477722,454.004425 411.432251,454.004364 
z"/>
<path fill="#173846" opacity="1.000000" stroke="none" 
	d="
M288.437531,515.608643 
	C292.609802,517.540894 296.500763,519.229614 300.796387,521.093933 
	C300.796387,521.757751 300.796387,523.053101 300.796387,524.445312 
	C300.383728,524.604614 299.927734,524.946777 299.490509,524.924377 
	C293.856934,524.634277 288.156403,524.738281 282.608582,523.872498 
	C270.204437,521.936829 264.184021,513.911987 264.024292,499.593628 
	C263.898010,488.270599 264.003601,476.945068 263.996613,465.620636 
	C263.987427,450.686646 261.280670,447.593933 246.272125,445.715363 
	C246.197296,444.381653 246.118652,442.980011 246.038315,441.548096 
	C246.752823,441.293152 247.190399,441.032135 247.648544,440.988922 
	C260.637848,439.763062 263.878815,436.067810 264.025970,422.878876 
	C264.176178,409.415222 264.138977,395.928589 264.970367,382.500671 
	C265.539886,373.302704 270.642914,367.840942 279.646393,365.957458 
	C286.391846,364.546387 293.357330,364.186920 300.671143,363.305420 
	C300.799530,365.662445 300.875061,367.048767 300.948151,368.390991 
	C298.144470,369.185181 295.559509,369.704498 293.138275,370.645142 
	C287.110779,372.986847 283.883057,377.254028 283.964661,383.992920 
	C284.105835,395.648682 284.093811,407.308594 283.945129,418.964203 
	C283.901001,422.425629 283.433716,425.930725 282.723297,429.324310 
	C281.253296,436.346375 275.944580,439.639221 269.742523,441.871094 
	C268.355438,442.370270 266.900299,442.680511 264.837128,443.256073 
	C265.882019,443.836609 266.331329,444.212463 266.845093,444.353241 
	C281.105896,448.262054 283.403198,454.393951 283.907623,468.109772 
	C284.354126,480.250458 283.688812,492.433533 284.193146,504.569672 
	C284.344696,508.216766 286.771667,511.769318 288.437531,515.608643 
z"/>
<path fill="#173846" opacity="1.000000" stroke="none" 
	d="
M529.734009,364.001587 
	C533.158997,364.382965 536.158508,364.584717 539.080078,365.173218 
	C551.261963,367.627014 556.806763,374.955658 556.974670,388.991425 
	C557.104126,399.811646 556.998840,410.634705 557.001282,421.456482 
	C557.004578,436.480164 559.643921,439.487946 574.705994,441.252960 
	C574.797485,442.582520 574.893921,443.982971 575.004028,445.583038 
	C574.129456,445.779083 573.522949,445.985291 572.902527,446.043701 
	C560.918823,447.172241 557.047729,451.296661 557.009949,463.141205 
	C556.972290,474.961792 557.159790,486.785919 556.913940,498.601532 
	C556.828857,502.689148 556.112854,506.858612 555.024597,510.808777 
	C553.247131,517.260498 548.630066,521.537415 542.244934,522.872559 
	C535.181274,524.349609 527.896545,524.769897 520.300781,525.700256 
	C520.300781,523.258484 520.300781,521.864685 520.300781,520.561096 
	C523.231689,519.653687 526.154236,519.027832 528.840149,517.858459 
	C534.219360,515.516479 537.017700,511.326477 537.001038,505.332184 
	C536.967773,493.345093 536.914490,481.356903 537.049500,469.371185 
	C537.090332,465.742523 537.439758,462.063934 538.149597,458.508331 
	C539.301392,452.738312 542.825439,448.672546 548.279785,446.407623 
	C550.712463,445.397430 553.227783,444.586273 556.452515,443.413055 
	C554.019104,442.672363 552.287537,442.217621 550.606018,441.621490 
	C540.930725,438.191345 537.123535,432.151917 537.017639,419.768311 
	C536.927979,409.280273 536.593933,398.771088 537.103271,388.307068 
	C537.726562,375.501068 533.296326,371.045654 520.275024,368.657928 
	C520.275024,367.301514 520.275024,365.893982 520.275024,363.999817 
	C523.356689,363.999817 526.314636,363.999817 529.734009,364.001587 
z"/>
<path fill="#183947" opacity="1.000000" stroke="none" 
	d="
M322.332703,431.103149 
	C331.770996,431.928680 337.260223,436.830353 337.966614,444.631744 
	C338.511688,450.652283 333.972595,457.149506 327.850586,459.111786 
	C320.218292,461.558136 312.106140,457.198364 309.804077,449.412903 
	C307.579437,441.889252 311.899902,434.089722 319.532196,431.855194 
	C320.330017,431.621613 321.132172,431.402954 322.332703,431.103149 
z"/>
<path fill="#183947" opacity="1.000000" stroke="none" 
	d="
M489.768921,457.477997 
	C484.639862,453.474579 482.121185,448.834381 483.629211,442.505127 
	C485.047302,436.553314 488.719482,433.016449 494.611877,431.608124 
	C500.207550,430.270691 505.937195,432.527374 509.348877,437.494171 
	C512.867310,442.616455 512.775513,448.796326 509.106628,453.806519 
	C505.513733,458.712860 499.850281,460.823639 494.239532,459.265839 
	C492.813568,458.869873 491.452850,458.238922 489.768921,457.477997 
z"/>
<path fill="#8FC8C3" opacity="1.000000" stroke="none" 
	d="
M410.940582,454.004395 
	C401.477722,454.004425 392.506531,454.004425 382.669434,454.004425 
	C388.911591,438.419250 394.915375,423.429321 401.451538,407.110168 
	C408.111816,423.272736 414.283722,438.250244 420.775696,454.004364 
	C416.999420,454.004364 414.215851,454.004364 410.940582,454.004395 
z"/>
</svg>